<svg width="24" height="24" viewBox="0 0 24 24" fill="none" xmlns="http://www.w3.org/2000/svg">
<mask id="mask0_3_4773" style="mask-type:alpha" maskUnits="userSpaceOnUse" x="0" y="0" width="24" height="25">
<mask id="mask1_3_4773" style="mask-type:alpha" maskUnits="userSpaceOnUse" x="0" y="0" width="24" height="25">
<rect y="0.000610352" width="24" height="24" fill="#D9D9D9"/>
</mask>
<g mask="url(#mask1_3_4773)">
<path d="M7 22.0006C6.45 22.0006 5.97917 21.8048 5.5875 21.4131C5.19583 21.0214 5 20.5506 5 20.0006C5 19.4506 5.19583 18.9798 5.5875 18.5881C5.97917 18.1964 6.45 18.0006 7 18.0006C7.55 18.0006 8.02083 18.1964 8.4125 18.5881C8.80417 18.9798 9 19.4506 9 20.0006C9 20.5506 8.80417 21.0214 8.4125 21.4131C8.02083 21.8048 7.55 22.0006 7 22.0006ZM17 22.0006C16.45 22.0006 15.9792 21.8048 15.5875 21.4131C15.1958 21.0214 15 20.5506 15 20.0006C15 19.4506 15.1958 18.9798 15.5875 18.5881C15.9792 18.1964 16.45 18.0006 17 18.0006C17.55 18.0006 18.0208 18.1964 18.4125 18.5881C18.8042 18.9798 19 19.4506 19 20.0006C19 20.5506 18.8042 21.0214 18.4125 21.4131C18.0208 21.8048 17.55 22.0006 17 22.0006ZM6.15 6.00061L8.55 11.0006H15.55L18.3 6.00061H6.15ZM5.2 4.00061H19.95C20.3333 4.00061 20.625 4.17144 20.825 4.51311C21.025 4.85478 21.0333 5.20061 20.85 5.55061L17.3 11.9506C17.1167 12.2839 16.8708 12.5423 16.5625 12.7256C16.2542 12.9089 15.9167 13.0006 15.55 13.0006H8.1L7 15.0006H18C18.2833 15.0006 18.5208 15.0964 18.7125 15.2881C18.9042 15.4798 19 15.7173 19 16.0006C19 16.2839 18.9042 16.5214 18.7125 16.7131C18.5208 16.9048 18.2833 17.0006 18 17.0006H7C6.25 17.0006 5.68333 16.6714 5.3 16.0131C4.91667 15.3548 4.9 14.7006 5.25 14.0506L6.6 11.6006L3 4.00061H2C1.71667 4.00061 1.47917 3.90478 1.2875 3.71311C1.09583 3.52144 1 3.28394 1 3.00061C1 2.71728 1.09583 2.47978 1.2875 2.28811C1.47917 2.09644 1.71667 2.00061 2 2.00061H3.625C3.80833 2.00061 3.98333 2.05061 4.15 2.15061C4.31667 2.25061 4.44167 2.39228 4.525 2.57561L5.2 4.00061Z" fill="#1C1B1F"/>
</g>
</mask>
<g mask="url(#mask0_3_4773)">
<rect y="0.000610352" width="24" height="24" fill="black"/>
</g>
</svg>
