<svg width="64" height="49" viewBox="0 0 64 49" fill="none" xmlns="http://www.w3.org/2000/svg">
<path d="M0.0536831 13.6543H3.37502C4.37354 13.5998 5.36929 13.8028 6.26687 14.2437C6.58316 14.425 6.84158 14.6923 7.01218 15.0145C7.18279 15.3367 7.25859 15.7007 7.23081 16.0642C7.23666 16.5616 7.08691 17.0483 6.80251 17.4564C6.54568 17.8267 6.16483 18.0929 5.72882 18.2068V18.2605C6.23773 18.3698 6.6923 18.6539 7.01368 19.0634C7.33895 19.6207 7.45815 20.2746 7.35043 20.9109C7.24271 21.5471 6.91495 22.1253 6.42435 22.5446C5.63578 23.0768 4.69634 23.34 3.74604 23.295H0V13.6543H0.0536831ZM2.67831 17.3526H3.48119C3.78266 17.3784 4.08412 17.3028 4.33777 17.1379C4.44564 17.0582 4.53162 16.9526 4.58773 16.8307C4.64383 16.7089 4.66824 16.5749 4.65869 16.4411C4.65869 15.9055 4.23041 15.6383 3.42632 15.6383H2.67591L2.67831 17.3526ZM2.67831 19.2805V21.3158H3.58856C4.39145 21.3158 4.82094 20.9949 4.82094 20.2981C4.83049 20.1566 4.80639 20.0148 4.75061 19.8844C4.69483 19.754 4.60896 19.6386 4.50002 19.5477C4.21581 19.3573 3.87777 19.2636 3.53607 19.2805H2.67831Z" fill="#014663"/>
<path d="M14.5141 23.2413L14.0369 21.4208H10.9351L10.4579 23.2413H7.60541L10.7072 13.6006H14.1884L17.3487 23.2413H14.5141ZM13.4965 19.3318L13.0682 17.7809C12.9608 17.4063 12.8535 16.978 12.6936 16.4423C12.5337 15.9067 12.4789 15.4784 12.4264 15.2637C12.3727 15.4784 12.319 15.853 12.2116 16.3886C12.1042 16.9243 11.837 17.8883 11.4612 19.3879H13.4965V19.3318Z" fill="#014663"/>
<path d="M27.1551 23.2413H23.7765L20.2953 16.4925H20.2416C20.3201 17.2933 20.356 18.0977 20.349 18.9023V23.2401H18.05V13.6543H21.4239L24.905 20.2958H24.9587C24.9051 19.3318 24.8514 18.5277 24.8514 17.9933V13.6543H27.1539L27.1551 23.2413Z" fill="#014663"/>
<path d="M36.796 23.2413H33.8504L31.9762 19.599L31.227 20.0762V23.2902H28.6024V13.708H31.227V17.8835C31.4526 17.4468 31.7216 17.0339 32.0299 16.6511L34.0652 13.7056H36.9033L33.9041 17.9909L36.796 23.2413Z" fill="#014663"/>
<path d="M0.0536831 26.027H3.37502C4.37353 25.9726 5.36928 26.1755 6.26687 26.6163C6.58316 26.7976 6.84158 27.0649 7.01218 27.3871C7.18279 27.7093 7.25859 28.0733 7.23081 28.4368C7.23666 28.9342 7.08691 29.421 6.80251 29.8291C6.54568 30.1994 6.16483 30.4656 5.72882 30.5795V30.6331C6.23773 30.7425 6.6923 31.0266 7.01368 31.436C7.33895 31.9934 7.45815 32.6473 7.35043 33.2835C7.24271 33.9198 6.91495 34.498 6.42435 34.9172C5.63563 35.449 4.69621 35.7118 3.74604 35.6664H0V26.027H0.0536831ZM2.67831 29.7253H3.48119C3.78266 29.7511 4.08412 29.6755 4.33777 29.5105C4.44564 29.4309 4.53162 29.3252 4.58773 29.2034C4.64383 29.0816 4.66824 28.9476 4.65869 28.8138C4.65869 28.2782 4.23041 28.0109 3.42632 28.0109H2.67591L2.67831 29.7253ZM2.67831 31.5995V33.6348H3.58856C4.39145 33.6348 4.82094 33.3138 4.82094 32.6171C4.83049 32.4756 4.80639 32.3338 4.75061 32.2034C4.69483 32.0729 4.60896 31.9576 4.50002 31.8667C4.21581 31.6763 3.87777 31.5825 3.53607 31.5995H2.67831Z" fill="#014663"/>
<path d="M14.5156 35.614H8.83803V26.027H14.5156V28.1159H11.4137V29.6155H14.3056V31.7045H11.4137V33.525H14.5156V35.614Z" fill="#014663"/>
<path d="M20.7274 35.614H18.1565V28.1744H15.8003V26.027H23.0848V28.1744H20.7274V35.6188V35.614Z" fill="#014663"/>
<path d="M29.3503 35.6139L28.8732 33.7934H25.7713L25.2941 35.6139H22.4417L25.5435 25.9733H29.0247L32.1849 35.6139H29.3503ZM28.3327 31.7045L27.9044 30.1536C27.797 29.779 27.6897 29.3507 27.5298 28.815C27.37 28.2794 27.3151 27.8511 27.2626 27.6363C27.2089 27.8511 27.1552 28.2257 27.0479 28.7613C26.9405 29.297 26.6733 30.2609 26.2975 31.7606H28.3327V31.7045Z" fill="#014663"/>
<path d="M33.1537 35.614V26.027H35.7246V33.525H39.4229V35.614H33.1537Z" fill="#014663"/>
<path d="M40.8663 35.614V26.027H43.4909V35.614H40.8663Z" fill="#014663"/>
<path d="M54.3093 35.614H50.9307L47.4495 28.8651H47.3959C47.4744 29.666 47.5102 30.4704 47.5032 31.275V35.6128H45.2043V26.027H48.5781L52.0593 32.6684H52.113C52.0593 31.7045 52.0056 30.9004 52.0056 30.3659V26.027H54.3081L54.3093 35.614Z" fill="#014663"/>
<path d="M59.8807 29.9901H64.0002V35.1319C62.8074 35.527 61.5584 35.726 60.3018 35.7213C59.6721 35.7628 59.0406 35.6697 58.4496 35.4481C57.8586 35.2266 57.3217 34.8817 56.8744 34.4364C56.01 33.4263 55.5685 32.1216 55.642 30.7941C55.5976 30.1353 55.6941 29.4745 55.9248 28.8558C56.1556 28.237 56.5155 27.6745 56.9805 27.2056C57.4815 26.7578 58.0663 26.4137 58.7011 26.1931C59.3359 25.9726 60.0081 25.88 60.6788 25.9207C61.2542 25.9186 61.8283 25.9726 62.3932 26.0818C62.8706 26.1769 63.3371 26.3205 63.7854 26.5101L62.9825 28.5454C62.2806 28.2047 61.5126 28.0219 60.7325 28.0097C60.4008 27.9977 60.0706 28.0587 59.7651 28.1884C59.4596 28.318 59.1863 28.5132 58.9645 28.7601C58.4992 29.3529 58.2701 30.0972 58.3214 30.849C58.2639 31.5686 58.4528 32.2863 58.8571 32.8843C59.0493 33.121 59.2956 33.308 59.5754 33.4293C59.8551 33.5505 60.1599 33.6026 60.4641 33.581C60.8243 33.5746 61.1834 33.5387 61.5378 33.4736V31.974H59.8771L59.8807 29.9901Z" fill="#014663"/>
<path d="M41.8792 13.708H38.7773L41.9913 18.48L38.7773 23.2521H41.8792L45.0394 18.48L41.8792 13.708Z" fill="#D31D21"/>
<path d="M48.1459 13.708H45.0441L48.2581 18.48L45.0441 23.2521H48.1459L51.3062 18.48L48.1459 13.708Z" fill="#C41918"/>
<path d="M54.4115 13.708H51.3097L54.5237 18.48L51.3097 23.2521H54.4115L57.5718 18.48L54.4115 13.708Z" fill="#AB1E17"/>
<path d="M60.6783 13.708H57.5765L60.7905 18.48L57.5765 23.2521H60.6783L63.8923 18.48L60.6783 13.708Z" fill="#931913"/>
</svg>
