<svg width="20" height="20" viewBox="0 0 20 20" fill="none" xmlns="http://www.w3.org/2000/svg">
<mask id="mask0_541_941" style="mask-type:alpha" maskUnits="userSpaceOnUse" x="0" y="0" width="20" height="20">
<rect width="20" height="20" fill="#D9D9D9"/>
</mask>
<g mask="url(#mask0_541_941)">
<path d="M7.95836 12.625L15.0209 5.5625C15.1875 5.39583 15.3854 5.3125 15.6146 5.3125C15.8438 5.3125 16.0417 5.39583 16.2084 5.5625C16.375 5.72917 16.4584 5.92708 16.4584 6.15625C16.4584 6.38542 16.375 6.58333 16.2084 6.75L8.5417 14.4167C8.37503 14.5833 8.18059 14.6667 7.95836 14.6667C7.73614 14.6667 7.5417 14.5833 7.37503 14.4167L3.7917 10.8333C3.62503 10.6667 3.54517 10.4687 3.55211 10.2396C3.55906 10.0104 3.64586 9.8125 3.81253 9.64583C3.9792 9.47917 4.17711 9.39583 4.40628 9.39583C4.63545 9.39583 4.83336 9.47917 5.00003 9.64583L7.95836 12.625Z" fill="#22C55E"/>
</g>
</svg>
