<svg width="20" height="21" viewBox="0 0 20 21" fill="none" xmlns="http://www.w3.org/2000/svg">
<mask id="mask0_3_2489" style="mask-type:alpha" maskUnits="userSpaceOnUse" x="0" y="0" width="20" height="21">
<rect y="0.100586" width="20" height="20" fill="#D9D9D9"/>
</mask>
<g mask="url(#mask0_3_2489)">
<path d="M7.95836 12.7256L15.0209 5.66309C15.1875 5.49642 15.3854 5.41309 15.6146 5.41309C15.8438 5.41309 16.0417 5.49642 16.2084 5.66309C16.375 5.82975 16.4584 6.02767 16.4584 6.25684C16.4584 6.486 16.375 6.68392 16.2084 6.85059L8.5417 14.5173C8.37503 14.6839 8.18059 14.7673 7.95836 14.7673C7.73614 14.7673 7.5417 14.6839 7.37503 14.5173L3.7917 10.9339C3.62503 10.7673 3.54517 10.5693 3.55211 10.3402C3.55906 10.111 3.64586 9.91309 3.81253 9.74642C3.9792 9.57975 4.17711 9.49642 4.40628 9.49642C4.63545 9.49642 4.83336 9.57975 5.00003 9.74642L7.95836 12.7256Z" fill="black"/>
</g>
</svg>
