<svg width="208" height="208" viewBox="0 0 208 208" fill="none" xmlns="http://www.w3.org/2000/svg">
<circle cx="104" cy="104" r="104" fill="black"/>
<g clip-path="url(#clip0_555_2029)">
<path d="M80.8261 66.7747C80.9198 67.6316 80.4892 68.2187 79.5359 68.536C79.3682 68.5738 79.1291 68.5542 78.8202 68.4801C78.5113 68.406 78.2163 68.3781 77.9367 68.3962C77.6558 68.4144 77.4042 68.5542 77.1791 68.8156C76.9359 69.4866 76.6745 70.5168 76.3935 71.9049C76.1125 73.293 75.935 74.1457 75.8609 74.463C75.7295 74.9662 75.436 76.2061 74.9775 78.1813C74.519 80.1565 74.1499 81.676 73.8689 82.7384C73.7753 83.0557 73.6215 83.5212 73.4062 84.1362C73.191 84.7513 73.0372 85.2168 72.9436 85.5341C72.7381 86.2792 72.4892 86.8803 72.1999 87.3374C71.9091 87.7945 71.5303 87.9762 71.0634 87.8825C70.521 87.9203 70.0863 87.8825 69.7592 87.7707C69.4321 87.6589 69.221 87.561 69.1274 87.4771C69.0337 87.3933 68.9079 87.1556 68.7485 86.7642C68.5892 86.3728 68.4816 86.131 68.4256 86.0373C67.8833 85.0127 67.415 83.7071 67.0222 82.1233C66.5735 80.334 66.2548 78.9921 66.0688 78.0974C65.9934 77.706 65.6285 76.9232 64.9743 75.749C64.5438 76.2523 64.2586 76.7974 64.1188 77.3845C63.979 77.9716 63.9077 78.6566 63.9077 79.4394C63.9077 80.2222 63.8896 80.773 63.8518 81.0889C63.7763 81.2748 63.5569 81.546 63.192 81.8997C62.8272 82.2533 62.6357 82.5888 62.6175 82.9061C62.5993 83.0739 62.6497 83.2877 62.7713 83.5491C62.8929 83.8105 62.9628 83.9783 62.9823 84.0524C62.9446 84.1642 62.9027 84.29 62.8565 84.4298C62.809 84.5696 62.7587 84.7275 62.7028 84.9051C62.6469 85.0826 62.5993 85.2168 62.563 85.3104C62.5071 85.4223 62.3058 85.8235 61.9591 86.5126C61.6124 87.2018 61.4125 87.6127 61.3552 87.7427C61.0183 88.0041 60.3068 88.1439 59.2235 88.1621C58.1387 88.1803 57.5684 88.1244 57.5125 87.9944C57.6061 87.9007 57.6201 87.8406 57.5544 87.8126C57.4887 87.7847 57.4845 87.6966 57.5404 87.547C57.4468 87.343 57.3671 87.1976 57.3014 87.1137C57.2357 87.0298 57.1518 86.9418 57.0484 86.8481C56.945 86.7544 56.8471 86.644 56.7534 86.5126C56.7339 86.4385 56.7157 86.3351 56.6975 86.2051C56.678 86.0751 56.6696 85.9912 56.6696 85.9535C56.6696 85.9157 56.6556 85.8514 56.6276 85.7578C56.5997 85.6641 56.5801 85.604 56.5717 85.576C56.5619 85.5481 56.5438 85.4964 56.5158 85.4223C56.4878 85.3482 56.4641 85.2923 56.4459 85.2545C56.4277 85.2168 56.39 85.1567 56.3341 85.0728C56.2782 84.9889 56.2264 84.9149 56.1803 84.8492C56.1328 84.7835 56.0727 84.6954 55.9986 84.5836C55.5499 83.9685 55.315 83.4373 55.2969 82.99C55.2773 82.5804 55.213 82.1513 55.0998 81.7039C54.9865 81.2566 54.837 80.7576 54.651 80.2082C54.4637 79.6589 54.3323 79.2353 54.2582 78.9362C54.426 78.6007 54.5476 78.3393 54.6231 78.1534C54.6049 78.0038 54.4917 77.8458 54.2862 77.6781C54.0807 77.5103 53.9591 77.3426 53.9214 77.1749C53.8277 76.6339 53.6124 75.7952 53.2755 74.6587C52.9387 73.5222 52.7234 72.636 52.6297 72.0027C52.4242 70.623 51.9741 69.5523 51.2836 68.7876C51.0781 68.7695 50.7734 68.7457 50.3722 68.7178C49.9696 68.6898 49.6746 68.6758 49.4887 68.6758C49.1337 68.434 48.9086 68.2746 48.8149 68.2005C48.1775 67.6232 48.0182 66.9704 48.3369 66.2435C48.7101 65.3489 49.3098 64.8918 50.1331 64.8736C52.079 64.8359 53.3315 64.8275 53.8934 64.8457C54.5294 64.9197 55.2158 64.9253 55.9553 64.8596C56.6933 64.7939 57.2874 64.5759 57.7375 64.2026C58.7105 64.2208 59.5338 64.3243 60.2062 64.5102C60.8799 64.6961 61.4782 65.0693 62.0024 65.6285C62.1702 65.5348 62.4693 65.3531 62.8999 65.0833C63.3304 64.8135 63.7036 64.622 64.0224 64.5102C64.3397 64.3983 64.6863 64.3522 65.061 64.3704C65.4356 64.3886 65.7571 64.4864 66.0283 64.6639C66.2995 64.8415 66.5805 65.0931 66.8698 65.4188C67.1592 65.7445 67.3605 65.9542 67.4723 66.0478C67.7533 66.1415 67.9671 66.0758 68.1181 65.8521C68.8101 64.752 69.9605 64.2865 71.5694 64.4543L72.5508 64.5381C73.4104 64.8359 74.73 64.9295 76.5067 64.8177C77.1246 64.78 78.0304 64.9114 79.2284 65.2091C80.2013 65.4705 80.7339 65.9919 80.8275 66.7747H80.8261ZM61.214 70.8565C61.344 70.5951 61.4433 70.0877 61.509 69.3328C61.5747 68.578 61.5328 68.0328 61.3832 67.6973C61.14 68.1446 60.8129 68.4661 60.4005 68.6618C59.9895 68.8575 59.5967 68.9456 59.2221 68.9274C58.8474 68.9093 58.4463 68.9093 58.0157 68.9274C57.5852 68.9456 57.2483 69.0211 57.0051 69.1511C57.061 70.1016 57.3881 71.4618 57.9864 73.2329C58.5847 75.004 59.155 76.4577 59.6974 77.5942C60.1083 77.1846 60.3851 76.536 60.5249 75.6512C60.6647 74.7663 60.7639 73.8479 60.8198 72.8974C60.8758 71.9468 61.0072 71.2661 61.2126 70.8565H61.214ZM72.0154 70.3253C72.0335 70.1953 71.9972 69.9339 71.9035 69.5425C71.5848 69.3566 71.0341 69.1888 70.2485 69.0393C69.4629 68.8897 68.8744 68.666 68.4816 68.3683C68.3502 69.0574 68.4438 69.9521 68.7625 71.0522C69.249 72.7296 69.4824 74.0059 69.4643 74.8824C69.4461 75.8888 69.8375 76.7932 70.6427 77.5942C70.6804 77.5006 70.7307 77.3985 70.7964 77.2867C70.8621 77.1749 70.918 77.077 70.9642 76.9931C71.0103 76.9093 71.0341 76.8296 71.0341 76.7555C71.5205 73.6802 71.8476 71.5373 72.0154 70.3253Z" fill="#FACC15"/>
<path d="M102.165 77.2589C103.455 77.9676 103.829 79.0202 103.287 80.4181C102.95 81.2945 102.829 82.3373 102.922 83.5493C103.034 85.1526 102.749 86.2472 102.067 86.8343C101.383 87.4214 100.37 87.7149 99.0222 87.7149C93.2979 87.6772 89.7921 87.6031 88.5005 87.4913C87.5094 87.3976 86.5924 87.5011 85.7508 87.7988C84.6284 88.2084 83.5618 88.0966 82.5525 87.4633C82.0283 86.8664 81.9445 86.243 82.2995 85.5902C82.6168 85.031 83.1788 84.7515 83.9825 84.7515C84.9932 84.7515 85.769 84.4621 86.3114 83.8848C86.3114 83.5311 86.3296 82.972 86.3673 82.2073C86.4051 81.4427 86.4134 80.7494 86.3953 80.1245C86.3771 79.4997 86.2918 78.9084 86.1422 78.3492C85.9745 77.7719 85.9452 77.1848 86.0584 76.5879C86.5071 74.3891 86.4316 72.4404 85.8333 70.7448C85.7578 70.5393 85.7159 70.2514 85.7075 69.8781C85.6977 69.5049 85.6935 69.291 85.6935 69.2351C85.3385 68.9933 85.0477 69.031 84.8241 69.3469C84.5808 69.6824 84.0944 69.832 83.3647 69.7943C83.0837 69.7761 82.8824 69.7341 82.7608 69.6684C82.6392 69.6027 82.354 69.3651 81.9053 68.9555C81.8298 68.676 81.7837 68.1867 81.7655 67.4878C81.746 66.7888 81.6621 66.2618 81.5125 65.9082L81.5405 65.9361C81.69 65.6943 81.9752 65.5587 82.396 65.5308C82.8167 65.5028 83.0641 65.5825 83.1396 65.7684C83.3269 65.8061 83.5646 65.6943 83.8553 65.4329C84.1447 65.1715 84.3935 65.0415 84.599 65.0415C84.6549 65.0792 84.7626 65.1435 84.9219 65.2372C85.0813 65.3309 85.2169 65.4147 85.3287 65.4888C85.9829 65.247 86.9656 65.2232 88.274 65.4189C89.5824 65.6146 90.5651 65.6104 91.2207 65.4049C91.6513 65.7586 91.9029 65.9082 91.9784 65.8523C92.3152 65.5545 92.7122 65.3532 93.1707 65.2512C93.6292 65.1491 94.0584 65.1114 94.461 65.1394C94.8636 65.1673 95.2983 65.1631 95.7652 65.1254C98.1961 64.9758 100.086 65.1156 101.432 65.5447L101.46 65.5168V65.9921C101.797 66.2898 102.114 66.6071 102.413 66.9426C103.311 67.9491 103.564 68.9178 103.171 69.8502C102.611 71.2299 102.722 72.5243 103.508 73.7362C103.302 74.7427 103.054 75.3718 102.764 75.6234C102.474 75.875 101.684 76.1308 100.394 76.3922C99.9252 76.2985 99.538 76.0707 99.2291 75.7072C98.9202 75.3438 98.6112 74.9063 98.3037 74.3932C97.9948 73.8802 97.6914 73.4846 97.3923 73.2051C97.3546 73.5405 97.2805 73.9879 97.1672 74.547C97.0554 75.1062 96.9757 75.5535 96.9282 75.889C96.8807 76.2245 96.8765 76.6256 96.9142 77.0911C96.952 77.5566 97.0736 77.9858 97.2791 78.3772C97.4664 78.7504 97.4748 79.4773 97.307 80.5578C96.6514 81.658 96.2027 82.3932 95.9609 82.7665L95.4562 82.9342C95.1934 82.9524 94.8482 82.9622 94.4176 82.9622C93.762 82.5526 93.2574 82.0116 92.9023 81.3407C92.8464 81.0052 92.8325 80.6976 92.8604 80.4181C92.8884 80.1385 92.8842 79.8128 92.8464 79.4395C92.8087 79.0663 92.7066 78.7406 92.5375 78.461C92.0692 78.0515 91.5268 77.9676 90.9104 78.2094C90.6672 78.8063 90.4421 79.3557 90.2366 79.8589C90.4239 80.3062 90.5399 80.9674 90.5875 81.8439C90.6336 82.7203 90.7035 83.3354 90.7986 83.6891C92.8003 83.5591 94.071 83.4836 94.6147 83.4654C94.7825 83.4654 95.4045 83.4696 96.4809 83.4794C97.5558 83.4892 98.1597 83.4472 98.2911 83.3536C98.628 83.1299 98.7776 82.7665 98.7398 82.2632C98.7398 82.1137 98.7301 81.9515 98.7119 81.774C98.6923 81.5965 98.6699 81.4064 98.642 81.2009C98.614 80.9954 98.5903 80.8276 98.5721 80.6976C98.4603 79.5612 98.7874 78.591 99.5534 77.7901C100.152 77.175 101.021 76.9975 102.163 77.2589H102.165ZM90.9705 71.1921V72.8696C91.3451 73.2428 91.7463 73.3448 92.1768 73.1771C92.2887 73.0275 92.4382 72.7759 92.6256 72.4222C92.8129 72.0686 93.0044 71.7611 93.2001 71.4997C93.3972 71.2383 93.6348 71.0244 93.9158 70.8566C94.3827 70.7071 94.8272 70.7127 95.248 70.8706C95.6687 71.0286 96.1314 71.29 96.6374 71.6534C97.1421 72.0169 97.5349 72.2643 97.8158 72.3943C97.9836 71.7611 97.9095 71.118 97.5908 70.4652C97.1603 69.9997 96.6277 69.7663 95.9916 69.7663C94.8314 69.804 93.7844 69.8683 92.8492 69.962C92.2314 70.0361 91.7547 70.2416 91.4178 70.5771C91.3801 70.6148 91.2305 70.8189 90.9691 71.1921H90.9705Z" fill="#FACC15"/>
<path d="M117.095 70.1575C117.002 70.1393 116.8 70.1016 116.491 70.0457C116.182 69.9897 115.953 69.9576 115.804 69.9478C115.654 69.938 115.457 69.9576 115.215 70.0037C114.972 70.0499 114.738 70.1491 114.513 70.2973C114.364 70.7446 114.28 71.2199 114.26 71.7231C114.242 72.2263 114.265 72.8316 114.33 73.5403C114.396 74.2491 114.428 74.7425 114.428 75.0221V75.6931C114.428 76.0104 114.432 76.2564 114.442 76.4339C114.452 76.6114 114.474 76.8295 114.512 77.0909C114.55 77.3523 114.606 77.5844 114.68 77.7899C114.736 77.9394 114.726 78.191 114.652 78.5447C114.502 79.1598 114.427 80.0306 114.427 81.1587C114.427 82.2868 114.417 82.9997 114.399 83.2975C114.548 83.7448 114.857 84.1641 115.324 84.5555C116.184 84.6674 116.811 84.7415 117.204 84.7792C117.972 85.3202 118.205 85.9632 117.906 86.7083C117.663 87.3429 117.073 87.677 116.138 87.7147C115.277 87.7525 114.491 87.649 113.781 87.4072C112.471 86.978 111.171 86.978 109.881 87.4072C109.376 87.5749 108.862 87.6868 108.338 87.7427C107.44 87.8545 106.766 87.7706 106.318 87.4911C105.869 87.2115 105.429 86.6244 104.999 85.7297C105.149 85.0965 105.682 84.6771 106.599 84.4717C106.673 84.4535 106.87 84.3738 107.187 84.234C107.504 84.0942 107.767 84.0341 107.973 84.0523C108.178 84.0705 108.384 84.1823 108.591 84.3878C108.816 83.6986 108.936 83.2513 108.955 83.0458C108.974 82.8404 108.928 82.5049 108.816 82.0394C108.983 81.9835 109.143 81.9178 109.292 81.8437C109.404 81.2468 109.452 80.9309 109.432 80.8931C109.264 80.334 109.161 79.7608 109.123 79.1737C109.085 78.5866 109.095 77.8416 109.151 76.9372C109.207 76.0327 109.235 75.4596 109.235 75.2178C109.253 73.764 109.169 72.1886 108.982 70.493C108.663 70.0834 108.159 69.8779 107.467 69.8779C106.476 69.8779 105.816 69.7563 105.489 69.5145C105.162 69.2726 104.811 68.666 104.436 67.6972C104.436 67.6791 104.482 67.4456 104.576 66.9983C104.67 66.551 104.744 66.2057 104.801 65.9639C106.578 64.9015 108.42 64.6219 110.328 65.1252C111.094 65.3307 111.871 65.367 112.657 65.237C112.807 65.2188 113.106 65.1531 113.554 65.0413C114.003 64.9295 114.35 64.8638 114.593 64.8456C114.743 64.8274 115.463 64.8638 116.753 64.9574C117.108 65.1629 117.594 65.4327 118.212 65.7682C118.792 66.681 119.1 67.3715 119.138 67.837C119.193 68.2466 119.128 68.666 118.942 69.0951C118.792 69.1888 118.507 69.3565 118.086 69.5983C117.666 69.8402 117.333 70.0275 117.09 70.1575H117.095Z" fill="#FACC15"/>
<path d="M144.706 77.6781C145.622 78.0318 146.165 78.3533 146.333 78.6427C146.501 78.932 146.539 79.589 146.445 80.6137C146.389 81.1728 146.361 82.0297 146.361 83.1857C146.323 85.1246 145.444 86.3911 143.723 86.9879C141.853 87.6407 140.198 87.2955 138.757 85.9535C138.158 85.3944 137.831 84.6954 137.775 83.8567C137.756 83.6331 137.742 83.3856 137.733 83.1158C137.724 82.8461 137.715 82.5469 137.705 82.2212C137.696 81.8955 137.691 81.6481 137.691 81.4803V80.9631C137.691 80.7115 137.687 80.5256 137.677 80.404C137.668 80.2824 137.654 80.1146 137.636 79.9008C137.617 79.6869 137.588 79.5052 137.552 79.3556C137.514 79.206 137.462 79.0341 137.398 78.8384C137.332 78.6427 137.252 78.4609 137.159 78.2932C136.804 78.0136 136.419 77.8738 136.008 77.8738C135.597 77.8738 135.161 77.9298 134.704 78.0416C134.246 78.1534 133.877 78.1912 133.596 78.1534H132.403C132.244 78.1534 131.857 78.2191 131.239 78.3491C130.621 78.4791 130.238 78.5546 130.088 78.5728C129.752 79.4674 129.602 80.1244 129.64 80.5438C129.677 80.9631 129.949 82.0213 130.453 83.7169C130.678 83.8847 130.888 83.8427 131.085 83.5911C131.281 83.3395 131.444 83.2137 131.576 83.2137C131.707 83.2137 132.184 83.1955 133.007 83.1578C133.137 83.2696 133.438 83.6051 133.905 84.1642C134.371 84.7234 134.774 85.0868 135.111 85.2546C135.279 85.7956 135.213 86.289 134.914 86.7363C134.503 86.419 134.288 86.2513 134.268 86.2331C134.1 86.3072 133.983 86.4987 133.917 86.8062C133.851 87.1138 133.772 87.3053 133.678 87.3793C133.566 87.5289 133.383 87.5932 133.132 87.575C132.879 87.5569 132.687 87.575 132.557 87.631C131.827 88.0965 130.882 88.144 129.724 87.7707C128.563 87.3975 127.124 87.4353 125.403 87.8826C123.776 88.2922 122.39 87.7889 121.25 86.3729C121.138 85.8137 121.184 85.1609 121.389 84.4159C122.773 83.7631 124.036 83.3633 125.178 83.2137C125.29 83.1019 125.369 82.9858 125.417 82.8642C125.463 82.7426 125.491 82.6504 125.501 82.5847C125.51 82.5204 125.51 82.4127 125.501 82.2631C125.491 82.1136 125.487 82.0213 125.487 81.9836C125.524 81.0889 125.482 79.8169 125.361 78.1674C125.239 76.5179 125.169 75.4975 125.15 75.1061C125.094 74.4169 125.07 73.6145 125.08 72.7017C125.09 71.7889 125.178 71.0145 125.347 70.3813C125.291 70.2694 125.225 70.1758 125.151 70.1017C125.076 70.0276 125.016 69.9717 124.969 69.934C124.922 69.8962 124.848 69.8696 124.744 69.8501C124.641 69.8319 124.567 69.8221 124.519 69.8221H124.057C123.702 69.8221 123.369 69.8263 123.061 69.8361C122.752 69.8459 122.425 69.7942 122.08 69.6823C121.733 69.5705 121.41 69.393 121.113 69.1511C121.037 69.0016 120.893 68.7458 120.678 68.3823C120.463 68.0189 120.289 67.7253 120.159 67.5017C120.327 66.4952 120.449 65.806 120.524 65.4328C121.178 64.5941 122.133 64.2404 123.386 64.3704C124.096 64.4445 124.62 64.4543 124.957 64.3984C126.079 64.2306 126.911 64.3607 127.453 64.7898C127.846 64.7339 128.365 64.6738 129.011 64.6081C129.656 64.5424 130.231 64.4781 130.736 64.4124C131.24 64.3481 131.709 64.2684 132.139 64.1747C133.505 63.8952 135.188 63.9511 137.19 64.3425C137.377 64.3802 137.642 64.4725 137.989 64.6221C138.334 64.7716 138.564 64.8639 138.677 64.9016C138.882 64.9771 139.186 65.149 139.588 65.4188C139.991 65.6886 140.322 65.862 140.585 65.936C140.996 66.0479 141.343 66.3372 141.624 66.8027C142.222 67.7714 142.82 68.8618 143.42 70.0737C143.476 70.1856 143.486 70.5113 143.448 71.0522C143.448 71.1822 143.42 71.3779 143.364 71.6394C143.308 71.9008 143.27 72.0965 143.252 72.2265C143.234 72.376 143.248 72.5857 143.294 72.8555C143.34 73.1253 143.364 73.2986 143.364 73.3727C142.803 74.6028 142.082 75.6554 141.204 76.5319C141.316 76.9233 141.471 77.4866 141.667 78.2233C141.864 78.96 142.018 79.5135 142.13 79.8868C142.335 79.7372 142.499 79.4912 142.62 79.1459C142.742 78.8006 142.831 78.5909 142.887 78.5169C143.262 78.0318 143.701 77.7159 144.205 77.5663C144.486 77.6222 144.654 77.66 144.71 77.6781H144.706ZM139.263 72.0308C139.58 70.8384 139.253 69.8501 138.281 69.0673C137.009 68.0231 135.494 67.7812 133.735 68.3404C133.399 68.6381 132.856 68.8296 132.108 68.9135C131.36 68.9974 130.854 69.105 130.593 69.235C130.35 69.6823 130.34 70.3631 130.565 71.2759C130.79 72.1887 130.846 72.8415 130.733 73.2329C131.014 73.6984 131.293 74.0059 131.574 74.1555C132.565 74.2296 133.271 74.2673 133.692 74.2673C134.113 74.2673 134.548 74.2576 134.996 74.2394C135.445 74.2212 135.876 74.0996 136.287 73.8759C136.698 73.6523 137.086 73.4328 137.451 73.2189C137.816 73.0051 138.418 72.6081 139.261 72.0308H139.263ZM142.124 82.8503C142.292 82.4966 142.381 82.2631 142.391 82.1513C142.401 82.0395 142.311 81.9179 142.124 81.7879V82.8503Z" fill="#FACC15"/>
<path d="M170.943 73.177C171.784 76.0286 171.606 78.9264 170.41 81.8717C170.372 82.0017 170.292 82.189 170.171 82.4309C170.049 82.6727 169.97 82.8502 169.932 82.962C169.856 83.1675 169.792 83.4275 169.736 83.7448C169.605 83.8748 169.287 84.146 168.783 84.5556C168.278 84.9652 167.904 85.3286 167.66 85.6459C167.417 85.9633 167.249 86.3351 167.156 86.7642C167.006 86.7642 166.795 86.7684 166.524 86.7782C166.253 86.788 166.051 86.802 165.92 86.8202C165.378 87.9944 164.694 88.3956 163.872 88.0223C163.647 88.0601 163.461 88.1999 163.312 88.4417C163.162 88.6835 163.003 88.7953 162.835 88.7772C162.648 88.7213 162.498 88.5353 162.386 88.218C162.087 88.348 161.788 88.4137 161.489 88.4137C160.703 88.6933 159.421 88.6975 157.645 88.4277C155.868 88.1579 154.558 88.088 153.717 88.218C153.529 88.2558 153.226 88.2781 152.805 88.2879C152.384 88.2977 152.034 88.3396 151.753 88.4137C151.472 88.4878 151.228 88.6374 151.023 88.861C149.938 88.5074 148.955 88.1803 148.076 87.8825C147.739 87.603 147.552 87.2996 147.516 86.9739C147.478 86.6482 147.516 86.2932 147.627 85.9115C147.739 85.5299 147.787 85.2448 147.767 85.0588C147.935 84.7974 148.113 84.5794 148.3 84.4018C148.487 84.2243 148.716 84.0845 148.988 83.9825C149.259 83.8804 149.474 83.805 149.633 83.7588C149.793 83.7127 150.044 83.661 150.391 83.6051C150.736 83.5491 150.957 83.5114 151.051 83.4932C151.537 83.1577 151.725 82.7943 151.611 82.4029C151.462 81.9178 151.378 81.3587 151.358 80.7255C151.34 80.0922 151.358 79.5233 151.414 79.0201C151.47 78.5168 151.47 77.9479 151.414 77.3147C151.321 76.3459 151.395 74.5846 151.639 72.0307C151.658 71.8811 151.667 71.4338 151.667 70.6888C151.5 70.3533 151.107 70.1296 150.489 70.0178C149.44 69.85 148.74 69.6823 148.385 69.5145C147.88 69.105 147.544 68.564 147.374 67.893C147.468 67.6694 147.618 67.3101 147.823 66.8167C148.029 66.3232 148.188 65.9458 148.3 65.6844C149.983 65.2371 151.349 65.1071 152.396 65.293C153.311 65.4048 154.013 65.4565 154.499 65.4467C154.986 65.437 155.688 65.3908 156.603 65.307C157.519 65.2231 158.221 65.1812 158.707 65.1812C158.968 65.1812 160.222 65.2273 162.467 65.3209C162.934 65.3209 163.309 65.4328 163.59 65.6564C163.927 65.936 164.445 66.2435 165.147 66.579C165.849 66.9145 166.311 67.148 166.536 67.278C168.706 68.5822 170.174 70.549 170.941 73.177H170.943ZM165.162 83.5771C167.238 81.7697 168.173 79.4772 167.968 76.6996C167.95 76.4578 167.94 76.1362 167.94 75.7351V74.7985C167.828 74.6685 167.613 74.3274 167.294 73.778C166.975 73.2287 166.668 72.8513 166.369 72.6458C166.106 72.4599 165.958 72.2446 165.92 72.0028C165.902 71.835 165.844 71.6812 165.752 71.5415C165.659 71.4017 165.575 71.2996 165.499 71.2339C165.424 71.1682 165.302 71.0704 165.134 70.9404C164.967 70.8104 164.853 70.7265 164.797 70.6888C163.208 69.4209 161.075 69.105 158.401 69.7382C157.577 69.9241 157.167 70.2876 157.167 70.8285V74.2393C157.167 74.5371 157.157 75.0599 157.139 75.805C157.12 76.55 157.097 77.1427 157.069 77.5802C157.041 78.0178 156.999 78.5406 156.943 79.1459C156.887 79.7511 156.821 80.3243 156.747 80.8652C156.579 82.0576 156.672 83.0277 157.028 83.7728C158.075 83.9965 158.861 84.146 159.385 84.2201C159.61 84.2579 159.918 84.2802 160.31 84.29C160.703 84.2998 161.062 84.3278 161.391 84.3739C161.718 84.42 162.023 84.5095 162.302 84.6395C162.508 84.7331 162.891 84.6954 163.453 84.5277C164.107 84.3222 164.677 84.0062 165.164 83.5771H165.162Z" fill="#FACC15"/>
<path d="M69.2672 97.0526C69.249 97.2021 69.2196 97.6536 69.1833 98.4085C69.1456 99.1633 69.0799 99.7463 68.9876 100.156C68.8758 100.547 68.8562 100.873 68.9317 101.134C69.119 101.749 69.1092 102.299 68.9037 102.784C68.6982 103.269 68.3432 103.781 67.8372 104.321C66.5651 105.142 65.3965 105.03 64.3299 103.986C64.1244 103.539 63.9189 102.836 63.712 101.875C63.5066 100.915 63.3374 100.24 63.2074 99.8483C63.0201 99.6806 62.6231 99.3311 62.015 98.7999C61.407 98.2687 60.9345 97.8452 60.5976 97.5278C59.2515 97.1183 58.101 97.0987 57.1463 97.4719C55.4255 98.758 54.1716 100.212 53.386 101.833L53.414 101.861C53.3944 102.718 53.133 103.744 52.6284 104.937C52.6661 105.048 52.7304 105.216 52.8241 105.44C52.9177 105.663 52.9876 105.845 53.0351 105.985C53.0813 106.125 53.1288 106.288 53.1749 106.474C53.221 106.66 53.2406 106.842 53.2308 107.019C53.221 107.197 53.1791 107.369 53.105 107.537C53.1609 107.63 53.2588 107.76 53.4 107.928C53.5398 108.096 53.6474 108.24 53.7229 108.361C53.797 108.483 53.8529 108.609 53.8906 108.739C54.0779 109.41 54.4134 109.965 54.9013 110.402C55.3877 110.84 55.8504 111.143 56.2908 111.311C56.7297 111.479 57.3434 111.656 58.129 111.842C58.259 111.88 58.9803 111.944 60.2887 112.038C61.5971 112.131 62.823 111.59 63.9637 110.416C64.4683 109.875 64.6934 109.214 64.6374 108.431C64.5815 107.667 64.8709 107.024 65.5069 106.502C65.6942 106.408 65.8061 106.362 65.8438 106.362C66.9467 106.288 67.6862 106.422 68.0608 106.768C68.434 107.113 68.6032 107.816 68.5654 108.879C68.5095 110.668 67.9015 112.21 66.7412 113.505C65.581 114.801 64.0755 115.616 62.2247 115.952C59.5492 116.437 57.1463 116.241 55.0145 115.365C53.6306 114.768 52.5081 113.967 51.647 112.96C50.9733 112.177 50.4407 111.618 50.0479 111.283C49.9724 111.003 49.8662 110.546 49.725 109.913C49.5852 109.28 49.472 108.79 49.3881 108.445C49.3042 108.101 49.1728 107.7 48.9953 107.243C48.8178 106.786 48.6263 106.39 48.4208 106.055C48.3649 105.682 48.4306 105.346 48.6165 105.048C48.6542 104.992 48.7465 104.779 48.8974 104.405C48.0182 103.193 48.028 102.169 48.9254 101.33C48.9995 101.106 48.9394 100.775 48.7437 100.338C48.548 99.9 48.5801 99.6149 48.8415 99.4849C48.8974 99.373 49.0288 99.3688 49.2343 99.4709C49.4398 99.5729 49.5614 99.6246 49.5992 99.6246C49.711 99.2332 49.8801 98.7202 50.1038 98.087C50.3289 97.4538 50.4589 97.0623 50.4966 96.9128C50.6643 96.7269 50.8852 96.499 51.1564 96.2278C51.4276 95.958 51.647 95.7246 51.8162 95.5289C51.9839 95.3332 52.1335 95.1333 52.2649 94.9278C52.3767 94.7419 52.6437 94.5965 53.0645 94.4945C53.4852 94.3924 53.7327 94.2107 53.8082 93.9493C55.2675 92.7192 56.9785 92.1782 58.9425 92.3278C59.0166 92.3278 59.2039 92.3417 59.5031 92.3697C59.8022 92.3977 60.0035 92.4158 60.1069 92.4256C60.209 92.4354 60.3963 92.4536 60.6675 92.4815C60.9387 92.5095 61.14 92.5374 61.2714 92.5654C61.4014 92.5934 61.5845 92.6255 61.8179 92.6633C62.0514 92.701 62.2485 92.7471 62.4064 92.803C62.5658 92.859 62.7433 92.9247 62.939 92.9987C63.1361 93.0742 63.322 93.1567 63.4996 93.2504C63.6771 93.344 63.8504 93.4461 64.0182 93.5579C64.2055 93.5956 64.3928 93.5118 64.5787 93.3063C64.766 93.1008 64.896 92.9806 64.9715 92.9428C65.739 92.831 66.2478 92.7988 66.5008 92.845C66.7538 92.8911 67.3465 93.0826 68.2831 93.4181C69.1064 94.4987 69.4335 95.7106 69.2644 97.0526H69.2672Z" fill="#FACC15"/>
<path d="M89.3783 96.2419C91.3801 98.7399 92.2216 101.973 91.9029 105.943C91.7715 107.359 91.5003 108.581 91.0893 109.606C91.0516 109.68 90.9118 110.174 90.6685 111.087C90.5931 111.161 90.4295 111.315 90.1779 111.549C89.9249 111.782 89.7376 111.964 89.6173 112.094C89.4957 112.224 89.3643 112.415 89.2245 112.667C89.0848 112.919 89.0051 113.184 88.9855 113.464C88.8737 113.482 88.7227 113.51 88.5368 113.548C88.3495 113.585 88.1999 113.623 88.0881 113.659C88.0126 113.715 87.9106 113.911 87.7792 114.246C87.6478 114.582 87.4604 114.768 87.2186 114.806C86.1143 114.992 85.3203 115.225 84.8338 115.505C82.8698 116.549 80.4571 116.529 77.5957 115.449C76.8842 115.187 76.1978 114.792 75.5338 114.26C74.8698 113.729 74.3554 113.254 73.9906 112.835C73.6257 112.415 73.1351 111.814 72.5172 111.031C72.0308 110.398 71.7414 109.671 71.6478 108.851C71.6282 108.553 71.5261 108.106 71.3388 107.509C70.4777 105.067 70.5057 102.421 71.4227 99.5689C71.61 98.9356 71.8994 98.1333 72.2922 97.1645C72.4795 96.7172 73.0023 96.0462 73.8634 95.1516C73.9934 95.002 74.1947 94.7882 74.4673 94.5086C74.7384 94.229 74.9481 94.0151 75.0991 93.8656C75.1732 93.6419 76.3152 93.2603 78.5225 92.7193C78.9712 92.6075 79.4576 92.5194 79.9818 92.4537C80.5046 92.388 81.0764 92.3237 81.6928 92.258C82.3107 92.1923 82.7776 92.142 83.0963 92.1042C83.3018 92.1783 83.6764 92.2999 84.2188 92.4677C84.7612 92.6354 85.1637 92.7654 85.4251 92.8591C85.6865 92.9528 86.0234 93.0869 86.4358 93.2645C86.8468 93.442 87.2116 93.6377 87.5303 93.8516C87.8476 94.0655 88.1482 94.3129 88.4278 94.5925L88.7926 95.2634C89.0358 95.7107 89.2315 96.0365 89.3811 96.2419H89.3783ZM87.7512 108.823C89.6215 104.555 89.0316 100.901 85.9829 97.8635C85.5342 97.8635 85.1218 97.7419 84.7486 97.5C84.599 97.4818 84.2663 97.4399 83.7519 97.3742C83.2375 97.3085 82.8489 97.2484 82.5875 97.1925C81.6146 97.0066 80.7535 96.9884 80.0056 97.1366C78.1157 97.528 77.0505 98.3849 76.8073 99.7087C76.7877 99.8582 76.7234 100.208 76.6102 100.757C76.4984 101.306 76.4327 101.656 76.4145 101.805C76.3963 101.955 76.3586 102.313 76.3027 102.882C76.2467 103.451 76.2551 103.818 76.3306 103.986C76.4606 105.272 76.7514 106.8 77.2001 108.571C77.9857 109.671 78.3883 110.23 78.4064 110.249C79.4171 111.516 80.773 111.898 82.4742 111.395C84.1014 110.91 85.8599 110.053 87.7484 108.823H87.7512Z" fill="#FACC15"/>
<path d="M112.155 96.2419C114.157 98.7399 114.998 101.973 114.68 105.943C114.548 107.359 114.277 108.581 113.866 109.606C113.828 109.68 113.689 110.174 113.445 111.087C113.37 111.161 113.206 111.315 112.955 111.549C112.702 111.782 112.514 111.964 112.394 112.094C112.273 112.224 112.141 112.415 112.001 112.667C111.862 112.919 111.782 113.184 111.762 113.464C111.651 113.482 111.5 113.51 111.314 113.548C111.126 113.585 110.977 113.623 110.865 113.659C110.789 113.715 110.687 113.911 110.556 114.246C110.425 114.582 110.237 114.768 109.995 114.806C108.891 114.992 108.097 115.225 107.611 115.505C105.647 116.549 103.234 116.529 100.373 115.449C99.661 115.187 98.9747 114.792 98.3107 114.26C97.6467 113.729 97.1323 113.254 96.7674 112.835C96.4026 112.415 95.9119 111.814 95.2941 111.031C94.8076 110.398 94.5183 109.671 94.4246 108.851C94.405 108.553 94.303 108.106 94.1157 107.509C93.2546 105.067 93.2826 102.421 94.1996 99.5689C94.3869 98.9356 94.6762 98.1333 95.069 97.1645C95.2563 96.7172 95.7791 96.0462 96.6402 95.1516C96.7702 95.002 96.9715 94.7882 97.2441 94.5086C97.5153 94.229 97.725 94.0151 97.8759 93.8656C97.95 93.6419 99.0921 93.2603 101.299 92.7193C101.748 92.6075 102.235 92.5194 102.759 92.4537C103.282 92.388 103.853 92.3237 104.47 92.258C105.088 92.1923 105.554 92.142 105.873 92.1042C106.079 92.1783 106.453 92.2999 106.996 92.4677C107.538 92.6354 107.941 92.7654 108.202 92.8591C108.463 92.9528 108.8 93.0869 109.213 93.2645C109.624 93.442 109.988 93.6377 110.307 93.8516C110.625 94.0655 110.925 94.3129 111.205 94.5925L111.569 95.2634C111.813 95.7107 112.008 96.0365 112.158 96.2419H112.155ZM110.528 108.823C112.398 104.555 111.808 100.901 108.76 97.8635C108.311 97.8635 107.899 97.7419 107.525 97.5C107.376 97.4818 107.043 97.4399 106.529 97.3742C106.014 97.3085 105.626 97.2484 105.364 97.1925C104.391 97.0066 103.53 96.9884 102.782 97.1366C100.893 97.528 99.8274 98.3849 99.5841 99.7087C99.5646 99.8582 99.5003 100.208 99.387 100.757C99.2752 101.306 99.2095 101.656 99.1913 101.805C99.1732 101.955 99.1354 102.313 99.0795 102.882C99.0236 103.451 99.032 103.818 99.1075 103.986C99.2375 105.272 99.5282 106.8 99.9769 108.571C100.763 109.671 101.165 110.23 101.183 110.249C102.194 111.516 103.55 111.898 105.251 111.395C106.878 110.91 108.637 110.053 110.525 108.823H110.528Z" fill="#FACC15"/>
<path d="M136.682 105.831C136.85 106.017 136.972 106.209 137.047 106.404C137.121 106.6 137.135 106.82 137.089 107.061C137.041 107.303 136.995 107.491 136.949 107.621C136.902 107.751 136.804 107.97 136.654 108.278C136.505 108.585 136.411 108.767 136.373 108.823C136.317 109.12 136.373 109.811 136.541 110.892C136.691 111.806 136.663 112.653 136.457 113.436C136.046 114.889 134.988 115.616 133.287 115.616C128.611 115.616 125.496 115.588 123.943 115.532C122.147 115.477 120.576 115.588 119.23 115.868C117.976 116.148 116.947 116.129 116.143 115.812C115.675 115.159 115.573 114.442 115.834 113.659C116.078 113.25 116.47 112.849 117.013 112.457C117.256 112.271 117.645 112.224 118.177 112.317C118.71 112.411 119.061 112.439 119.23 112.401C119.286 112.215 119.304 111.832 119.286 111.255C119.268 110.678 119.36 110.332 119.567 110.221C119.548 110.127 119.421 109.913 119.188 109.578C118.954 109.242 118.911 108.944 119.062 108.683C119.136 108.665 119.259 108.651 119.427 108.641C119.595 108.631 119.716 108.627 119.792 108.627C119.81 108.477 119.774 108.301 119.68 108.096C119.586 107.892 119.493 107.732 119.399 107.621L119.259 107.425C119.576 107.295 119.67 107.08 119.54 106.782C119.409 106.484 119.344 105.841 119.344 104.853C119.344 104.647 119.377 104.094 119.442 103.189C119.508 102.285 119.502 101.731 119.428 101.526C119.41 101.358 119.4 100.296 119.4 98.3387C119.325 98.245 119.203 98.1108 119.035 97.9333C118.868 97.7558 118.745 97.63 118.671 97.5559C118.408 97.5 118.091 97.5321 117.717 97.6537C117.343 97.7754 117.109 97.8452 117.016 97.8634C116.212 97.9193 115.669 97.6216 115.388 96.9688C114.94 95.8882 114.836 94.9936 115.079 94.2849C115.267 93.9116 115.632 93.66 116.174 93.53C117.895 93.0645 119.185 92.915 120.046 93.0827C120.644 93.1945 121.496 93.1708 122.6 93.0128C123.703 92.8549 124.498 92.7934 124.985 92.8311C125.489 92.8688 126.209 92.9052 127.144 92.9429C127.575 92.9611 128.004 93.1107 128.435 93.3902C129.388 94.0053 129.687 94.8538 129.332 95.9344C129.294 96.0839 129.215 96.2936 129.093 96.5634C128.972 96.8332 128.902 96.9967 128.882 97.0527C128.246 97.5 127.722 97.8634 127.311 98.143H125.235C124.73 98.4407 124.496 98.8042 124.533 99.2333C124.589 99.6806 124.565 100.557 124.463 101.861C124.36 103.166 124.412 104.052 124.617 104.517C124.691 104.741 124.729 105.002 124.729 105.3C124.729 105.598 124.719 105.831 124.701 105.999C124.683 106.167 124.635 106.46 124.561 106.88C124.486 107.299 124.44 107.546 124.421 107.621C124.328 108.254 124.338 109.456 124.449 111.227C124.505 111.245 124.641 111.307 124.856 111.409C125.071 111.511 125.215 111.577 125.291 111.604C125.365 111.632 125.496 111.674 125.684 111.73C125.871 111.786 126.025 111.818 126.146 111.828C126.268 111.838 126.413 111.838 126.581 111.828C126.749 111.818 126.908 111.786 127.058 111.73C127.283 111.637 127.544 111.628 127.843 111.702C128.928 111.926 130.302 111.832 131.967 111.423C132.041 111.311 132.103 111.185 132.149 111.045C132.195 110.906 132.223 110.79 132.233 110.696C132.243 110.602 132.247 110.468 132.247 110.29V109.913C132.284 108.777 132.359 107.798 132.472 106.978C132.621 106.045 133.174 105.45 134.127 105.188C135.138 104.927 135.987 105.142 136.681 105.831H136.682Z" fill="#FACC15"/>
<path d="M65.7879 130.462C65.4692 130.703 64.9925 131.049 64.3565 131.496C64.3383 131.514 64.0755 131.324 63.5709 130.923C63.0662 130.522 62.5602 130.094 62.0556 129.637C61.5509 129.18 61.3077 128.896 61.3259 128.784C61.344 128.691 61.3916 128.542 61.4657 128.337C61.5397 128.131 61.5817 127.973 61.5915 127.862C61.6013 127.75 61.5873 127.544 61.5495 127.247C61.4 127.079 61.1092 126.753 60.6801 126.268C60.2495 125.784 59.9126 125.411 59.6694 125.15C58.7524 124.964 58.1443 124.824 57.8452 124.73C56.5549 124.377 55.3388 124.693 54.1981 125.681C53.7676 126.054 53.5425 126.478 53.5244 126.953C53.5062 127.428 53.7019 127.852 54.1129 128.225C54.7112 128.766 55.4129 129.102 56.2167 129.232C56.6095 129.306 58.087 129.605 60.6493 130.126C60.7052 130.126 61.3175 130.416 62.4875 130.993C63.6561 131.57 64.2698 131.86 64.3257 131.86C64.3439 132.101 64.5214 132.447 64.8583 132.894C65.6243 133.919 66.0884 135.015 66.2478 136.179C66.4071 137.343 66.2995 138.42 65.9249 139.408C65.5502 140.396 64.9198 141.277 64.0307 142.05C63.1417 142.823 62.0709 143.36 60.8184 143.658C58.7426 144.143 56.3383 143.947 53.6082 143.07C53.4587 143.033 53.01 142.857 52.2621 142.539C52.1503 142.613 51.9909 142.725 51.7854 142.875C51.5799 143.024 51.4164 143.14 51.2948 143.224C51.1732 143.308 50.9998 143.402 50.7762 143.504C50.5511 143.606 50.3596 143.644 50.2016 143.616C50.0423 143.588 49.8228 143.546 49.5418 143.49C48.6444 142.949 48.3453 142.036 48.6444 140.75C48.8122 140.097 48.8219 139.194 48.6724 138.038C48.4851 136.64 48.4571 135.644 48.5885 135.047C48.7758 134.246 49.2147 133.527 49.9067 132.894C50.0003 132.838 50.4211 132.736 51.169 132.586C51.0194 132.4 50.6406 131.999 50.0325 131.384C49.4244 130.769 48.9701 130.22 48.6724 129.735C48.4096 129.157 48.1859 127.89 47.9986 125.933C48.8583 123.901 50.0646 122.308 51.6177 121.152C52.7206 120.313 53.9186 119.866 55.2088 119.81C57.9025 119.68 59.9685 119.912 61.4097 120.509C61.7089 120.491 62.1534 120.429 62.7419 120.327C63.3304 120.225 63.8267 120.178 64.2292 120.187C64.6318 120.197 65.0009 120.295 65.3378 120.481C66.4407 121.711 66.6839 123.305 66.0674 125.262C66.2925 125.635 66.4225 126.04 66.4602 126.478C66.498 126.915 66.498 127.414 66.4602 127.973C66.4225 128.533 66.4127 128.962 66.4323 129.259C66.4505 129.707 66.2366 130.108 65.7865 130.462H65.7879ZM53.5551 133.425C53.2742 133.295 52.8716 133.08 52.3488 132.782C52.086 132.633 51.7225 132.577 51.2542 132.614C51.3842 132.744 51.5995 132.978 51.9 133.313C51.9 133.369 51.8959 133.495 51.8861 133.691C51.8763 133.886 51.8763 134.03 51.8861 134.124C51.8959 134.218 51.914 134.334 51.942 134.474C51.9699 134.613 52.0217 134.735 52.0957 134.837C52.1698 134.939 52.2733 135.037 52.4047 135.131C52.4983 135.205 52.564 135.288 52.6018 135.382C52.6395 135.476 52.6675 135.588 52.6856 135.718C52.7038 135.848 52.7234 135.951 52.7416 136.025C52.8534 136.231 52.8674 136.547 52.7835 136.976C52.6996 137.405 52.6661 137.675 52.6856 137.786C52.7793 138.01 52.989 138.15 53.3175 138.206C53.6446 138.262 53.8263 138.383 53.8641 138.569C53.8641 138.645 53.8221 138.765 53.7382 138.933C53.6544 139.1 53.6586 139.23 53.7522 139.324C54.0695 139.324 54.6399 139.548 55.4632 139.995C56.267 139.771 56.8667 139.743 57.2595 139.911C57.3895 139.967 57.5265 140.009 57.6663 140.037C57.806 140.065 57.9332 140.089 58.0451 140.107C58.1569 140.125 58.2981 140.131 58.4658 140.121C58.6336 140.111 58.7552 140.107 58.8307 140.107C58.9062 140.107 59.0418 140.083 59.2375 140.037C59.4346 139.991 59.5548 139.963 59.6023 139.953C59.6484 139.943 59.784 139.911 60.0091 139.855C60.2341 139.799 60.3544 139.771 60.3739 139.771C60.3921 139.883 60.5235 139.846 60.7667 139.66C60.8604 139.566 60.8883 139.51 60.8506 139.492C61.4111 139.342 61.8137 139.096 62.057 138.751C62.3002 138.406 62.4162 138.02 62.4078 137.591C62.398 137.162 62.3938 136.678 62.3938 136.137C62.1688 135.951 61.8193 135.638 61.3413 135.2C60.8646 134.763 60.5039 134.441 60.2607 134.236C59.3633 134.33 58.7454 134.366 58.4085 134.348C58.0716 134.33 57.5572 134.17 56.8653 133.872C56.5102 133.723 55.9483 133.653 55.1822 133.663C54.4148 133.673 53.8724 133.593 53.5551 133.425Z" fill="#FACC15"/>
<path d="M88.8904 121.068C90.2184 121.907 90.7049 122.969 90.3498 124.255C90.1625 124.908 90.0688 125.853 90.0688 127.093C90.0688 128.333 90.0213 129.222 89.9291 129.763C89.8536 130.098 89.69 130.374 89.4384 130.587C89.1854 130.801 88.8821 130.927 88.527 130.965C87.7037 131.059 87.1431 130.695 86.844 129.875C86.6567 129.353 86.6189 128.57 86.7321 127.526C86.844 126.669 86.7419 125.775 86.4232 124.842C86.1241 124.6 85.8151 124.419 85.4978 124.297C85.1791 124.175 84.8282 124.129 84.4452 124.157C84.0622 124.185 83.7617 124.223 83.5478 124.269C83.3325 124.315 82.9775 124.419 82.4812 124.577C81.985 124.735 81.6635 124.832 81.5139 124.87C81.2888 125.523 81.2329 126.454 81.3462 127.666C81.4398 128.654 81.4678 129.641 81.43 130.629C81.43 130.759 81.4258 131.003 81.416 131.356C81.4063 131.71 81.3979 131.976 81.3881 132.153C81.3783 132.331 81.3783 132.563 81.3881 132.852C81.3979 133.141 81.4202 133.407 81.458 133.649C81.4957 133.891 81.5419 134.134 81.5978 134.376C81.6537 134.599 81.6355 135.186 81.5419 136.137C81.5237 136.342 81.4901 136.636 81.444 137.018C81.3965 137.399 81.3643 137.675 81.3462 137.842C81.6076 138.402 82.1038 139.1 82.8335 139.939C83.5254 139.622 83.9881 139.454 84.223 139.436C84.4564 139.418 84.9568 139.51 85.7243 139.716C85.7424 139.939 85.8081 140.159 85.92 140.373C86.0318 140.586 86.1394 140.76 86.2429 140.89C86.3449 141.02 86.4959 141.197 86.6916 141.421C86.8887 141.645 87.0229 141.803 87.0984 141.896C87.0788 142.306 86.9013 142.689 86.5658 143.042C86.4903 142.968 86.3701 142.917 86.2009 142.889C86.0332 142.861 85.92 142.819 85.8641 142.763C85.7145 142.801 85.6013 142.903 85.5272 143.07C85.4517 143.238 85.3399 143.36 85.1903 143.434C85.003 143.434 84.8534 143.462 84.7416 143.518C84.2929 143.741 83.8064 143.857 83.2822 143.867C82.758 143.877 82.3708 143.857 82.1178 143.811C81.8648 143.765 81.3839 143.616 80.6724 143.364C79.9609 143.112 79.5499 142.968 79.4381 142.931C78.2974 143.508 77.4461 143.821 76.8856 143.867C76.325 143.913 75.2584 143.769 73.6872 143.434C73.6313 143.378 73.4957 143.238 73.2805 143.014C73.0652 142.791 72.8918 142.595 72.7618 142.427C72.8737 142.186 72.9436 141.761 72.9729 141.155C73.0009 140.55 73.1183 140.097 73.3238 139.799C73.6984 139.258 74.203 139.017 74.8391 139.072C74.9327 139.091 75.1005 139.133 75.3437 139.198C75.5869 139.264 75.7687 139.296 75.8903 139.296C76.0119 139.296 76.2314 139.258 76.5501 139.184C77.1106 138.625 77.3175 137.824 77.1679 136.78C76.9247 135.009 76.8129 133.835 76.831 133.257C76.831 133.09 76.8213 132.414 76.8031 131.23C76.7835 130.048 76.831 129.371 76.9429 129.204C77.3357 127.153 77.1302 125.775 76.325 125.066C75.9504 124.898 75.4318 124.818 74.7678 124.828C74.1038 124.838 73.5656 124.944 73.1546 125.15C73.061 125.373 73.0051 125.653 72.9869 125.988C72.9673 126.324 72.9729 126.693 73.0009 127.093C73.0288 127.494 73.033 127.778 73.0149 127.945C72.9953 128.225 73.0009 128.616 73.0288 129.12C73.0568 129.623 73.0708 129.949 73.0708 130.098C72.903 130.49 72.766 130.787 72.664 130.993C72.5605 131.198 72.425 131.408 72.2572 131.622C72.0895 131.836 71.9063 131.971 71.7106 132.027C71.5149 132.083 71.2661 132.107 70.967 132.097C70.6678 132.087 70.3114 132.009 69.9004 131.859C69.7886 131.785 69.5635 131.612 69.2266 131.342C68.8897 131.072 68.6186 130.853 68.4131 130.685C68.3012 129.94 68.2453 129.152 68.2453 128.323C68.2453 127.494 68.2691 126.548 68.3152 125.485C68.3614 124.423 68.3851 123.612 68.3851 123.053C68.9457 122.214 69.7886 121.338 70.9097 120.425C71.097 120.407 71.5737 120.407 72.3411 120.425C73.1085 120.443 73.5656 120.369 73.7152 120.201C73.827 120.145 74.0241 120.136 74.3037 120.173C76.6787 120.602 79.1012 120.593 81.5698 120.145C81.9067 120.089 82.4393 120.099 83.169 120.173C83.9923 120.267 84.6465 120.267 85.133 120.173C86.3491 119.931 87.6016 120.229 88.8932 121.068H88.8904Z" fill="#FACC15"/>
<path d="M116.022 122.298C116.096 122.578 116.092 122.829 116.008 123.053C115.924 123.277 115.703 123.602 115.348 124.032C115.105 124.162 114.688 124.213 114.1 124.185C113.51 124.157 113.085 124.237 112.823 124.423C112.692 124.553 112.59 124.712 112.514 124.898C112.439 125.084 112.403 125.238 112.403 125.36C112.403 125.481 112.407 125.677 112.417 125.947C112.426 126.216 112.431 126.39 112.431 126.464C112.431 128.459 112.449 131.43 112.486 135.382C112.505 136.798 112.233 138.28 111.673 139.827C111.43 140.536 111.084 141.086 110.634 141.477C108.614 143.304 106.613 144.123 104.63 143.937C104.519 143.919 104.294 143.891 103.957 143.853C103.62 143.816 103.367 143.793 103.199 143.783C103.031 143.774 102.81 143.765 102.539 143.755C102.268 143.746 102.015 143.76 101.782 143.797C101.548 143.835 101.319 143.881 101.094 143.937C101.056 143.937 100.785 143.919 100.28 143.881C100.168 143.807 100.031 143.667 99.8735 143.462C99.7141 143.258 99.5785 143.098 99.4667 142.987C99.3549 142.875 99.176 142.791 98.9341 142.735C98.6909 142.679 98.4379 142.763 98.1765 142.987C98.0087 142.857 97.7655 142.669 97.4468 142.427C97.1281 142.186 96.9422 142.036 96.8863 141.98C96.8108 141.868 96.6947 141.561 96.5354 141.058C96.376 140.554 96.1384 140.237 95.8197 140.107L95.8476 140.135H95.371V140.107C95.2955 140.033 95.2354 139.949 95.1892 139.855C95.1417 139.762 95.1138 139.683 95.1054 139.618C95.0956 139.553 95.0914 139.454 95.0914 139.324V139.073L95.7652 138.653L95.0075 137.367C95.1193 137.329 95.213 137.269 95.2885 137.185C95.3626 137.102 95.3821 137.022 95.3444 136.948C94.8579 136.053 94.7363 134.991 94.9796 133.761C95.0173 133.519 95.0313 133.351 95.0215 133.257C95.0117 133.164 94.9935 132.996 94.9656 132.754C94.9376 132.512 94.9236 132.345 94.9236 132.251C94.9055 132.139 94.9796 132.009 95.1487 131.86C95.3164 131.71 95.3738 131.552 95.3164 131.384C95.2983 131.366 95.2549 131.31 95.1906 131.217C95.1249 131.123 95.0732 131.049 95.0369 130.993C95.0369 130.62 95.0606 129.986 95.1068 129.092C95.1529 128.197 95.1669 127.419 95.1487 126.757C95.1305 126.096 95.0369 125.448 94.8677 124.814C94.6804 124.796 94.2834 124.828 93.6754 124.912C93.0673 124.996 92.6605 124.972 92.455 124.842C92.0063 124.637 91.7155 124.245 91.5855 123.668C91.4919 123.221 91.5855 122.718 91.8665 122.158C92.5585 120.798 93.4755 120.22 94.6161 120.425C96.3369 120.723 97.8801 120.631 99.2459 120.145C100.237 119.772 101.134 119.81 101.94 120.257C102.07 120.333 102.215 120.393 102.374 120.439C102.534 120.485 102.729 120.537 102.963 120.593C103.196 120.649 103.379 120.695 103.509 120.733C103.565 120.9 103.663 121.194 103.804 121.613C103.944 122.033 104.052 122.364 104.127 122.606C104.015 122.848 103.88 123.179 103.72 123.598C103.561 124.018 103.453 124.293 103.398 124.423C103.286 124.535 103.172 124.637 103.061 124.73C102.949 124.824 102.822 124.898 102.682 124.954C102.542 125.01 102.434 125.056 102.359 125.094C102.283 125.132 102.158 125.164 101.98 125.192C101.803 125.22 101.695 125.238 101.657 125.248C101.619 125.257 101.498 125.271 101.292 125.29H100.955C100.395 125.775 100.152 126.258 100.226 126.743C100.3 127.358 100.305 128.337 100.24 129.679C100.174 131.021 100.198 131.999 100.31 132.614C100.347 132.8 100.324 133.052 100.24 133.369C100.156 133.687 100.114 133.891 100.114 133.984C99.9825 134.729 99.9644 135.546 100.058 136.431C100.152 137.315 100.433 138.104 100.9 138.793C102.303 139.278 103.209 139.586 103.621 139.716C103.902 139.566 104.379 139.492 105.053 139.492C105.726 139.492 106.231 139.426 106.568 139.296C107.128 138.887 107.746 138.104 108.42 136.948C108.326 136.538 108.336 135.927 108.448 135.117C108.56 134.306 108.588 133.715 108.532 133.341C108.476 132.912 108.466 132.261 108.504 131.384C108.542 130.508 108.522 129.856 108.448 129.427C108.392 129.054 108.261 127.862 108.055 125.849C107.85 125.531 107.485 125.304 106.961 125.164C106.436 125.024 106.081 124.88 105.894 124.73C105.464 124.395 105.164 123.962 104.997 123.43C104.829 122.899 104.819 122.382 104.969 121.879C105.286 120.91 106.053 120.415 107.27 120.397C107.587 120.397 107.784 120.407 107.858 120.425C108.55 120.649 109.551 120.775 110.861 120.802C112.169 120.83 113.012 120.872 113.385 120.928C113.816 120.984 114.115 121.03 114.283 121.068C114.45 121.106 114.685 121.17 114.984 121.264C115.284 121.357 115.513 121.487 115.672 121.655C115.832 121.823 115.948 122.037 116.023 122.298H116.022Z" fill="#FACC15"/>
<path d="M137.743 123.137C137.817 123.622 137.817 124.013 137.743 124.311C137.238 126.51 137.155 128.271 137.49 129.595C137.153 130.304 136.639 130.713 135.947 130.825C134.806 130.62 134.17 129.837 134.039 128.477C134.021 128.365 134.021 128.001 134.039 127.386C134.057 126.771 134.067 126.408 134.067 126.296V125.709C134.067 125.615 134.063 125.551 134.053 125.513C134.043 125.475 134.035 125.411 134.025 125.317C134.015 125.224 134.001 125.16 133.983 125.122C133.965 125.084 133.935 125.028 133.899 124.954C133.861 124.88 133.829 124.814 133.801 124.758C133.773 124.702 133.731 124.642 133.675 124.577C133.619 124.511 133.563 124.451 133.508 124.395C132.965 124.022 132.367 123.864 131.711 123.92C131.3 123.957 130.663 124.003 129.803 124.059C128.942 124.115 128.18 124.175 127.516 124.241C126.852 124.307 126.22 124.413 125.622 124.563C125.417 124.954 125.285 125.383 125.229 125.849C125.173 126.314 125.164 126.687 125.201 126.967C125.239 127.247 125.317 127.684 125.44 128.281C125.562 128.878 125.642 129.259 125.68 129.427C126.446 129.93 127.297 130.024 128.232 129.707C128.493 129.389 128.607 128.99 128.569 128.505C128.531 128.039 128.607 127.741 128.794 127.61C129.131 127.386 129.303 127.083 129.313 126.701C129.322 126.32 129.261 125.961 129.131 125.625C129.861 124.992 130.73 124.992 131.741 125.625C131.665 126.091 131.801 126.673 132.147 127.372C132.493 128.071 132.684 128.533 132.722 128.756C132.61 128.98 132.455 129.074 132.259 129.036C132.064 128.998 131.908 128.998 131.797 129.036C131.721 129.185 131.741 129.376 131.853 129.609C131.964 129.842 132.012 130.014 131.992 130.126L131.964 131.412C131.983 132.716 132.066 133.687 132.217 134.32C132.291 134.655 132.297 134.967 132.231 135.256C132.166 135.546 132.036 135.881 131.839 136.263C131.643 136.644 131.525 136.902 131.488 137.032C131.356 137.405 131.099 137.67 130.716 137.828C130.333 137.986 129.897 138.02 129.412 137.926C128.514 137.199 128.15 136.305 128.317 135.242C128.391 134.795 128.397 134.501 128.331 134.362C128.266 134.222 128.027 133.994 127.616 133.677C127.578 133.639 127.546 133.607 127.518 133.579C127.49 133.551 127.456 133.527 127.42 133.509C126.915 133.491 126.499 133.677 126.172 134.068C125.844 134.46 125.717 134.935 125.793 135.494C125.811 135.588 125.844 135.788 125.891 136.095C125.937 136.403 125.965 136.626 125.974 136.766C125.984 136.906 125.998 137.097 126.016 137.339C126.035 137.581 126.035 137.8 126.016 137.996C125.998 138.192 125.969 138.392 125.933 138.597C126.399 138.765 126.736 138.845 126.943 138.835C127.149 138.825 127.458 138.755 127.869 138.625C128.28 138.495 128.588 138.42 128.794 138.402C129.58 138.775 130.14 139.035 130.477 139.184C130.85 139.52 131.075 140.055 131.151 140.792C131.225 141.529 131.338 142.018 131.488 142.26C130.459 143.416 129.121 143.975 127.476 143.937C127.139 143.937 126.583 143.951 125.807 143.979C125.031 144.007 124.352 144.007 123.773 143.979C123.193 143.951 122.641 143.863 122.118 143.713C121.743 143.62 121.294 143.639 120.772 143.769C118.975 144.31 117.526 143.881 116.423 142.483C116.423 142.446 116.385 142.302 116.311 142.05C116.236 141.798 116.189 141.598 116.171 141.449C116.115 140.572 116.269 139.911 116.634 139.464C116.999 139.017 117.621 138.747 118.5 138.653C118.612 138.635 118.743 138.621 118.893 138.611C119.042 138.601 119.15 138.593 119.216 138.583C119.281 138.573 119.365 138.559 119.469 138.541C119.571 138.523 119.646 138.509 119.694 138.499C119.74 138.49 119.801 138.476 119.876 138.457C119.95 138.439 120.006 138.42 120.043 138.402C120.081 138.383 120.127 138.364 120.183 138.346C120.239 138.327 120.299 138.299 120.365 138.262C120.431 138.224 120.491 138.182 120.547 138.136C120.602 138.09 120.677 138.038 120.772 137.982C120.828 137.553 120.855 137.311 120.855 137.255C120.78 136.79 120.73 136.323 120.702 135.857C120.674 135.392 120.67 134.879 120.688 134.32C120.706 133.761 120.725 133.317 120.744 132.992C120.762 132.666 120.804 132.149 120.869 131.44C120.935 130.731 120.977 130.266 120.995 130.042C121.033 129.856 121.033 129.661 120.995 129.455C120.79 128.187 120.892 126.995 121.304 125.877C121.173 125.317 120.855 124.87 120.351 124.535C120.088 124.461 119.753 124.493 119.34 124.633C118.929 124.772 118.657 124.842 118.527 124.842C117.871 124.637 117.358 124.106 116.983 123.249C116.74 122.652 116.81 122.014 117.194 121.334C117.577 120.653 118.124 120.211 118.836 120.006C119.715 119.764 120.632 119.764 121.585 120.006C123.25 120.415 125.288 120.509 127.702 120.285C129.292 120.155 131.012 120.089 132.865 120.089C134.005 120.089 135.389 120.649 137.018 121.767C137.391 122.028 137.635 122.484 137.747 123.137H137.743Z" fill="#FACC15"/>
<path d="M159.781 123.137C159.855 123.622 159.855 124.013 159.781 124.311C159.276 126.51 159.192 128.271 159.528 129.595C159.191 130.304 158.676 130.713 157.984 130.825C156.844 130.62 156.208 129.837 156.076 128.477C156.058 128.365 156.058 128.001 156.076 127.386C156.094 126.771 156.104 126.408 156.104 126.296V125.709C156.104 125.615 156.1 125.551 156.09 125.513C156.08 125.475 156.072 125.411 156.062 125.317C156.052 125.224 156.038 125.16 156.02 125.122C156.002 125.084 155.973 125.028 155.936 124.954C155.899 124.88 155.867 124.814 155.839 124.758C155.811 124.702 155.769 124.642 155.713 124.577C155.657 124.511 155.601 124.451 155.545 124.395C155.003 124.022 154.404 123.864 153.749 123.92C153.338 123.957 152.7 124.003 151.841 124.059C150.98 124.115 150.218 124.175 149.554 124.241C148.89 124.307 148.258 124.413 147.66 124.563C147.454 124.954 147.323 125.383 147.267 125.849C147.211 126.314 147.201 126.687 147.239 126.967C147.277 127.247 147.355 127.684 147.478 128.281C147.6 128.878 147.679 129.259 147.717 129.427C148.483 129.93 149.334 130.024 150.269 129.707C150.531 129.389 150.644 128.99 150.606 128.505C150.569 128.039 150.644 127.741 150.831 127.61C151.168 127.386 151.34 127.083 151.35 126.701C151.36 126.32 151.298 125.961 151.168 125.625C151.898 124.992 152.767 124.992 153.778 125.625C153.703 126.091 153.838 126.673 154.185 127.372C154.53 128.071 154.722 128.533 154.759 128.756C154.648 128.98 154.492 129.074 154.297 129.036C154.101 128.998 153.946 128.998 153.834 129.036C153.759 129.185 153.778 129.376 153.89 129.609C154.002 129.842 154.049 130.014 154.03 130.126L154.002 131.412C154.02 132.716 154.104 133.687 154.255 134.32C154.329 134.655 154.334 134.967 154.269 135.256C154.203 135.546 154.073 135.881 153.876 136.263C153.68 136.644 153.563 136.902 153.525 137.032C153.394 137.405 153.136 137.67 152.753 137.828C152.37 137.986 151.934 138.02 151.449 137.926C150.552 137.199 150.187 136.305 150.355 135.242C150.429 134.795 150.434 134.501 150.369 134.362C150.303 134.222 150.064 133.994 149.653 133.677C149.615 133.639 149.583 133.607 149.555 133.579C149.527 133.551 149.494 133.527 149.457 133.509C148.953 133.491 148.536 133.677 148.209 134.068C147.882 134.46 147.755 134.935 147.83 135.494C147.848 135.588 147.882 135.788 147.928 136.095C147.974 136.403 148.002 136.626 148.012 136.766C148.022 136.906 148.036 137.097 148.054 137.339C148.072 137.581 148.072 137.8 148.054 137.996C148.036 138.192 148.006 138.392 147.97 138.597C148.437 138.765 148.774 138.845 148.981 138.835C149.186 138.825 149.495 138.755 149.906 138.625C150.317 138.495 150.626 138.42 150.831 138.402C151.617 138.775 152.178 139.035 152.514 139.184C152.888 139.52 153.113 140.055 153.188 140.792C153.262 141.529 153.376 142.018 153.525 142.26C152.496 143.416 151.158 143.975 149.513 143.937C149.176 143.937 148.62 143.951 147.844 143.979C147.068 144.007 146.389 144.007 145.81 143.979C145.23 143.951 144.678 143.863 144.155 143.713C143.781 143.62 143.332 143.639 142.809 143.769C141.013 144.31 139.563 143.881 138.46 142.483C138.46 142.446 138.423 142.302 138.348 142.05C138.273 141.798 138.227 141.598 138.209 141.449C138.153 140.572 138.306 139.911 138.671 139.464C139.036 139.017 139.658 138.747 140.537 138.653C140.649 138.635 140.781 138.621 140.93 138.611C141.08 138.601 141.187 138.593 141.253 138.583C141.319 138.573 141.403 138.559 141.506 138.541C141.608 138.523 141.684 138.509 141.731 138.499C141.777 138.49 141.839 138.476 141.913 138.457C141.987 138.439 142.043 138.42 142.081 138.402C142.118 138.383 142.165 138.364 142.221 138.346C142.276 138.327 142.337 138.299 142.402 138.262C142.468 138.224 142.528 138.182 142.584 138.136C142.64 138.09 142.714 138.038 142.809 137.982C142.865 137.553 142.893 137.311 142.893 137.255C142.817 136.79 142.767 136.323 142.739 135.857C142.711 135.392 142.707 134.879 142.725 134.32C142.743 133.761 142.763 133.317 142.781 132.992C142.799 132.666 142.841 132.149 142.907 131.44C142.973 130.731 143.015 130.266 143.033 130.042C143.07 129.856 143.07 129.661 143.033 129.455C142.827 128.187 142.929 126.995 143.342 125.877C143.21 125.317 142.893 124.87 142.388 124.535C142.125 124.461 141.79 124.493 141.378 124.633C140.967 124.772 140.694 124.842 140.564 124.842C139.908 124.637 139.395 124.106 139.021 123.249C138.778 122.652 138.847 122.014 139.232 121.334C139.615 120.653 140.161 120.211 140.873 120.006C141.752 119.764 142.669 119.764 143.623 120.006C145.287 120.415 147.326 120.509 149.74 120.285C151.329 120.155 153.05 120.089 154.902 120.089C156.043 120.089 157.427 120.649 159.055 121.767C159.428 122.028 159.673 122.484 159.785 123.137H159.781Z" fill="#FACC15"/>
<path d="M116.022 122.298C116.096 122.578 116.092 122.829 116.008 123.053C115.924 123.277 115.703 123.602 115.348 124.032C115.105 124.162 114.688 124.213 114.1 124.185C113.51 124.157 113.085 124.237 112.823 124.423C112.692 124.553 112.59 124.712 112.514 124.898C112.439 125.084 112.403 125.238 112.403 125.36C112.403 125.481 112.407 125.677 112.417 125.947C112.426 126.216 112.431 126.39 112.431 126.464C112.431 128.459 112.449 131.43 112.486 135.382C112.505 136.798 112.233 138.28 111.673 139.827C111.43 140.536 111.084 141.086 110.634 141.477C108.614 143.304 106.613 144.123 104.63 143.937C104.519 143.919 104.294 143.891 103.957 143.853C103.62 143.816 103.367 143.793 103.199 143.783C103.031 143.774 102.81 143.765 102.539 143.755C102.268 143.746 102.015 143.76 101.782 143.797C101.548 143.835 101.319 143.881 101.094 143.937C101.056 143.937 100.785 143.919 100.28 143.881C100.168 143.807 100.031 143.667 99.8735 143.462C99.7141 143.258 99.5785 143.098 99.4667 142.987C99.3549 142.875 99.176 142.791 98.9341 142.735C98.6909 142.679 98.4379 142.763 98.1765 142.987C98.0087 142.857 97.7655 142.669 97.4468 142.427C97.1281 142.186 96.9422 142.036 96.8863 141.98C96.8108 141.868 96.6947 141.561 96.5354 141.058C96.376 140.554 96.1384 140.237 95.8197 140.107L95.8476 140.135H95.371V140.107C95.2955 140.033 95.2354 139.949 95.1892 139.855C95.1417 139.762 95.1138 139.683 95.1054 139.618C95.0956 139.553 95.0914 139.454 95.0914 139.324V139.073L95.7652 138.653L95.0075 137.367C95.1193 137.329 95.213 137.269 95.2885 137.185C95.3626 137.102 95.3821 137.022 95.3444 136.948C94.8579 136.053 94.7363 134.991 94.9796 133.761C95.0173 133.519 95.0313 133.351 95.0215 133.257C95.0117 133.164 94.9935 132.996 94.9656 132.754C94.9376 132.512 94.9236 132.345 94.9236 132.251C94.9055 132.139 94.9796 132.009 95.1487 131.86C95.3164 131.71 95.3738 131.552 95.3164 131.384C95.2983 131.366 95.2549 131.31 95.1906 131.217C95.1249 131.123 95.0732 131.049 95.0369 130.993C95.0369 130.62 95.0606 129.986 95.1068 129.092C95.1529 128.197 95.1669 127.419 95.1487 126.757C95.1305 126.096 95.0369 125.448 94.8677 124.814C94.6804 124.796 94.2834 124.828 93.6754 124.912C93.0673 124.996 92.6605 124.972 92.455 124.842C92.0063 124.637 91.7155 124.245 91.5855 123.668C91.4919 123.221 91.5855 122.718 91.8665 122.158C92.5585 120.798 93.4755 120.22 94.6161 120.425C96.3369 120.723 97.8801 120.631 99.2459 120.145C100.237 119.772 101.134 119.81 101.94 120.257C102.07 120.333 102.215 120.393 102.374 120.439C102.534 120.485 102.729 120.537 102.963 120.593C103.196 120.649 103.379 120.695 103.509 120.733C103.565 120.9 103.663 121.194 103.804 121.613C103.944 122.033 104.052 122.364 104.127 122.606C104.015 122.848 103.88 123.179 103.72 123.598C103.561 124.018 103.453 124.293 103.398 124.423C103.286 124.535 103.172 124.637 103.061 124.73C102.949 124.824 102.822 124.898 102.682 124.954C102.542 125.01 102.434 125.056 102.359 125.094C102.283 125.132 102.158 125.164 101.98 125.192C101.803 125.22 101.695 125.238 101.657 125.248C101.619 125.257 101.498 125.271 101.292 125.29H100.955C100.395 125.775 100.152 126.258 100.226 126.743C100.3 127.358 100.305 128.337 100.24 129.679C100.174 131.021 100.198 131.999 100.31 132.614C100.347 132.8 100.324 133.052 100.24 133.369C100.156 133.687 100.114 133.891 100.114 133.984C99.9825 134.729 99.9644 135.546 100.058 136.431C100.152 137.315 100.433 138.104 100.9 138.793C102.303 139.278 103.209 139.586 103.621 139.716C103.902 139.566 104.379 139.492 105.053 139.492C105.726 139.492 106.231 139.426 106.568 139.296C107.128 138.887 107.746 138.104 108.42 136.948C108.326 136.538 108.336 135.927 108.448 135.117C108.56 134.306 108.588 133.715 108.532 133.341C108.476 132.912 108.466 132.261 108.504 131.384C108.542 130.508 108.522 129.856 108.448 129.427C108.392 129.054 108.261 127.862 108.055 125.849C107.85 125.531 107.485 125.304 106.961 125.164C106.436 125.024 106.081 124.88 105.894 124.73C105.464 124.395 105.164 123.962 104.997 123.43C104.829 122.899 104.819 122.382 104.969 121.879C105.286 120.91 106.053 120.415 107.27 120.397C107.587 120.397 107.784 120.407 107.858 120.425C108.55 120.649 109.551 120.775 110.861 120.802C112.169 120.83 113.012 120.872 113.385 120.928C113.816 120.984 114.115 121.03 114.283 121.068C114.45 121.106 114.685 121.17 114.984 121.264C115.284 121.357 115.513 121.487 115.672 121.655C115.832 121.823 115.948 122.037 116.023 122.298H116.022Z" fill="#FACC15"/>
</g>
<defs>
<clipPath id="clip0_555_2029">
<rect width="123.464" height="80" fill="white" transform="translate(48 64)"/>
</clipPath>
</defs>
</svg>
