<svg width="21" height="19" viewBox="0 0 21 19" fill="none" xmlns="http://www.w3.org/2000/svg">
<path d="M10.5 18.3249C10.2667 18.3249 10.0292 18.2832 9.7875 18.1999C9.54583 18.1166 9.33333 17.9832 9.15 17.7999L7.425 16.2249C5.65833 14.6082 4.0625 13.0041 2.6375 11.4124C1.2125 9.82074 0.5 8.06657 0.5 6.1499C0.5 4.58324 1.025 3.2749 2.075 2.2249C3.125 1.1749 4.43333 0.649902 6 0.649902C6.88333 0.649902 7.71667 0.837402 8.5 1.2124C9.28333 1.5874 9.95 2.0999 10.5 2.7499C11.05 2.0999 11.7167 1.5874 12.5 1.2124C13.2833 0.837402 14.1167 0.649902 15 0.649902C16.5667 0.649902 17.875 1.1749 18.925 2.2249C19.975 3.2749 20.5 4.58324 20.5 6.1499C20.5 8.06657 19.7917 9.8249 18.375 11.4249C16.9583 13.0249 15.35 14.6332 13.55 16.2499L11.85 17.7999C11.6667 17.9832 11.4542 18.1166 11.2125 18.1999C10.9708 18.2832 10.7333 18.3249 10.5 18.3249ZM9.55 4.7499C9.06667 4.06657 8.55 3.54574 8 3.1874C7.45 2.82907 6.78333 2.6499 6 2.6499C5 2.6499 4.16667 2.98324 3.5 3.6499C2.83333 4.31657 2.5 5.1499 2.5 6.1499C2.5 7.01657 2.80833 7.9374 3.425 8.9124C4.04167 9.8874 4.77917 10.8332 5.6375 11.7499C6.49583 12.6666 7.37917 13.5249 8.2875 14.3249C9.19583 15.1249 9.93333 15.7832 10.5 16.2999C11.0667 15.7832 11.8042 15.1249 12.7125 14.3249C13.6208 13.5249 14.5042 12.6666 15.3625 11.7499C16.2208 10.8332 16.9583 9.8874 17.575 8.9124C18.1917 7.9374 18.5 7.01657 18.5 6.1499C18.5 5.1499 18.1667 4.31657 17.5 3.6499C16.8333 2.98324 16 2.6499 15 2.6499C14.2167 2.6499 13.55 2.82907 13 3.1874C12.45 3.54574 11.9333 4.06657 11.45 4.7499C11.3333 4.91657 11.1917 5.04157 11.025 5.1249C10.8583 5.20824 10.6833 5.2499 10.5 5.2499C10.3167 5.2499 10.1417 5.20824 9.975 5.1249C9.80833 5.04157 9.66667 4.91657 9.55 4.7499Z" fill="black"/>
</svg>
