<svg width="64" height="49" viewBox="0 0 64 49" fill="none" xmlns="http://www.w3.org/2000/svg">
<g clip-path="url(#clip0_3_2561)">
<path fill-rule="evenodd" clip-rule="evenodd" d="M3.05176e-05 15.5385C3.05176e-05 12.8116 2.22219 10.6006 4.96193 10.6006H59.0382C61.7791 10.6006 64 12.8116 64 15.5385V33.1851C64 35.9104 61.7791 38.1218 59.0382 38.1218H4.96193C2.22219 38.1218 3.05176e-05 35.9104 3.05176e-05 33.1851V15.5385Z" fill="#000268"/>
<path fill-rule="evenodd" clip-rule="evenodd" d="M2.03651 15.7075V33.0177C2.03651 34.7215 3.4255 36.1033 5.13883 36.1033H33.4699V12.6219H5.13883C3.4255 12.6219 2.03651 14.0038 2.03651 15.7075ZM40.7901 24.2762C40.7901 25.3783 40.245 26.1357 39.3425 26.1357C38.5452 26.1357 37.8806 25.3783 37.8806 24.369C37.8806 23.3331 38.4651 22.5628 39.3425 22.5628C40.2729 22.5628 40.7901 23.3598 40.7901 24.2762ZM35.4911 30.5972H37.8806V26.8386H37.9073C38.3599 27.6622 39.2636 27.9674 40.1 27.9674C42.158 27.9674 43.2601 26.268 43.2601 24.2228C43.2601 22.5501 42.2114 20.7296 40.2984 20.7296C39.2102 20.7296 38.201 21.1683 37.7216 22.1381H37.6949V20.8902H35.4911V30.5972ZM46.5237 25.617C46.5237 24.9535 47.1605 24.7021 47.9717 24.7021C48.3299 24.7021 48.6758 24.7272 48.981 24.7416C48.981 25.5512 48.41 26.3748 47.5063 26.3748C46.9485 26.3748 46.5237 26.0963 46.5237 25.617ZM51.3438 27.8084C51.2382 27.2646 51.2115 26.7191 51.2115 26.1752V23.5988C51.2115 21.4874 49.685 20.7296 47.9183 20.7296C46.8963 20.7296 46.0066 20.8758 45.1563 21.2217L45.1969 22.8426C45.8587 22.47 46.6305 22.3238 47.4007 22.3238C48.2626 22.3238 48.9666 22.5768 48.981 23.5199C48.6758 23.4665 48.2498 23.4259 47.8649 23.4259C46.5911 23.4259 44.2932 23.6789 44.2932 25.7899C44.2932 27.2913 45.5145 27.9674 46.8823 27.9674C47.8649 27.9674 48.5295 27.5837 49.0738 26.7191H49.1005C49.1005 27.0789 49.1395 27.4359 49.1539 27.8084H51.3438ZM52.4192 30.5972C52.9108 30.704 53.4017 30.7577 53.9062 30.7577C56.0977 30.7577 56.6148 29.0707 57.2922 27.3307L59.8295 20.8902H57.4384L56.0176 25.405H55.9909L54.5034 20.8902H51.9283L54.7298 27.9674C54.5568 28.5786 54.1058 28.9245 53.5209 28.9245C53.1878 28.9245 52.8969 28.8838 52.5778 28.7783L52.4192 30.5972Z" fill="white"/>
<path fill-rule="evenodd" clip-rule="evenodd" d="M7.8742 24.2901C7.8742 23.347 8.33958 22.5628 9.22931 22.5628C10.3047 22.5628 10.7558 23.4258 10.7558 24.196C10.7558 25.2587 10.0784 25.9755 9.22931 25.9755C8.51251 25.9755 7.8742 25.3655 7.8742 24.2901ZM13.0668 20.8901H10.902V22.1381H10.8769C10.3709 21.2878 9.54688 20.7295 8.52526 20.7295C6.37442 20.7295 5.40462 22.2715 5.40462 24.3295C5.40462 26.3748 6.5868 27.8084 8.48422 27.8084C9.44169 27.8084 10.2386 27.4358 10.8092 26.6262H10.8359V26.9987C10.8359 28.3527 10.0924 29.0033 8.71214 29.0033C7.71561 29.0033 7.104 28.791 6.37442 28.4328L6.2549 30.319C6.81154 30.5186 7.75467 30.7577 8.89782 30.7577C11.6866 30.7577 13.0668 29.8409 13.0668 26.9987V20.8901ZM17.1066 18.0085H14.716V19.7613H17.1066V18.0085ZM14.7172 27.8084H17.1066V20.8901H14.7172V27.8084ZM23.7623 20.8096C23.5233 20.7706 23.2308 20.7295 22.9527 20.7295C21.9167 20.7295 21.3195 21.2878 20.9075 22.1648H20.8808V20.8901H18.7032V27.8084H21.0931V24.8878C21.0931 23.5326 21.7183 22.723 22.8332 22.723C23.1129 22.723 23.377 22.723 23.6428 22.8015L23.7623 20.8096ZM27.878 26.2947C26.7759 26.2947 26.3248 25.3783 26.3248 24.3562C26.3248 23.3203 26.7759 22.4038 27.878 22.4038C28.9813 22.4038 29.4327 23.3203 29.4327 24.3562C29.4327 25.3783 28.9813 26.2947 27.878 26.2947ZM27.878 27.9674C30.1623 27.9674 31.9023 26.6405 31.9023 24.3562C31.9023 22.058 30.1623 20.7295 27.878 20.7295C25.5941 20.7295 23.8552 22.058 23.8552 24.3562C23.8552 26.6405 25.5941 27.9674 27.878 27.9674Z" fill="#FF0007"/>
</g>
<defs>
<clipPath id="clip0_3_2561">
<rect width="64" height="48" fill="white" transform="translate(0 0.600586)"/>
</clipPath>
</defs>
</svg>
