<svg width="24" height="25" viewBox="0 0 24 25" fill="none" xmlns="http://www.w3.org/2000/svg">
<mask id="mask0_541_1367" style="mask-type:alpha" maskUnits="userSpaceOnUse" x="0" y="0" width="24" height="25">
<rect y="0.600586" width="24" height="24" fill="#D9D9D9"/>
</mask>
<g mask="url(#mask0_541_1367)">
<path d="M4 20.6006C3.45 20.6006 2.97917 20.4048 2.5875 20.0131C2.19583 19.6214 2 19.1506 2 18.6006V6.60059C2 6.05059 2.19583 5.57975 2.5875 5.18809C2.97917 4.79642 3.45 4.60059 4 4.60059H20C20.55 4.60059 21.0208 4.79642 21.4125 5.18809C21.8042 5.57975 22 6.05059 22 6.60059V18.6006C22 19.1506 21.8042 19.6214 21.4125 20.0131C21.0208 20.4048 20.55 20.6006 20 20.6006H4ZM20 8.60059L12.525 13.2756C12.4417 13.3256 12.3542 13.3631 12.2625 13.3881C12.1708 13.4131 12.0833 13.4256 12 13.4256C11.9167 13.4256 11.8292 13.4131 11.7375 13.3881C11.6458 13.3631 11.5583 13.3256 11.475 13.2756L4 8.60059V18.6006H20V8.60059ZM12 11.6006L20 6.60059H4L12 11.6006ZM4 8.85059V7.37559V7.40059V7.38809V8.85059Z" fill="black"/>
</g>
</svg>
