<svg width="64" height="49" viewBox="0 0 64 49" fill="none" xmlns="http://www.w3.org/2000/svg">
<g clip-path="url(#clip0_3_2557)">
<path d="M5 4.15878V45.0424C5 46.9994 6.60119 48.6006 8.55819 48.6006H32.9852C51.4522 48.6006 59.4581 38.264 59.4581 24.5472C59.4581 10.9016 51.4522 0.600586 32.9852 0.600586H8.55819C6.60119 0.600586 5 2.20177 5 4.15878Z" fill="white"/>
<path d="M21.3499 10.6347V40.8437H34.4974C46.4352 40.8437 51.6123 34.1009 51.6123 24.565C51.6123 15.4382 46.4352 8.35742 34.4974 8.35742H23.6272C22.364 8.35742 21.3499 9.3893 21.3499 10.6347Z" fill="#CC0066"/>
<path d="M32.9852 45.3449H11.7428C9.85693 45.3449 8.3269 43.8148 8.3269 41.929V7.29001C8.3269 5.40417 9.85693 3.87415 11.7428 3.87415H32.9852C53.1423 3.87415 56.149 16.8438 56.149 24.565C56.149 37.9616 47.9118 45.3449 32.9852 45.3449ZM11.7428 5.01277C10.4796 5.01277 9.46553 6.02685 9.46553 7.29001V41.929C9.46553 43.1922 10.4796 44.2062 11.7428 44.2062H32.9852C47.1824 44.2062 55.0104 37.2322 55.0104 24.565C55.0104 7.55687 41.2046 5.01277 32.9852 5.01277H11.7428Z" fill="black"/>
<path d="M25.9755 20.4909C26.4381 20.4909 26.8651 20.5621 27.2743 20.7044C27.6835 20.8468 28.0215 21.078 28.3239 21.3627C28.6086 21.6651 28.8399 22.0387 29.0178 22.4657C29.1779 22.9105 29.2669 23.4264 29.2669 24.0313C29.2669 24.5651 29.1957 25.0454 29.0712 25.4902C28.9288 25.935 28.7331 26.3264 28.4663 26.6466C28.1994 26.9668 27.8614 27.2159 27.4522 27.4116C27.043 27.5895 26.5626 27.6963 26.0111 27.6963H22.8977V20.4731H25.9755V20.4909ZM25.8688 26.3797C26.1001 26.3797 26.3136 26.3442 26.5449 26.273C26.7583 26.2018 26.954 26.0773 27.1142 25.8994C27.2743 25.7215 27.4166 25.508 27.5234 25.2233C27.6301 24.9387 27.6835 24.6184 27.6835 24.2092C27.6835 23.8534 27.6479 23.5154 27.5767 23.2307C27.5056 22.9461 27.381 22.6792 27.2209 22.4835C27.0608 22.2878 26.8473 22.1099 26.5804 22.0032C26.3136 21.8964 25.9933 21.843 25.6019 21.843H24.4633V26.3975H25.8688V26.3797Z" fill="white"/>
<path d="M35.6894 20.4909V21.8253H31.8822V23.3731H35.387V24.6006H31.8822V26.362H35.7784V27.6963H30.2988V20.4731H35.6894V20.4909Z" fill="white"/>
<path d="M41.1334 20.491L43.8376 27.7141H42.1831L41.6316 26.1129H38.9273L38.358 27.7141H36.7568L39.4789 20.491H41.1334ZM41.2224 24.9209L40.315 22.2701H40.2972L39.3543 24.9209H41.2224Z" fill="white"/>
<path d="M46.4174 20.491V26.3798H49.94V27.7141H44.834V20.491H46.4174Z" fill="white"/>
<path d="M15.4077 27.4293C17.2451 27.4293 18.7346 25.9398 18.7346 24.1024C18.7346 22.265 17.2451 20.7755 15.4077 20.7755C13.5703 20.7755 12.0808 22.265 12.0808 24.1024C12.0808 25.9398 13.5703 27.4293 15.4077 27.4293Z" fill="black"/>
<path d="M17.9162 40.8438C15.1231 40.8438 12.8814 38.5843 12.8814 35.8089V31.8771C12.8814 30.4895 14.0022 29.3508 15.4077 29.3508C16.7954 29.3508 17.934 30.4717 17.934 31.8771V40.8438H17.9162Z" fill="black"/>
</g>
<defs>
<clipPath id="clip0_3_2557">
<rect width="64" height="48" fill="white" transform="translate(0 0.600586)"/>
</clipPath>
</defs>
</svg>
