<svg width="64" height="49" viewBox="0 0 64 49" fill="none" xmlns="http://www.w3.org/2000/svg">
<g clip-path="url(#clip0_3_2562)">
<path d="M57.8545 6.60059H6.14539C2.75137 6.60059 -3.05176e-05 9.35199 -3.05176e-05 12.746V36.0107C-3.05176e-05 39.4047 2.75137 42.1561 6.14539 42.1561H57.8545C61.2486 42.1561 64 39.4047 64 36.0107V12.746C64 9.35199 61.2486 6.60059 57.8545 6.60059Z" fill="#FFB3C7"/>
<path fill-rule="evenodd" clip-rule="evenodd" d="M58.0081 27.4703C57.1708 27.4703 56.4921 28.1552 56.4921 29.0002C56.4921 29.845 57.1708 30.5301 58.0081 30.5301C58.8455 30.5301 59.5244 29.845 59.5244 29.0002C59.5244 28.1552 58.8455 27.4703 58.0081 27.4703ZM53.02 26.2875C53.02 25.1307 52.0401 24.1931 50.8313 24.1931C49.6225 24.1931 48.6425 25.1307 48.6425 26.2875C48.6425 27.4443 49.6224 28.3821 50.8313 28.3821C52.0402 28.3821 53.02 27.4443 53.02 26.2875ZM53.0281 22.2168H55.4436V30.3579H53.0281V29.8376C52.3457 30.3072 51.522 30.5833 50.6335 30.5833C48.2824 30.5833 46.3764 28.66 46.3764 26.2875C46.3764 23.9149 48.2824 21.9918 50.6335 21.9918C51.522 21.9918 52.3457 22.2678 53.0281 22.7376V22.2168ZM33.6972 23.2773V22.2169H31.2241V30.3579H33.7028V26.557C33.7028 25.2746 35.0802 24.5854 36.0359 24.5854C36.0458 24.5854 36.0549 24.5863 36.0647 24.5864V22.2176C35.0837 22.2176 34.1815 22.6412 33.6972 23.2773ZM27.5367 26.2875C27.5367 25.1307 26.5568 24.1932 25.3479 24.1932C24.1392 24.1932 23.1591 25.1308 23.1591 26.2875C23.1591 27.4443 24.1391 28.3822 25.3479 28.3822C26.5568 28.3822 27.5367 27.4443 27.5367 26.2875ZM27.5447 22.2168H29.9604V30.3579H27.5447V29.8376C26.8623 30.3072 26.0386 30.5833 25.1503 30.5833C22.799 30.5833 20.893 28.66 20.893 26.2875C20.893 23.9149 22.799 21.9918 25.1503 21.9918C26.0386 21.9918 26.8623 22.2679 27.5447 22.7376V22.2168ZM42.0841 21.9979C41.1192 21.9979 40.2059 22.3002 39.5953 23.1342V22.2173H37.1902V30.358H39.6249V26.0798C39.6249 24.8418 40.4476 24.2356 41.4383 24.2356C42.4999 24.2356 43.1102 24.8755 43.1102 26.063V30.358H45.5229V25.181C45.5229 23.2864 44.0301 21.9979 42.0841 21.9979ZM17.3744 30.358H19.9027V18.589H17.3744V30.358ZM6.26812 30.3613H8.94531V18.5868H6.26812V30.3613ZM15.632 18.5868C15.632 21.1359 14.6476 23.5071 12.8934 25.2697L16.594 30.3617H13.2874L9.2656 24.8278L10.3035 24.0434C12.0249 22.7423 13.0122 20.7535 13.0122 18.5868L15.632 18.5868Z" fill="#0A0B09"/>
</g>
<defs>
<clipPath id="clip0_3_2562">
<rect width="64" height="48" fill="white" transform="translate(0 0.600586)"/>
</clipPath>
</defs>
</svg>
