<svg width="124" height="80" viewBox="0 0 124 80" fill="none" xmlns="http://www.w3.org/2000/svg">
<g clip-path="url(#clip0_3_2215)">
<path d="M32.8262 2.77471C32.9198 3.63161 32.4893 4.21871 31.5359 4.53603C31.3682 4.57377 31.1291 4.5542 30.8202 4.48011C30.5113 4.40603 30.2163 4.37807 29.9368 4.39624C29.6558 4.41441 29.4042 4.5542 29.1791 4.8156C28.9359 5.48658 28.6745 6.51681 28.3935 7.90489C28.1125 9.29297 27.935 10.1457 27.8609 10.463C27.7295 10.9662 27.436 12.2061 26.9775 14.1813C26.519 16.1565 26.1499 17.676 25.869 18.7384C25.7753 19.0557 25.6215 19.5212 25.4063 20.1362C25.191 20.7513 25.0372 21.2168 24.9436 21.5341C24.7381 22.2792 24.4893 22.8803 24.1999 23.3374C23.9092 23.7945 23.5303 23.9762 23.0635 23.8825C22.5211 23.9203 22.0863 23.8825 21.7592 23.7707C21.4321 23.6589 21.2211 23.561 21.1274 23.4771C21.0337 23.3933 20.9079 23.1556 20.7486 22.7642C20.5892 22.3728 20.4816 22.131 20.4257 22.0373C19.8833 21.0127 19.415 19.7071 19.0222 18.1233C18.5735 16.334 18.2548 14.9921 18.0689 14.0974C17.9934 13.706 17.6285 12.9232 16.9743 11.749C16.5438 12.2523 16.2586 12.7974 16.1188 13.3845C15.9791 13.9716 15.9078 14.6566 15.9078 15.4394C15.9078 16.2222 15.8896 16.773 15.8518 17.0889C15.7764 17.2748 15.5569 17.546 15.1921 17.8997C14.8272 18.2533 14.6357 18.5888 14.6175 18.9061C14.5994 19.0739 14.6497 19.2877 14.7713 19.5491C14.8929 19.8105 14.9628 19.9783 14.9824 20.0524C14.9446 20.1642 14.9027 20.29 14.8566 20.4298C14.809 20.5696 14.7587 20.7275 14.7028 20.9051C14.6469 21.0826 14.5994 21.2168 14.563 21.3104C14.5071 21.4223 14.3058 21.8235 13.9591 22.5126C13.6125 23.2018 13.4126 23.6127 13.3553 23.7427C13.0184 24.0041 12.3069 24.1439 11.2235 24.1621C10.1388 24.1803 9.56843 24.1244 9.51252 23.9944C9.60617 23.9007 9.62015 23.8406 9.55445 23.8126C9.48875 23.7847 9.48456 23.6966 9.54047 23.547C9.44682 23.343 9.36714 23.1976 9.30144 23.1137C9.23574 23.0298 9.15187 22.9418 9.04842 22.8481C8.94498 22.7544 8.84713 22.644 8.75347 22.5126C8.7339 22.4385 8.71573 22.3351 8.69756 22.2051C8.67799 22.0751 8.6696 21.9912 8.6696 21.9535C8.6696 21.9157 8.65562 21.8514 8.62766 21.7578C8.59971 21.6641 8.58014 21.604 8.57175 21.576C8.56196 21.5481 8.54379 21.4964 8.51584 21.4223C8.48788 21.3482 8.46411 21.2923 8.44594 21.2545C8.42777 21.2168 8.39003 21.1567 8.33411 21.0728C8.2782 20.9889 8.22648 20.9149 8.18035 20.8492C8.13282 20.7835 8.07271 20.6954 7.99862 20.5836C7.54991 19.9685 7.31507 19.4373 7.29689 18.99C7.27732 18.5804 7.21302 18.1513 7.09979 17.7039C6.98657 17.2566 6.837 16.7576 6.65108 16.2082C6.46376 15.6589 6.33237 15.2353 6.25828 14.9362C6.42602 14.6007 6.54764 14.3393 6.62312 14.1534C6.60495 14.0038 6.49172 13.8458 6.28624 13.6781C6.08075 13.5103 5.95913 13.3426 5.92139 13.1749C5.82773 12.6339 5.61246 11.7952 5.27558 10.6587C4.93869 9.52223 4.72342 8.63598 4.62976 8.00274C4.42427 6.62305 3.97416 5.55228 3.28361 4.78764C3.07813 4.76947 2.77339 4.74571 2.3722 4.71775C1.96962 4.68979 1.67467 4.67582 1.48875 4.67582C1.13369 4.43398 0.908636 4.27463 0.814979 4.20054C0.177551 3.62322 0.0181943 2.97042 0.336908 2.24352C0.710139 1.34889 1.30982 0.891786 2.13317 0.873614C4.079 0.835871 5.33149 0.827484 5.89343 0.845656C6.52946 0.919743 7.21582 0.925335 7.95529 0.859635C8.69336 0.793935 9.28746 0.575868 9.73757 0.202637C10.7105 0.220809 11.5338 0.324251 12.2062 0.510168C12.88 0.696084 13.4783 1.06932 14.0025 1.62846C14.1702 1.53481 14.4694 1.35308 14.8999 1.08329C15.3304 0.813505 15.7037 0.621997 16.0224 0.510168C16.3397 0.398338 16.6864 0.352209 17.061 0.370381C17.4356 0.388553 17.7571 0.486404 18.0283 0.663933C18.2995 0.841463 18.5805 1.09308 18.8698 1.41878C19.1592 1.74449 19.3605 1.95417 19.4723 2.04782C19.7533 2.14148 19.9672 2.07578 20.1181 1.85212C20.8101 0.751999 21.9605 0.286509 23.5695 0.454253L24.5508 0.538125C25.4105 0.835871 26.7301 0.929528 28.5067 0.817699C29.1246 0.779956 30.0304 0.911356 31.2284 1.2091C32.2013 1.4705 32.7339 1.99191 32.8276 2.77471H32.8262ZM13.2141 6.85649C13.3441 6.59509 13.4433 6.08766 13.509 5.33281C13.5747 4.57796 13.5328 4.0328 13.3832 3.69731C13.14 4.14463 12.8129 4.46614 12.4005 4.66184C11.9895 4.85754 11.5967 4.9456 11.2221 4.92743C10.8475 4.90926 10.4463 4.90926 10.0157 4.92743C9.58521 4.9456 9.24832 5.02109 9.00509 5.15109C9.061 6.10164 9.38811 7.46177 9.98639 9.23287C10.5847 11.004 11.155 12.4577 11.6974 13.5942C12.1084 13.1846 12.3851 12.536 12.5249 11.6512C12.6647 10.7663 12.764 9.84793 12.8199 8.89738C12.8758 7.94683 13.0072 7.26607 13.2127 6.85649H13.2141ZM24.0154 6.3253C24.0336 6.1953 23.9972 5.9339 23.9036 5.54249C23.5849 5.35658 23.0341 5.18883 22.2485 5.03926C21.4629 4.88969 20.8744 4.66603 20.4816 4.36828C20.3502 5.05743 20.4438 5.95207 20.7626 7.05219C21.249 8.72963 21.4825 10.0059 21.4643 10.8824C21.4461 11.8888 21.8375 12.7932 22.6427 13.5942C22.6804 13.5006 22.7308 13.3985 22.7965 13.2867C22.8622 13.1749 22.9181 13.077 22.9642 12.9931C23.0103 12.9093 23.0341 12.8296 23.0341 12.7555C23.5206 9.68018 23.8477 7.53725 24.0154 6.3253Z" fill="#FACC15"/>
<path d="M54.1646 13.2589C55.4549 13.9676 55.8295 15.0202 55.2871 16.4181C54.9502 17.2945 54.8286 18.3373 54.9223 19.5493C55.0341 21.1526 54.7489 22.2472 54.0668 22.8343C53.3832 23.4214 52.3698 23.7149 51.0222 23.7149C45.2979 23.6772 41.7921 23.6031 40.5005 23.4913C39.5094 23.3976 38.5924 23.5011 37.7508 23.7988C36.6284 24.2084 35.5618 24.0966 34.5525 23.4633C34.0283 22.8664 33.9445 22.243 34.2995 21.5902C34.6168 21.031 35.1788 20.7515 35.9825 20.7515C36.9932 20.7515 37.769 20.4621 38.3114 19.8848C38.3114 19.5311 38.3296 18.972 38.3673 18.2073C38.4051 17.4427 38.4134 16.7494 38.3953 16.1245C38.3771 15.4997 38.2918 14.9084 38.1422 14.3492C37.9745 13.7719 37.9452 13.1848 38.0584 12.5879C38.5071 10.3891 38.4316 8.44042 37.8333 6.74481C37.7578 6.53932 37.7159 6.25136 37.7075 5.87813C37.6977 5.5049 37.6935 5.29102 37.6935 5.23511C37.3385 4.99328 37.0477 5.03102 36.8241 5.34694C36.5808 5.68243 36.0944 5.832 35.3647 5.79426C35.0837 5.77608 34.8824 5.73415 34.7608 5.66845C34.6392 5.60275 34.354 5.36511 33.9053 4.95554C33.8298 4.67596 33.7837 4.18671 33.7655 3.48777C33.746 2.78884 33.6621 2.26184 33.5125 1.90818L33.5405 1.93614C33.69 1.69431 33.9752 1.55872 34.396 1.53076C34.8167 1.5028 35.0641 1.58248 35.1396 1.7684C35.3269 1.80614 35.5646 1.69431 35.8553 1.43291C36.1447 1.17151 36.3935 1.0415 36.599 1.0415C36.6549 1.07925 36.7626 1.14355 36.9219 1.23721C37.0813 1.33086 37.2169 1.41473 37.3287 1.48882C37.9829 1.24699 38.9656 1.22323 40.274 1.41893C41.5824 1.61463 42.5651 1.61044 43.2207 1.40495C43.6513 1.75861 43.9029 1.90818 43.9784 1.85227C44.3152 1.55452 44.7122 1.35323 45.1707 1.25118C45.6292 1.14914 46.0584 1.1114 46.461 1.13935C46.8636 1.16731 47.2983 1.16312 47.7652 1.12538C50.1961 0.975804 52.086 1.11559 53.4321 1.54474L53.4601 1.51678V1.99205C53.797 2.2898 54.1143 2.60712 54.4134 2.94261C55.3109 3.94907 55.5639 4.91779 55.1711 5.85017C54.6105 7.22987 54.7224 8.52429 55.508 9.73625C55.3025 10.7427 55.0537 11.3718 54.7643 11.6234C54.4735 11.875 53.6838 12.1308 52.3935 12.3922C51.9252 12.2985 51.538 12.0707 51.2291 11.7072C50.9202 11.3438 50.6112 10.9063 50.3037 10.3932C49.9948 9.88023 49.6914 9.48463 49.3923 9.20506C49.3546 9.54054 49.2805 9.98786 49.1672 10.547C49.0554 11.1062 48.9757 11.5535 48.9282 11.889C48.8807 12.2245 48.8765 12.6256 48.9142 13.0911C48.952 13.5566 49.0736 13.9858 49.2791 14.3772C49.4664 14.7504 49.4748 15.4773 49.307 16.5578C48.6514 17.658 48.2027 18.3932 47.9609 18.7665L47.4562 18.9342C47.1934 18.9524 46.8482 18.9622 46.4176 18.9622C45.762 18.5526 45.2574 18.0116 44.9023 17.3407C44.8464 17.0052 44.8325 16.6976 44.8604 16.4181C44.8884 16.1385 44.8842 15.8128 44.8464 15.4395C44.8087 15.0663 44.7066 14.7406 44.5375 14.461C44.0692 14.0515 43.5268 13.9676 42.9104 14.2094C42.6672 14.8063 42.4421 15.3557 42.2366 15.8589C42.4239 16.3062 42.5399 16.9674 42.5875 17.8439C42.6336 18.7203 42.7035 19.3354 42.7986 19.6891C44.8003 19.5591 46.071 19.4836 46.6147 19.4654C46.7825 19.4654 47.4045 19.4696 48.4809 19.4794C49.5558 19.4892 50.1597 19.4472 50.2911 19.3536C50.628 19.1299 50.7776 18.7665 50.7398 18.2632C50.7398 18.1137 50.7301 17.9515 50.7119 17.774C50.6923 17.5965 50.6699 17.4064 50.642 17.2009C50.614 16.9954 50.5903 16.8276 50.5721 16.6976C50.4603 15.5612 50.7874 14.591 51.5534 13.7901C52.1517 13.175 53.0212 12.9975 54.1632 13.2589H54.1646ZM42.9705 7.19213V8.86957C43.3451 9.2428 43.7463 9.34484 44.1768 9.1771C44.2887 9.02753 44.4382 8.77591 44.6256 8.42225C44.8129 8.06859 45.0044 7.76106 45.2001 7.49966C45.3972 7.23826 45.6348 7.02438 45.9158 6.85664C46.3827 6.70706 46.8272 6.71266 47.248 6.87062C47.6687 7.02857 48.1314 7.28998 48.6374 7.65342C49.1421 8.01687 49.5349 8.26429 49.8158 8.39429C49.9836 7.76106 49.9095 7.11804 49.5908 6.46523C49.1603 5.99974 48.6277 5.7663 47.9916 5.7663C46.8314 5.80404 45.7844 5.86834 44.8492 5.962C44.2314 6.03609 43.7547 6.24157 43.4178 6.57706C43.3801 6.61481 43.2305 6.81889 42.9691 7.19213H42.9705Z" fill="#FACC15"/>
<path d="M69.0953 6.15749C69.0016 6.13932 68.8003 6.10158 68.4914 6.04566C68.1824 5.98975 67.9532 5.9576 67.8036 5.94781C67.654 5.93803 67.4569 5.9576 67.2151 6.00373C66.9719 6.04986 66.7384 6.14911 66.5134 6.29728C66.3638 6.7446 66.2799 7.21987 66.2604 7.72311C66.2422 8.22634 66.2646 8.83161 66.3303 9.54033C66.396 10.2491 66.4281 10.7425 66.4281 11.0221V11.6931C66.4281 12.0104 66.4323 12.2564 66.4421 12.4339C66.4519 12.6114 66.4742 12.8295 66.512 13.0909C66.5497 13.3523 66.6056 13.5844 66.6797 13.7899C66.7357 13.9394 66.7259 14.191 66.6518 14.5447C66.5022 15.1598 66.4267 16.0306 66.4267 17.1587C66.4267 18.2868 66.4169 18.9997 66.3988 19.2975C66.5483 19.7448 66.8573 20.1641 67.3242 20.5555C68.1838 20.6674 68.8115 20.7415 69.2043 20.7792C69.9717 21.3202 70.2052 21.9632 69.906 22.7083C69.6628 23.3429 69.0729 23.677 68.1377 23.7147C67.2766 23.7525 66.491 23.649 65.7809 23.4072C64.4711 22.978 63.1711 22.978 61.8809 23.4072C61.3762 23.5749 60.8618 23.6868 60.3376 23.7427C59.4402 23.8545 58.7664 23.7706 58.3177 23.4911C57.869 23.2115 57.4286 22.6244 56.9995 21.7297C57.1491 21.0965 57.6817 20.6771 58.5987 20.4717C58.6727 20.4535 58.8698 20.3738 59.1872 20.234C59.5045 20.0942 59.7673 20.0341 59.9728 20.0523C60.1782 20.0705 60.3837 20.1823 60.5906 20.3878C60.8157 19.6986 60.9359 19.2513 60.9555 19.0458C60.9736 18.8404 60.9275 18.5049 60.8157 18.0394C60.9834 17.9835 61.1428 17.9178 61.2924 17.8437C61.4042 17.2468 61.4517 16.9309 61.4321 16.8931C61.2644 16.334 61.161 15.7608 61.1232 15.1737C61.0855 14.5866 61.0952 13.8416 61.1512 12.9372C61.2071 12.0327 61.235 11.4596 61.235 11.2178C61.2532 9.76399 61.1693 8.1886 60.982 6.49298C60.6633 6.08341 60.1587 5.87792 59.4667 5.87792C58.4756 5.87792 57.8159 5.75631 57.4888 5.51447C57.1617 5.27264 56.8108 4.66597 56.4362 3.69725C56.4362 3.67907 56.4823 3.44563 56.5759 2.99831C56.6696 2.55099 56.7437 2.20572 56.801 1.96389C58.5777 0.901509 60.4201 0.621936 62.3282 1.12517C63.0942 1.33065 63.8714 1.367 64.657 1.237C64.8066 1.21883 65.1057 1.15313 65.5545 1.0413C66.0032 0.929467 66.3498 0.863767 66.5931 0.845595C66.7426 0.827422 67.4625 0.863767 68.7528 0.957424C69.1078 1.16291 69.5943 1.4327 70.2121 1.76819C70.7923 2.681 71.0998 3.37154 71.1375 3.83703C71.1935 4.24661 71.1278 4.66597 70.9418 5.09511C70.7923 5.18877 70.5071 5.35651 70.0863 5.59835C69.6656 5.84018 69.3329 6.02749 69.0897 6.15749H69.0953Z" fill="#FACC15"/>
<path d="M96.7059 13.6781C97.6215 14.0318 98.1653 14.3533 98.333 14.6427C98.5008 14.932 98.5385 15.589 98.4449 16.6137C98.389 17.1728 98.361 18.0297 98.361 19.1857C98.3233 21.1246 97.444 22.3911 95.7232 22.9879C93.8529 23.6407 92.1978 23.2955 90.7566 21.9535C90.1583 21.3944 89.8312 20.6954 89.7753 19.8567C89.7557 19.6331 89.7417 19.3856 89.7334 19.1158C89.7236 18.8461 89.7152 18.5469 89.7054 18.2212C89.6956 17.8955 89.6914 17.6481 89.6914 17.4803V16.9631C89.6914 16.7115 89.6872 16.5256 89.6774 16.404C89.6677 16.2824 89.6537 16.1146 89.6355 15.9008C89.6173 15.6869 89.588 15.5052 89.5516 15.3556C89.5139 15.206 89.4622 15.0341 89.3979 14.8384C89.3322 14.6427 89.2525 14.4609 89.1588 14.2932C88.8038 14.0136 88.4194 13.8738 88.0084 13.8738C87.5974 13.8738 87.1613 13.9298 86.7042 14.0416C86.2457 14.1534 85.8766 14.1912 85.5957 14.1534H84.4033C84.2439 14.1534 83.8567 14.2191 83.2389 14.3491C82.621 14.4791 82.238 14.5546 82.0884 14.5728C81.7515 15.4674 81.602 16.1244 81.6397 16.5438C81.6774 16.9631 81.9486 18.0213 82.4533 19.7169C82.6783 19.8847 82.888 19.8427 83.0851 19.5911C83.2808 19.3395 83.4444 19.2137 83.5758 19.2137C83.7071 19.2137 84.1838 19.1955 85.0072 19.1578C85.1372 19.2696 85.4377 19.6051 85.9046 20.1642C86.3715 20.7234 86.7741 21.0868 87.111 21.2546C87.2787 21.7956 87.213 22.289 86.9139 22.7363C86.5029 22.419 86.2876 22.2513 86.268 22.2331C86.1003 22.3072 85.9829 22.4987 85.9172 22.8062C85.8515 23.1138 85.7718 23.3053 85.6781 23.3793C85.5663 23.5289 85.3832 23.5932 85.1316 23.575C84.8786 23.5569 84.6871 23.575 84.5571 23.631C83.8274 24.0965 82.8824 24.144 81.7236 23.7707C80.5633 23.3975 79.1235 23.4353 77.4028 23.8826C75.7756 24.2922 74.3904 23.7889 73.2497 22.3729C73.1379 21.8137 73.184 21.1609 73.3895 20.4159C74.7734 19.7631 76.0356 19.3633 77.1777 19.2137C77.2895 19.1019 77.3692 18.9858 77.4167 18.8642C77.4629 18.7426 77.4908 18.6504 77.5006 18.5847C77.5104 18.5204 77.5104 18.4127 77.5006 18.2631C77.4908 18.1136 77.4866 18.0213 77.4866 17.9836C77.5244 17.0889 77.4824 15.8169 77.3608 14.1674C77.2392 12.5179 77.1693 11.4975 77.1497 11.1061C77.0938 10.4169 77.0701 9.61454 77.0799 8.70173C77.0896 7.78892 77.1777 7.0145 77.3468 6.38127C77.2909 6.26944 77.2252 6.17578 77.1511 6.1017C77.0757 6.02761 77.0156 5.97169 76.9694 5.93395C76.9219 5.89621 76.8478 5.86965 76.7444 5.85008C76.6409 5.83191 76.5668 5.82212 76.5193 5.82212H76.0566C75.7016 5.82212 75.3689 5.82631 75.0613 5.8361C74.7524 5.84589 74.4253 5.79416 74.08 5.68233C73.7334 5.57051 73.4105 5.39298 73.1127 5.15114C73.0372 5.00157 72.8932 4.74576 72.678 4.38232C72.4627 4.01887 72.2894 3.72532 72.1594 3.50166C72.3271 2.49519 72.4487 1.80605 72.5242 1.43281C73.1784 0.594094 74.1331 0.240433 75.3856 0.370435C76.0958 0.444522 76.62 0.454307 76.9568 0.398392C78.0793 0.230648 78.9111 0.36065 79.4534 0.789796C79.8462 0.733881 80.3649 0.673772 81.0107 0.608073C81.6565 0.542373 82.231 0.478071 82.7356 0.412371C83.2403 0.348069 83.7085 0.268391 84.1391 0.174734C85.5048 -0.10484 87.1878 -0.0489254 89.1896 0.342478C89.3769 0.38022 89.6425 0.472479 89.9892 0.622051C90.3344 0.771623 90.5637 0.863883 90.6769 0.901625C90.8824 0.97711 91.1857 1.14905 91.5883 1.41884C91.9909 1.68862 92.3222 1.86196 92.585 1.93605C92.996 2.04788 93.3427 2.33724 93.6236 2.80273C94.2219 3.77145 94.8202 4.86179 95.4199 6.07374C95.4758 6.18557 95.4856 6.51127 95.4478 7.05225C95.4478 7.18225 95.4199 7.37795 95.364 7.63935C95.3081 7.90075 95.2703 8.09645 95.2521 8.22645C95.234 8.37603 95.248 8.58571 95.2941 8.8555C95.3402 9.12528 95.364 9.29862 95.364 9.37271C94.8034 10.6028 94.0821 11.6554 93.2043 12.5319C93.3161 12.9233 93.4713 13.4866 93.667 14.2233C93.8641 14.96 94.0178 15.5135 94.1297 15.8868C94.3351 15.7372 94.4987 15.4912 94.6203 15.1459C94.7419 14.8006 94.8314 14.5909 94.8873 14.5169C95.2619 14.0318 95.7009 13.7159 96.2055 13.5663C96.4865 13.6222 96.6542 13.66 96.7101 13.6781H96.7059ZM91.2626 8.03075C91.5799 6.83837 91.2528 5.85008 90.2813 5.06727C89.0093 4.02306 87.494 3.78123 85.7355 4.34038C85.3986 4.63813 84.8562 4.82963 84.1083 4.91351C83.3605 4.99738 82.8544 5.10501 82.593 5.23502C82.3498 5.68233 82.34 6.3631 82.5651 7.2759C82.7902 8.18871 82.8461 8.84152 82.7328 9.23292C83.0138 9.69841 83.2934 10.0059 83.5744 10.1555C84.5654 10.2296 85.2714 10.2673 85.6921 10.2673C86.1129 10.2673 86.5476 10.2576 86.9963 10.2394C87.445 10.2212 87.8756 10.0996 88.2866 9.87594C88.6975 9.65228 89.0861 9.43281 89.451 9.21894C89.8158 9.00507 90.4183 8.60807 91.2612 8.03075H91.2626ZM94.1241 18.8503C94.2918 18.4966 94.3813 18.2631 94.3911 18.1513C94.4008 18.0395 94.3114 17.9179 94.1241 17.7879V18.8503Z" fill="#FACC15"/>
<path d="M122.943 9.17696C123.784 12.0286 123.606 14.9264 122.41 17.8717C122.372 18.0017 122.292 18.189 122.171 18.4309C122.049 18.6727 121.97 18.8502 121.932 18.962C121.856 19.1675 121.792 19.4275 121.736 19.7448C121.605 19.8748 121.287 20.146 120.783 20.5556C120.278 20.9652 119.904 21.3286 119.66 21.6459C119.417 21.9633 119.249 22.3351 119.156 22.7642C119.006 22.7642 118.795 22.7684 118.524 22.7782C118.253 22.788 118.051 22.802 117.92 22.8202C117.378 23.9944 116.694 24.3956 115.872 24.0223C115.647 24.0601 115.461 24.1999 115.312 24.4417C115.162 24.6835 115.003 24.7953 114.835 24.7772C114.648 24.7213 114.498 24.5353 114.386 24.218C114.087 24.348 113.788 24.4137 113.489 24.4137C112.703 24.6933 111.421 24.6975 109.645 24.4277C107.868 24.1579 106.558 24.088 105.717 24.218C105.529 24.2558 105.226 24.2781 104.805 24.2879C104.384 24.2977 104.034 24.3396 103.753 24.4137C103.472 24.4878 103.228 24.6374 103.023 24.861C101.938 24.5074 100.955 24.1803 100.076 23.8825C99.7393 23.603 99.552 23.2996 99.5156 22.9739C99.4779 22.6482 99.5156 22.2932 99.6275 21.9115C99.7393 21.5299 99.7868 21.2448 99.7673 21.0588C99.935 20.7974 100.113 20.5794 100.3 20.4018C100.487 20.2243 100.716 20.0845 100.988 19.9825C101.259 19.8804 101.474 19.805 101.633 19.7588C101.793 19.7127 102.044 19.661 102.391 19.6051C102.736 19.5491 102.957 19.5114 103.051 19.4932C103.537 19.1577 103.725 18.7943 103.611 18.4029C103.462 17.9178 103.378 17.3587 103.358 16.7255C103.34 16.0922 103.358 15.5233 103.414 15.0201C103.47 14.5168 103.47 13.9479 103.414 13.3147C103.321 12.3459 103.395 10.5846 103.639 8.03071C103.658 7.88114 103.667 7.43382 103.667 6.68875C103.5 6.35327 103.107 6.12961 102.489 6.01778C101.44 5.85003 100.74 5.68229 100.385 5.51454C99.8805 5.10497 99.5436 4.56399 99.3745 3.89302C99.4681 3.66936 99.6177 3.31011 99.8232 2.81666C100.029 2.32321 100.188 1.94579 100.3 1.68439C101.983 1.23707 103.349 1.10707 104.396 1.29298C105.311 1.40481 106.013 1.45653 106.499 1.44675C106.986 1.43696 107.688 1.39083 108.603 1.30696C109.519 1.22309 110.221 1.18115 110.707 1.18115C110.968 1.18115 112.222 1.22728 114.467 1.32094C114.934 1.32094 115.309 1.43277 115.59 1.65643C115.927 1.936 116.445 2.24353 117.147 2.57902C117.849 2.91451 118.311 3.14795 118.536 3.27796C120.706 4.58217 122.174 6.54897 122.941 9.17696H122.943ZM117.162 19.5771C119.238 17.7697 120.173 15.4772 119.968 12.6996C119.95 12.4578 119.94 12.1362 119.94 11.7351V10.7985C119.828 10.6685 119.613 10.3274 119.294 9.77804C118.975 9.22868 118.668 8.85126 118.369 8.64577C118.106 8.45985 117.958 8.24458 117.92 8.00275C117.902 7.83501 117.844 7.68124 117.752 7.54145C117.659 7.40167 117.575 7.29962 117.499 7.23392C117.424 7.16822 117.302 7.07037 117.134 6.94037C116.967 6.81037 116.853 6.7265 116.797 6.68875C115.208 5.42089 113.075 5.10497 110.401 5.7382C109.577 5.92412 109.167 6.28757 109.167 6.82854V10.2393C109.167 10.5371 109.157 11.0599 109.139 11.805C109.12 12.55 109.097 13.1427 109.069 13.5802C109.041 14.0178 108.999 14.5406 108.943 15.1459C108.887 15.7511 108.821 16.3243 108.747 16.8652C108.579 18.0576 108.672 19.0277 109.028 19.7728C110.075 19.9965 110.861 20.146 111.385 20.2201C111.61 20.2579 111.918 20.2802 112.31 20.29C112.703 20.2998 113.062 20.3278 113.391 20.3739C113.718 20.42 114.023 20.5095 114.302 20.6395C114.508 20.7331 114.891 20.6954 115.453 20.5277C116.107 20.3222 116.677 20.0062 117.164 19.5771H117.162Z" fill="#FACC15"/>
<path d="M21.2671 33.0526C21.249 33.2021 21.2196 33.6536 21.1833 34.4085C21.1455 35.1633 21.0798 35.7463 20.9876 36.1558C20.8757 36.5472 20.8562 36.8729 20.9317 37.1343C21.119 37.7494 21.1092 38.2988 20.9037 38.7838C20.6982 39.2689 20.3432 39.7805 19.8371 40.3215C18.5651 41.142 17.3964 41.0302 16.3299 39.986C16.1244 39.5387 15.9189 38.8355 15.712 37.8752C15.5065 36.9149 15.3374 36.2397 15.2074 35.8483C15.0201 35.6806 14.6231 35.3311 14.015 34.7999C13.4069 34.2687 12.9345 33.8452 12.5976 33.5278C11.2514 33.1183 10.101 33.0987 9.14623 33.4719C7.42546 34.758 6.17157 36.2117 5.38597 37.8333L5.41392 37.8612C5.39435 38.7181 5.13295 39.7442 4.62832 40.9365C4.66606 41.0484 4.73037 41.2161 4.82402 41.4398C4.91768 41.6634 4.98757 41.8452 5.0351 41.9849C5.08123 42.1247 5.12876 42.2883 5.17489 42.4742C5.22102 42.6601 5.24059 42.8418 5.2308 43.0194C5.22102 43.1969 5.17908 43.3688 5.10499 43.5366C5.16091 43.6302 5.25876 43.7602 5.39994 43.928C5.53973 44.0957 5.64737 44.2397 5.72285 44.3613C5.79694 44.4829 5.85285 44.6087 5.8906 44.7387C6.07791 45.4097 6.4134 45.9647 6.90125 46.4022C7.38771 46.8397 7.85041 47.1431 8.29074 47.3108C8.72967 47.4786 9.34333 47.6561 10.1289 47.842C10.2589 47.8797 10.9802 47.9441 12.2886 48.0377C13.597 48.1314 14.823 47.5904 15.9636 46.4162C16.4683 45.8752 16.6933 45.214 16.6374 44.4312C16.5815 43.6666 16.8708 43.0236 17.5069 42.5021C17.6942 42.4085 17.806 42.3624 17.8438 42.3624C18.9467 42.2883 19.6862 42.4225 20.0608 42.7677C20.434 43.113 20.6032 43.8161 20.5654 44.8785C20.5095 46.6678 19.9014 48.2096 18.7412 49.5055C17.581 50.8013 16.0755 51.6163 14.2247 51.9517C11.5492 52.4368 9.14623 52.2411 7.01448 51.3646C5.63059 50.7677 4.5081 49.9668 3.64702 48.9603C2.97325 48.1775 2.44066 47.6183 2.04786 47.2829C1.97237 47.0033 1.86613 46.5462 1.72495 45.913C1.58516 45.2797 1.47194 44.7905 1.38806 44.4452C1.30419 44.1013 1.17279 43.7001 0.995262 43.243C0.817733 42.7859 0.626225 42.3903 0.420739 42.0548C0.364824 41.6816 0.430524 41.3461 0.61644 41.0484C0.654182 40.9925 0.746442 40.7786 0.897412 40.4053C0.0181525 39.1934 0.0279375 38.1688 0.925369 37.33C0.999456 37.1064 0.939348 36.7751 0.743646 36.3376C0.547945 35.9 0.580095 35.6149 0.841497 35.4849C0.897411 35.373 1.02881 35.3688 1.2343 35.4709C1.43978 35.5729 1.5614 35.6246 1.59914 35.6246C1.71097 35.2332 1.88011 34.7202 2.10377 34.087C2.32883 33.4538 2.45883 33.0623 2.49657 32.9128C2.66432 32.7269 2.88518 32.499 3.15637 32.2278C3.42755 31.958 3.64702 31.7246 3.81616 31.5289C3.9839 31.3332 4.13348 31.1333 4.26488 30.9278C4.37671 30.7419 4.6437 30.5965 5.06446 30.4945C5.48521 30.3924 5.73264 30.2107 5.80812 29.9493C7.2675 28.7192 8.97849 28.1782 10.9425 28.3278C11.0166 28.3278 11.2039 28.3417 11.503 28.3697C11.8022 28.3977 12.0035 28.4158 12.1069 28.4256C12.209 28.4354 12.3963 28.4536 12.6675 28.4815C12.9386 28.5095 13.1399 28.5374 13.2713 28.5654C13.4013 28.5934 13.5845 28.6255 13.8179 28.6633C14.0514 28.701 14.2484 28.7471 14.4064 28.803C14.5658 28.859 14.7433 28.9247 14.939 28.9987C15.1361 29.0742 15.322 29.1567 15.4995 29.2504C15.6771 29.344 15.8504 29.4461 16.0182 29.5579C16.2055 29.5956 16.3928 29.5118 16.5787 29.3063C16.766 29.1008 16.896 28.9806 16.9715 28.9428C17.7389 28.831 18.2478 28.7988 18.5008 28.845C18.7538 28.8911 19.3465 29.0826 20.283 29.4181C21.1064 30.4987 21.4335 31.7106 21.2643 33.0526H21.2671Z" fill="#FACC15"/>
<path d="M41.3783 32.2419C43.3801 34.7399 44.2216 37.9732 43.9029 41.9431C43.7715 43.3592 43.5003 44.5809 43.0893 45.6056C43.0516 45.6796 42.9118 46.1745 42.6685 47.0873C42.5931 47.1614 42.4295 47.3152 42.1779 47.5486C41.9249 47.782 41.7376 47.9638 41.6173 48.0938C41.4957 48.2238 41.3643 48.4153 41.2245 48.6669C41.0848 48.9185 41.0051 49.1841 40.9855 49.4637C40.8737 49.4818 40.7227 49.5098 40.5368 49.5476C40.3495 49.5853 40.1999 49.623 40.0881 49.6594C40.0126 49.7153 39.9106 49.911 39.7792 50.2465C39.6478 50.582 39.4604 50.7679 39.2186 50.8056C38.1143 50.9915 37.3203 51.225 36.8338 51.5046C34.8698 52.5488 32.4571 52.5292 29.5957 51.4486C28.8842 51.1872 28.1978 50.7916 27.5338 50.2605C26.8698 49.7293 26.3554 49.254 25.9906 48.8346C25.6257 48.4153 25.1351 47.8142 24.5172 47.0314C24.0308 46.3982 23.7414 45.6713 23.6478 44.8507C23.6282 44.553 23.5261 44.1056 23.3388 43.5088C22.4777 41.0667 22.5057 38.4205 23.4227 35.5689C23.61 34.9356 23.8994 34.1333 24.2922 33.1645C24.4795 32.7172 25.0023 32.0462 25.8634 31.1516C25.9934 31.002 26.1947 30.7882 26.4673 30.5086C26.7384 30.229 26.9481 30.0151 27.0991 29.8656C27.1732 29.6419 28.3152 29.2603 30.5225 28.7193C30.9712 28.6075 31.4576 28.5194 31.9818 28.4537C32.5046 28.388 33.0764 28.3237 33.6928 28.258C34.3107 28.1923 34.7776 28.142 35.0963 28.1042C35.3018 28.1783 35.6764 28.2999 36.2188 28.4677C36.7612 28.6354 37.1637 28.7654 37.4251 28.8591C37.6865 28.9528 38.0234 29.0869 38.4358 29.2645C38.8468 29.442 39.2116 29.6377 39.5303 29.8516C39.8476 30.0655 40.1482 30.3129 40.4278 30.5925L40.7926 31.2634C41.0358 31.7107 41.2315 32.0365 41.3811 32.2419H41.3783ZM39.7512 44.8228C41.6215 40.5551 41.0316 36.901 37.9829 33.8635C37.5342 33.8635 37.1218 33.7419 36.7486 33.5C36.599 33.4818 36.2663 33.4399 35.7519 33.3742C35.2375 33.3085 34.8489 33.2484 34.5875 33.1925C33.6146 33.0066 32.7535 32.9884 32.0056 33.1366C30.1157 33.528 29.0505 34.3849 28.8073 35.7087C28.7877 35.8582 28.7234 36.2077 28.6102 36.7571C28.4984 37.3064 28.4327 37.6559 28.4145 37.8055C28.3963 37.955 28.3586 38.3129 28.3027 38.8818C28.2467 39.4507 28.2551 39.8184 28.3306 39.9861C28.4606 41.2722 28.7514 42.8 29.2001 44.5711C29.9857 45.6713 30.3883 46.2304 30.4064 46.2486C31.4171 47.5164 32.773 47.8981 34.4742 47.3948C36.1014 46.9098 37.8599 46.0529 39.7484 44.8228H39.7512Z" fill="#FACC15"/>
<path d="M64.1552 32.2419C66.1569 34.7399 66.9984 37.9732 66.6797 41.9431C66.5483 43.3592 66.2771 44.5809 65.8662 45.6056C65.8284 45.6796 65.6886 46.1745 65.4454 47.0873C65.3699 47.1614 65.2064 47.3152 64.9548 47.5486C64.7017 47.782 64.5144 47.9638 64.3942 48.0938C64.2726 48.2238 64.1412 48.4153 64.0014 48.6669C63.8616 48.9185 63.7819 49.1841 63.7624 49.4637C63.6505 49.4818 63.4996 49.5098 63.3137 49.5476C63.1263 49.5853 62.9768 49.623 62.8649 49.6594C62.7895 49.7153 62.6874 49.911 62.556 50.2465C62.4246 50.582 62.2373 50.7679 61.9955 50.8056C60.8911 50.9915 60.0972 51.225 59.6107 51.5046C57.6467 52.5488 55.234 52.5292 52.3725 51.4486C51.661 51.1872 50.9747 50.7916 50.3107 50.2605C49.6467 49.7293 49.1323 49.254 48.7674 48.8346C48.4026 48.4153 47.9119 47.8142 47.2941 47.0314C46.8076 46.3982 46.5183 45.6713 46.4246 44.8507C46.405 44.553 46.303 44.1056 46.1157 43.5088C45.2546 41.0667 45.2826 38.4205 46.1996 35.5689C46.3869 34.9356 46.6762 34.1333 47.069 33.1645C47.2563 32.7172 47.7791 32.0462 48.6402 31.1516C48.7702 31.002 48.9715 30.7882 49.2441 30.5086C49.5153 30.229 49.725 30.0151 49.8759 29.8656C49.95 29.6419 51.0921 29.2603 53.2993 28.7193C53.748 28.6075 54.2345 28.5194 54.7587 28.4537C55.2815 28.388 55.8532 28.3237 56.4697 28.258C57.0875 28.1923 57.5544 28.142 57.8732 28.1042C58.0786 28.1783 58.4533 28.2999 58.9956 28.4677C59.538 28.6354 59.9406 28.7654 60.202 28.8591C60.4634 28.9528 60.8003 29.0869 61.2127 29.2645C61.6236 29.442 61.9885 29.6377 62.3072 29.8516C62.6245 30.0655 62.925 30.3129 63.2046 30.5925L63.5695 31.2634C63.8127 31.7107 64.0084 32.0365 64.158 32.2419H64.1552ZM62.5281 44.8228C64.3984 40.5551 63.8085 36.901 60.7597 33.8635C60.311 33.8635 59.8987 33.7419 59.5254 33.5C59.3759 33.4818 59.0432 33.4399 58.5288 33.3742C58.0143 33.3085 57.6257 33.2484 57.3643 33.1925C56.3914 33.0066 55.5303 32.9884 54.7825 33.1366C52.8925 33.528 51.8274 34.3849 51.5841 35.7087C51.5646 35.8582 51.5003 36.2077 51.387 36.7571C51.2752 37.3064 51.2095 37.6559 51.1913 37.8055C51.1732 37.955 51.1354 38.3129 51.0795 38.8818C51.0236 39.4507 51.032 39.8184 51.1075 39.9861C51.2375 41.2722 51.5282 42.8 51.9769 44.5711C52.7625 45.6713 53.1651 46.2304 53.1833 46.2486C54.194 47.5164 55.5499 47.8981 57.2511 47.3948C58.8782 46.9098 60.6367 46.0529 62.5253 44.8228H62.5281Z" fill="#FACC15"/>
<path d="M88.6821 41.8313C88.8499 42.0172 88.9715 42.2087 89.047 42.4044C89.1211 42.6001 89.135 42.8196 89.0889 43.0614C89.0414 43.3032 88.9952 43.4905 88.9491 43.6205C88.9016 43.7505 88.8037 43.97 88.6542 44.2775C88.5046 44.5851 88.4109 44.7668 88.3732 44.8227C88.3173 45.1205 88.3732 45.811 88.5409 46.8916C88.6905 47.8058 88.6626 48.6529 88.4571 49.4357C88.0461 50.8895 86.9879 51.6163 85.2867 51.6163C80.6108 51.6163 77.4964 51.5884 75.9434 51.5325C74.1471 51.4766 72.5759 51.5884 71.2297 51.868C69.9758 52.1475 68.947 52.1294 68.1432 51.812C67.675 51.1592 67.5729 50.4421 67.8343 49.6593C68.0775 49.2498 68.4703 48.8486 69.0127 48.4572C69.2559 48.2712 69.6446 48.2237 70.1771 48.3174C70.7097 48.411 71.0606 48.439 71.2297 48.4012C71.2857 48.2153 71.3038 47.8323 71.2857 47.255C71.2675 46.6777 71.3597 46.3324 71.5666 46.2206C71.5485 46.1269 71.4212 45.913 71.1878 45.5776C70.9544 45.2421 70.911 44.9443 71.062 44.6829C71.1361 44.6647 71.2591 44.6508 71.4268 44.641C71.5946 44.6312 71.7162 44.627 71.7917 44.627C71.8099 44.4774 71.7735 44.3013 71.6799 44.0958C71.5862 43.8917 71.4925 43.7324 71.3989 43.6205L71.2591 43.4248C71.5764 43.2948 71.6701 43.0796 71.5401 42.7818C71.4087 42.4841 71.3444 41.8411 71.3444 40.8528C71.3444 40.6473 71.3765 40.0937 71.4422 39.1893C71.5079 38.2849 71.5023 37.7313 71.4282 37.5258C71.4101 37.3581 71.4003 36.2957 71.4003 34.3387C71.3248 34.245 71.2032 34.1108 71.0354 33.9333C70.8677 33.7558 70.7447 33.63 70.6706 33.5559C70.4078 33.5 70.0905 33.5321 69.7172 33.6537C69.3426 33.7754 69.1092 33.8452 69.0155 33.8634C68.2117 33.9193 67.6694 33.6216 67.3884 32.9688C66.9397 31.8882 66.8362 30.9936 67.0795 30.2849C67.2668 29.9116 67.6316 29.66 68.174 29.53C69.8948 29.0645 71.185 28.915 72.0461 29.0827C72.6444 29.1945 73.4957 29.1708 74.6 29.0128C75.7029 28.8549 76.4983 28.7934 76.9848 28.8311C77.4894 28.8688 78.2093 28.9052 79.1445 28.9429C79.575 28.9611 80.0042 29.1107 80.4347 29.3902C81.388 30.0053 81.6872 30.8538 81.3321 31.9344C81.2944 32.0839 81.2147 32.2936 81.0931 32.5634C80.9715 32.8332 80.9016 32.9967 80.882 33.0527C80.246 33.5 79.7218 33.8634 79.3108 34.143H77.235C76.7304 34.4407 76.4955 34.8042 76.5332 35.2333C76.5892 35.6806 76.5654 36.5571 76.4634 37.8613C76.3599 39.1655 76.4116 40.0518 76.6171 40.5173C76.6912 40.7409 76.729 41.0023 76.729 41.3001C76.729 41.5978 76.7192 41.8313 76.701 41.999C76.6828 42.1668 76.6353 42.4603 76.5612 42.8797C76.4857 43.299 76.4396 43.5465 76.4214 43.6205C76.3278 44.2538 76.3376 45.4559 76.4494 47.227C76.5053 47.2452 76.6409 47.3067 76.8562 47.4088C77.0714 47.5108 77.2154 47.5765 77.2909 47.6045C77.365 47.6324 77.4964 47.6744 77.6837 47.7303C77.871 47.7862 78.0248 47.8183 78.1464 47.8281C78.268 47.8379 78.4134 47.8379 78.5811 47.8281C78.7489 47.8183 78.9082 47.7862 79.0578 47.7303C79.2829 47.6366 79.5443 47.6282 79.8434 47.7023C80.9281 47.926 82.3023 47.8323 83.9671 47.4227C84.0412 47.3109 84.1027 47.1851 84.1488 47.0453C84.195 46.9055 84.2229 46.7895 84.2327 46.6958C84.2425 46.6022 84.2467 46.468 84.2467 46.2905V45.913C84.2844 44.7766 84.3585 43.7981 84.4717 42.9775C84.6213 42.0451 85.1735 41.4496 86.1268 41.1882C87.1375 40.9268 87.9874 41.1421 88.6807 41.8313H88.6821Z" fill="#FACC15"/>
<path d="M17.7879 66.4617C17.4692 66.7035 16.9925 67.0488 16.3565 67.4961C16.3383 67.5142 16.0755 67.3241 15.5709 66.9229C15.0663 66.5218 14.5603 66.094 14.0556 65.6369C13.551 65.1798 13.3078 64.896 13.3259 64.7842C13.3441 64.6906 13.3916 64.5424 13.4657 64.3369C13.5398 64.1314 13.5817 63.9734 13.5915 63.8616C13.6013 63.7498 13.5873 63.5443 13.5496 63.2466C13.4 63.0788 13.1093 62.7531 12.6801 62.2681C12.2496 61.7844 11.9127 61.4112 11.6695 61.1498C10.7525 60.9638 10.1444 60.8241 9.84524 60.7304C8.55501 60.3767 7.33886 60.6927 6.1982 61.6809C5.76766 62.0542 5.5426 62.4777 5.52443 62.953C5.50626 63.4283 5.70196 63.8518 6.11293 64.2251C6.71122 64.766 7.41295 65.1015 8.21673 65.2315C8.60953 65.3056 10.0871 65.6048 12.6494 66.1262C12.7053 66.1262 13.3175 66.4155 14.4876 66.9928C15.6562 67.5702 16.2698 67.8595 16.3258 67.8595C16.3439 68.1014 16.5215 68.4466 16.8583 68.8939C17.6244 69.9186 18.0885 71.0145 18.2478 72.1789C18.4072 73.3434 18.2995 74.4197 17.9249 75.408C17.5503 76.3963 16.9199 77.277 16.0308 78.05C15.1418 78.823 14.071 79.3598 12.8185 79.6575C10.7427 80.1426 8.33834 79.9469 5.6083 79.0704C5.45873 79.0327 5.01002 78.8565 4.26216 78.5392C4.15033 78.6133 3.99097 78.7252 3.78548 78.8747C3.58 79.0243 3.41645 79.1403 3.29483 79.2242C3.17322 79.3081 2.99988 79.4017 2.77622 79.5038C2.55117 79.6058 2.35966 79.6436 2.2017 79.6156C2.04234 79.5876 1.82288 79.5457 1.5419 79.4898C0.644472 78.9488 0.345329 78.036 0.644472 76.75C0.812217 76.0972 0.822002 75.1941 0.67243 74.0381C0.485115 72.6402 0.457158 71.6436 0.588558 71.0467C0.775872 70.2457 1.2148 69.5272 1.90675 68.8939C2.0004 68.838 2.42116 68.736 3.16902 68.5864C3.01945 68.4005 2.64063 67.9993 2.03256 67.3842C1.42448 66.7692 0.970176 66.2198 0.67243 65.7348C0.409631 65.1574 0.185972 63.8896 -0.00134277 61.9326C0.858346 59.9015 2.06471 58.3079 3.61774 57.1519C4.72066 56.3131 5.91863 55.8658 7.20886 55.8099C9.90255 55.6799 11.9686 55.9119 13.4098 56.5088C13.709 56.4907 14.1535 56.4292 14.742 56.3271C15.3305 56.2251 15.8267 56.1775 16.2293 56.1873C16.6319 56.1971 17.0009 56.295 17.3378 56.4809C18.4407 57.711 18.684 59.3046 18.0675 61.2616C18.2926 61.6348 18.4226 62.0402 18.4603 62.4777C18.498 62.9153 18.498 63.4143 18.4603 63.9734C18.4226 64.5326 18.4128 64.9617 18.4323 65.2595C18.4505 65.7068 18.2366 66.108 17.7865 66.4617H17.7879ZM5.55518 69.4251C5.27421 69.2951 4.87163 69.0799 4.34882 68.7821C4.08602 68.6325 3.72258 68.5766 3.25429 68.6144C3.38429 68.7444 3.59957 68.9778 3.90011 69.3133C3.90011 69.3692 3.89591 69.495 3.88613 69.6907C3.87634 69.8864 3.87634 70.0304 3.88613 70.1241C3.89591 70.2177 3.91409 70.3337 3.94204 70.4735C3.97 70.6133 4.02172 70.7349 4.09581 70.837C4.1699 70.939 4.27334 71.0369 4.40474 71.1305C4.4984 71.2046 4.56409 71.2885 4.60184 71.3821C4.63958 71.4758 4.66754 71.5876 4.68571 71.7176C4.70388 71.8476 4.72345 71.9511 4.74162 72.0252C4.85345 72.2307 4.86743 72.5466 4.78356 72.9757C4.69969 73.4049 4.66614 73.6747 4.68571 73.7865C4.77937 74.0101 4.98905 74.1499 5.31755 74.2058C5.64465 74.2618 5.82637 74.3834 5.86411 74.5693C5.86411 74.6448 5.82218 74.765 5.7383 74.9327C5.65443 75.1005 5.65863 75.2305 5.75228 75.3241C6.0696 75.3241 6.63993 75.5478 7.46327 75.9951C8.26705 75.7715 8.86673 75.7435 9.25954 75.9112C9.38954 75.9672 9.52653 76.0091 9.66632 76.0371C9.8061 76.065 9.93331 76.0888 10.0451 76.1069C10.157 76.1251 10.2982 76.1307 10.4659 76.1209C10.6336 76.1111 10.7553 76.1069 10.8307 76.1069C10.9062 76.1069 11.0418 76.0832 11.2375 76.0371C11.4346 75.9909 11.5548 75.963 11.6024 75.9532C11.6485 75.9434 11.7841 75.9112 12.0091 75.8553C12.2342 75.7994 12.3544 75.7715 12.374 75.7715C12.3922 75.8833 12.5236 75.8455 12.7668 75.6596C12.8604 75.566 12.8884 75.5101 12.8507 75.4919C13.4112 75.3423 13.8138 75.0963 14.057 74.751C14.3002 74.4057 14.4163 74.0199 14.4079 73.5908C14.3981 73.1616 14.3939 72.678 14.3939 72.137C14.1688 71.9511 13.8194 71.638 13.3413 71.2004C12.8646 70.7629 12.504 70.4414 12.2608 70.2359C11.3633 70.3296 10.7455 70.3659 10.4086 70.3477C10.0717 70.3296 9.55728 70.1702 8.86534 69.8725C8.51028 69.7229 7.94833 69.653 7.1823 69.6628C6.41487 69.6726 5.8725 69.5929 5.55518 69.4251Z" fill="#FACC15"/>
<path d="M40.8904 57.0679C42.2184 57.9067 42.7048 58.969 42.3498 60.2551C42.1625 60.9079 42.0688 61.8529 42.0688 63.0928C42.0688 64.3327 42.0213 65.2217 41.929 65.7627C41.8535 66.0982 41.69 66.3736 41.4384 66.5874C41.1854 66.8013 40.882 66.9271 40.527 66.9649C39.7036 67.0585 39.1431 66.6951 38.8439 65.8745C38.6566 65.3531 38.6189 64.5703 38.7321 63.5261C38.8439 62.6692 38.7419 61.7746 38.4232 60.8422C38.124 60.6004 37.8151 60.4186 37.4978 60.297C37.1791 60.1754 36.8282 60.1293 36.4452 60.1572C36.0622 60.1852 35.7616 60.2229 35.5478 60.2691C35.3325 60.3152 34.9774 60.4186 34.4812 60.5766C33.9849 60.7346 33.6634 60.8324 33.5139 60.8702C33.2888 61.523 33.2329 62.4539 33.3461 63.6659C33.4398 64.6542 33.4677 65.6411 33.43 66.6294C33.43 66.7594 33.4258 67.0026 33.416 67.3563C33.4062 67.7099 33.3978 67.9755 33.3881 68.153C33.3783 68.3306 33.3783 68.5626 33.3881 68.852C33.3978 69.1413 33.4202 69.4069 33.458 69.6488C33.4957 69.8906 33.5418 70.1338 33.5977 70.3757C33.6537 70.5993 33.6355 71.1864 33.5418 72.137C33.5236 72.3425 33.4901 72.636 33.444 73.0176C33.3964 73.3992 33.3643 73.6746 33.3461 73.8424C33.6075 74.4015 34.1038 75.1004 34.8335 75.9392C35.5254 75.6219 35.9881 75.4541 36.2229 75.4359C36.4564 75.4178 36.9568 75.51 37.7242 75.7155C37.7424 75.9392 37.8081 76.1586 37.9199 76.3725C38.0318 76.5864 38.1394 76.7597 38.2428 76.8897C38.3449 77.0197 38.4959 77.1972 38.6916 77.4209C38.8887 77.6446 39.0229 77.8025 39.0983 77.8962C39.0788 78.3058 38.9012 78.6888 38.5658 79.0424C38.4903 78.9684 38.3701 78.9166 38.2009 78.8887C38.0332 78.8607 37.9199 78.8188 37.864 78.7629C37.7145 78.8006 37.6012 78.9027 37.5271 79.0704C37.4517 79.2381 37.3398 79.3598 37.1903 79.4338C37.0029 79.4338 36.8534 79.4618 36.7415 79.5177C36.2928 79.7414 35.8064 79.8574 35.2822 79.8672C34.758 79.877 34.3708 79.8574 34.1177 79.8113C33.8647 79.7651 33.3839 79.6156 32.6723 79.3639C31.9608 79.1123 31.5499 78.9684 31.438 78.9306C30.2974 79.5079 29.4461 79.821 28.8855 79.8672C28.325 79.9133 27.2584 79.7693 25.6872 79.4338C25.6313 79.3779 25.4957 79.2381 25.2804 79.0145C25.0652 78.7908 24.8918 78.5951 24.7618 78.4274C24.8736 78.1855 24.9435 77.7606 24.9729 77.1553C25.0008 76.55 25.1183 76.0971 25.3238 75.7994C25.6984 75.2584 26.203 75.0166 26.839 75.0725C26.9327 75.0907 27.1004 75.1326 27.3437 75.1983C27.5869 75.264 27.7686 75.2962 27.8902 75.2962C28.0119 75.2962 28.2313 75.2584 28.55 75.1843C29.1106 74.6252 29.3175 73.8242 29.1679 72.78C28.9247 71.0089 28.8128 69.8347 28.831 69.2574C28.831 69.0896 28.8212 68.4144 28.803 67.2305C28.7835 66.0479 28.831 65.3713 28.9428 65.2035C29.3356 63.1529 29.1302 61.7746 28.325 61.0659C27.9503 60.8981 27.4317 60.8184 26.7678 60.8282C26.1038 60.838 25.5656 60.9442 25.1546 61.1497C25.061 61.3734 25.005 61.653 24.9869 61.9884C24.9673 62.3239 24.9729 62.693 25.0008 63.0928C25.0288 63.494 25.033 63.7777 25.0148 63.9455C24.9953 64.225 25.0008 64.6164 25.0288 65.1197C25.0568 65.6229 25.0707 65.9486 25.0707 66.0982C24.903 66.4896 24.766 66.7873 24.664 66.9928C24.5605 67.1983 24.4249 67.408 24.2572 67.6219C24.0894 67.8357 23.9063 67.9713 23.7106 68.0272C23.5149 68.0832 23.2661 68.1069 22.9669 68.0971C22.6678 68.0873 22.3113 68.0091 21.9004 67.8595C21.7885 67.7854 21.5635 67.6121 21.2266 67.3423C20.8897 67.0725 20.6185 66.853 20.413 66.6853C20.3012 65.9402 20.2453 65.1518 20.2453 64.3229C20.2453 63.4939 20.2691 62.5476 20.3152 61.4852C20.3613 60.4228 20.3851 59.6121 20.3851 59.0529C20.9456 58.2142 21.7885 57.3377 22.9096 56.4249C23.097 56.4068 23.5736 56.4068 24.3411 56.4249C25.1085 56.4431 25.5656 56.369 25.7152 56.2013C25.827 56.1454 26.0241 56.1356 26.3037 56.1733C28.6786 56.6025 31.1011 56.5927 33.5698 56.1454C33.9067 56.0894 34.4393 56.0992 35.1689 56.1733C35.9923 56.267 36.6465 56.267 37.1329 56.1733C38.3491 55.9315 39.6016 56.2292 40.8932 57.0679H40.8904Z" fill="#FACC15"/>
<path d="M68.0217 58.2982C68.0958 58.5777 68.0916 58.8294 68.0077 59.053C67.9238 59.2767 67.703 59.6024 67.3479 60.0315C67.1047 60.1615 66.6881 60.2133 66.0996 60.1853C65.5097 60.1573 65.0847 60.237 64.8233 60.4229C64.6919 60.5529 64.5899 60.7123 64.5144 60.8982C64.4389 61.0841 64.4026 61.2379 64.4026 61.3595C64.4026 61.4811 64.4068 61.6768 64.4166 61.9466C64.4264 62.2164 64.4305 62.3897 64.4305 62.4638C64.4305 64.4586 64.4487 67.4304 64.4865 71.3822C64.5046 72.7983 64.2334 74.28 63.6729 75.8274C63.4297 76.5362 63.0844 77.0855 62.6343 77.4769C60.6144 79.3039 58.6126 80.1231 56.6304 79.9372C56.5186 79.919 56.2936 79.891 55.9567 79.8533C55.6198 79.8156 55.3668 79.7932 55.199 79.7834C55.0313 79.7736 54.8104 79.7652 54.5392 79.7554C54.268 79.7457 54.015 79.7596 53.7816 79.7974C53.5481 79.8351 53.3189 79.8813 53.0938 79.9372C53.0561 79.9372 52.7849 79.919 52.2803 79.8813C52.1684 79.8072 52.0315 79.6674 51.8735 79.4619C51.7141 79.2578 51.5785 79.0985 51.4667 78.9866C51.3549 78.8748 51.176 78.7909 50.9341 78.735C50.6909 78.6791 50.4379 78.763 50.1765 78.9866C50.0087 78.8566 49.7655 78.6693 49.4468 78.4275C49.1281 78.1856 48.9422 78.0361 48.8863 77.9802C48.8108 77.8683 48.6947 77.5608 48.5354 77.0576C48.376 76.5543 48.1384 76.237 47.8197 76.107L47.8476 76.135H47.371V76.107C47.2955 76.0329 47.2354 75.9491 47.1892 75.8554C47.1417 75.7617 47.1138 75.6835 47.1054 75.6178C47.0956 75.5535 47.0914 75.4542 47.0914 75.3242V75.0726L47.7652 74.6532L47.0075 73.3672C47.1193 73.3294 47.213 73.2693 47.2885 73.1855C47.3626 73.1016 47.3821 73.0219 47.3444 72.9478C46.8579 72.0532 46.7363 70.9908 46.9796 69.7607C47.0173 69.5189 47.0313 69.3511 47.0215 69.2575C47.0117 69.1638 46.9935 68.9961 46.9656 68.7542C46.9376 68.5124 46.9236 68.3447 46.9236 68.251C46.9055 68.1392 46.9796 68.0092 47.1487 67.8596C47.3164 67.71 47.3738 67.5521 47.3164 67.3843C47.2983 67.3661 47.2549 67.3102 47.1906 67.2166C47.1249 67.1229 47.0732 67.0488 47.0369 66.9929C47.0369 66.6197 47.0606 65.9865 47.1068 65.0918C47.1529 64.1972 47.1669 63.4186 47.1487 62.7574C47.1305 62.0962 47.0369 61.4476 46.8677 60.8143C46.6804 60.7962 46.2834 60.8283 45.6754 60.9122C45.0673 60.9961 44.6605 60.9723 44.455 60.8423C44.0063 60.6368 43.7155 60.2454 43.5855 59.6681C43.4919 59.2208 43.5855 58.7175 43.8665 58.1584C44.5585 56.7983 45.4755 56.2195 46.6161 56.425C48.3369 56.7228 49.8801 56.6305 51.2459 56.1455C52.2369 55.7722 53.1344 55.81 53.9395 56.2573C54.0695 56.3328 54.2149 56.3929 54.3743 56.439C54.5336 56.4851 54.7293 56.5369 54.9628 56.5928C55.1962 56.6487 55.3794 56.6948 55.5094 56.7326C55.5653 56.9003 55.6631 57.1939 55.8043 57.6132C55.9441 58.0326 56.0517 58.3639 56.1272 58.6057C56.0154 58.8475 55.8798 59.1788 55.7204 59.5982C55.5611 60.0176 55.4534 60.2929 55.3975 60.4229C55.2857 60.5348 55.1725 60.6368 55.0606 60.7305C54.9488 60.8241 54.8216 60.8982 54.6818 60.9541C54.542 61.01 54.4344 61.0562 54.3589 61.0939C54.2834 61.1317 54.1576 61.1638 53.9801 61.1918C53.8026 61.2197 53.6949 61.2379 53.6572 61.2477C53.6194 61.2575 53.4978 61.2714 53.2923 61.2896H52.9554C52.3949 61.7747 52.1517 62.2583 52.2258 62.7434C52.2998 63.3585 52.3054 64.337 52.2397 65.6789C52.174 67.0209 52.1978 67.9994 52.3096 68.6144C52.3474 68.8004 52.3236 69.052 52.2397 69.3693C52.1559 69.6866 52.1139 69.8907 52.1139 69.9844C51.9825 70.7294 51.9644 71.5458 52.058 72.4306C52.1517 73.3155 52.4326 74.1039 52.8995 74.793C54.303 75.2781 55.2088 75.5856 55.6212 75.7156C55.9022 75.566 56.3788 75.492 57.0526 75.492C57.7264 75.492 58.231 75.4263 58.5679 75.2963C59.1284 74.8867 59.7463 74.1039 60.4201 72.9478C60.3264 72.5383 60.3362 71.9274 60.448 71.1166C60.5598 70.3059 60.5878 69.7146 60.5319 69.3413C60.476 68.9122 60.4662 68.2608 60.5039 67.3843C60.5417 66.5079 60.5221 65.8564 60.448 65.4273C60.3921 65.0541 60.2607 63.8617 60.0552 61.8488C59.8497 61.5314 59.4849 61.3036 58.9607 61.1638C58.4365 61.024 58.0814 60.88 57.8941 60.7305C57.4636 60.395 57.1644 59.9616 56.9967 59.4304C56.8289 58.8993 56.8192 58.382 56.9687 57.8788C57.286 56.9101 58.0535 56.4153 59.2696 56.3971C59.5869 56.3971 59.784 56.4069 59.8581 56.425C60.5501 56.6487 61.5509 56.7745 62.8607 56.8025C64.1691 56.8304 65.0121 56.8724 65.3853 56.9283C65.8158 56.9842 66.115 57.0303 66.2827 57.0681C66.4505 57.1058 66.6853 57.1701 66.9845 57.2638C67.2836 57.3574 67.5128 57.4874 67.6722 57.6552C67.8316 57.8229 67.9476 58.0368 68.0231 58.2982H68.0217Z" fill="#FACC15"/>
<path d="M89.7431 59.1368C89.8172 59.6219 89.8172 60.0133 89.7431 60.311C89.2385 62.5099 89.1546 64.2712 89.4901 65.595C89.1532 66.3037 88.6388 66.7133 87.9469 66.8251C86.8062 66.6196 86.1702 65.8368 86.0388 64.4767C86.0206 64.3648 86.0206 64.0014 86.0388 63.3863C86.0569 62.7713 86.0667 62.4078 86.0667 62.296V61.7089C86.0667 61.6152 86.0625 61.5509 86.0527 61.5132C86.043 61.4754 86.0346 61.4111 86.0248 61.3175C86.015 61.2238 86.001 61.1595 85.9829 61.1218C85.9647 61.084 85.9353 61.0281 85.899 60.954C85.8612 60.88 85.8291 60.8143 85.8011 60.7583C85.7732 60.7024 85.7312 60.6423 85.6753 60.5766C85.6194 60.5109 85.5635 60.4508 85.5076 60.3949C84.9652 60.0217 84.3669 59.8637 83.7113 59.9196C83.3003 59.9574 82.6629 60.0035 81.8032 60.0594C80.9421 60.1153 80.1803 60.1754 79.5163 60.2411C78.8523 60.3068 78.2205 60.4131 77.6222 60.5626C77.4167 60.954 77.2853 61.3832 77.2294 61.8487C77.1735 62.3142 77.1637 62.6874 77.2014 62.967C77.2392 63.2466 77.3175 63.6841 77.4405 64.281C77.5621 64.8779 77.6418 65.2595 77.6795 65.4272C78.4455 65.9305 79.2969 66.0241 80.232 65.7068C80.4934 65.3895 80.6067 64.9897 80.5689 64.5046C80.5312 64.0391 80.6066 63.7414 80.794 63.61C81.1309 63.3863 81.3028 63.083 81.3126 62.7014C81.3224 62.3198 81.2609 61.9605 81.1309 61.625C81.8605 60.9918 82.73 60.9918 83.7407 61.625C83.6652 62.0905 83.8008 62.6734 84.1474 63.3724C84.4927 64.0713 84.6842 64.5326 84.722 64.7562C84.6101 64.9799 84.455 65.0736 84.2593 65.0358C84.0636 64.9981 83.9084 64.9981 83.7966 65.0358C83.7211 65.1854 83.7407 65.3755 83.8525 65.6089C83.9643 65.8424 84.0119 66.0143 83.9923 66.1262L83.9643 67.4122C83.9825 68.7164 84.0664 69.6865 84.2173 70.3198C84.2914 70.6552 84.297 70.967 84.2313 71.2563C84.1656 71.5457 84.0356 71.8812 83.8385 72.2628C83.6428 72.6444 83.5254 72.9016 83.4877 73.0316C83.3563 73.4049 83.099 73.6705 82.716 73.8284C82.333 73.9864 81.8969 74.0199 81.4118 73.9263C80.5144 73.1994 80.1496 72.3047 80.3173 71.2424C80.3914 70.795 80.397 70.5015 80.3313 70.3617C80.2656 70.2219 80.0265 69.9941 79.6156 69.6767C79.5778 69.639 79.5457 69.6068 79.5177 69.5789C79.4898 69.5509 79.4562 69.5272 79.4199 69.509C78.9152 69.4908 78.4987 69.6767 78.1716 70.0681C77.8445 70.4595 77.7173 70.9348 77.7927 71.494C77.8109 71.5876 77.8445 71.7875 77.8906 72.0951C77.9367 72.4026 77.9647 72.6262 77.9745 72.766C77.9843 72.9058 77.9982 73.0973 78.0164 73.3392C78.0346 73.581 78.0346 73.8004 78.0164 73.9962C77.9982 74.1919 77.9689 74.3918 77.9325 74.5972C78.3994 74.765 78.7363 74.8447 78.9432 74.8349C79.1487 74.8251 79.4576 74.7552 79.8686 74.6252C80.2795 74.4952 80.5885 74.4197 80.794 74.4015C81.5796 74.7748 82.1401 75.0348 82.477 75.1843C82.8502 75.5198 83.0753 76.0552 83.1508 76.7919C83.2249 77.5286 83.3381 78.0178 83.4877 78.2596C82.4588 79.4157 81.1211 79.9748 79.4758 79.9371C79.1389 79.9371 78.5825 79.9511 77.8067 79.979C77.0309 80.007 76.3515 80.007 75.7728 79.979C75.1927 79.9511 74.6405 79.863 74.1177 79.7134C73.7431 79.6198 73.2944 79.6393 72.7716 79.7694C70.9753 80.3103 69.5258 79.8812 68.4228 78.4833C68.4228 78.4456 68.3851 78.3016 68.311 78.05C68.2355 77.7984 68.1894 77.5985 68.1712 77.4489C68.1153 76.5724 68.2691 75.9112 68.6339 75.4639C68.9988 75.0166 69.6208 74.7468 70.5001 74.6531C70.6119 74.635 70.7433 74.621 70.8929 74.6112C71.0424 74.6014 71.1501 74.593 71.2158 74.5833C71.2815 74.5735 71.3653 74.5595 71.4688 74.5413C71.5708 74.5231 71.6463 74.5092 71.6938 74.4994C71.74 74.4896 71.8015 74.4756 71.8756 74.4575C71.9497 74.4393 72.0056 74.4197 72.0433 74.4015C72.0811 74.3834 72.1272 74.3638 72.1831 74.3456C72.239 74.3274 72.2991 74.2995 72.3648 74.2617C72.4305 74.224 72.4906 74.1821 72.5465 74.1359C72.6025 74.0898 72.6765 74.0381 72.7716 73.9822C72.8275 73.553 72.8555 73.3112 72.8555 73.2553C72.78 72.7898 72.7297 72.3229 72.7017 71.8574C72.6738 71.3919 72.6696 70.8789 72.6877 70.3198C72.7059 69.7606 72.7255 69.3175 72.7436 68.9918C72.7618 68.6661 72.8037 68.1489 72.8694 67.4402C72.9351 66.7314 72.9771 66.2659 72.9953 66.0423C73.033 65.8564 73.033 65.6607 72.9953 65.4552C72.7898 64.1873 72.8918 62.9949 73.3042 61.8766C73.1728 61.3175 72.8555 60.8702 72.3508 60.5347C72.088 60.4606 71.7526 60.4927 71.3402 60.6325C70.9292 60.7723 70.6566 60.8422 70.5266 60.8422C69.871 60.6367 69.358 60.1055 68.9834 59.2486C68.7401 58.6518 68.81 58.0143 69.1945 57.3336C69.5775 56.6528 70.124 56.2111 70.8356 56.0056C71.7148 55.7638 72.6318 55.7638 73.5852 56.0056C75.25 56.4152 77.2881 56.5088 79.7022 56.2852C81.2916 56.1552 83.0124 56.0895 84.8646 56.0895C86.0052 56.0895 87.3891 56.6486 89.0176 57.7669C89.3909 58.0283 89.6355 58.484 89.7473 59.1368H89.7431Z" fill="#FACC15"/>
<path d="M111.781 59.1368C111.855 59.6219 111.855 60.0133 111.781 60.311C111.276 62.5099 111.192 64.2712 111.528 65.595C111.191 66.3037 110.676 66.7133 109.984 66.8251C108.844 66.6196 108.208 65.8368 108.076 64.4767C108.058 64.3648 108.058 64.0014 108.076 63.3863C108.094 62.7713 108.104 62.4078 108.104 62.296V61.7089C108.104 61.6152 108.1 61.5509 108.09 61.5132C108.08 61.4754 108.072 61.4111 108.062 61.3175C108.052 61.2238 108.038 61.1595 108.02 61.1218C108.002 61.084 107.973 61.0281 107.936 60.954C107.899 60.88 107.867 60.8143 107.839 60.7583C107.811 60.7024 107.769 60.6423 107.713 60.5766C107.657 60.5109 107.601 60.4508 107.545 60.3949C107.003 60.0217 106.404 59.8637 105.749 59.9196C105.338 59.9574 104.7 60.0035 103.841 60.0594C102.98 60.1153 102.218 60.1754 101.554 60.2411C100.89 60.3068 100.258 60.4131 99.6596 60.5626C99.4541 60.954 99.3227 61.3832 99.2668 61.8487C99.2109 62.3142 99.2011 62.6874 99.2389 62.967C99.2766 63.2466 99.3549 63.6841 99.4779 64.281C99.5995 64.8779 99.6792 65.2595 99.7169 65.4272C100.483 65.9305 101.334 66.0241 102.269 65.7068C102.531 65.3895 102.644 64.9897 102.606 64.5046C102.569 64.0391 102.644 63.7414 102.831 63.61C103.168 63.3863 103.34 63.083 103.35 62.7014C103.36 62.3198 103.298 61.9605 103.168 61.625C103.898 60.9918 104.767 60.9918 105.778 61.625C105.703 62.0905 105.838 62.6734 106.185 63.3724C106.53 64.0713 106.722 64.5326 106.759 64.7562C106.648 64.9799 106.492 65.0736 106.297 65.0358C106.101 64.9981 105.946 64.9981 105.834 65.0358C105.759 65.1854 105.778 65.3755 105.89 65.6089C106.002 65.8424 106.049 66.0143 106.03 66.1262L106.002 67.4122C106.02 68.7164 106.104 69.6865 106.255 70.3198C106.329 70.6552 106.334 70.967 106.269 71.2563C106.203 71.5457 106.073 71.8812 105.876 72.2628C105.68 72.6444 105.563 72.9016 105.525 73.0316C105.394 73.4049 105.136 73.6705 104.753 73.8284C104.37 73.9864 103.934 74.0199 103.449 73.9263C102.552 73.1994 102.187 72.3047 102.355 71.2424C102.429 70.795 102.434 70.5015 102.369 70.3617C102.303 70.2219 102.064 69.9941 101.653 69.6767C101.615 69.639 101.583 69.6068 101.555 69.5789C101.527 69.5509 101.494 69.5272 101.457 69.509C100.953 69.4908 100.536 69.6767 100.209 70.0681C99.8819 70.4595 99.7547 70.9348 99.8302 71.494C99.8483 71.5876 99.8819 71.7875 99.928 72.0951C99.9741 72.4026 100.002 72.6262 100.012 72.766C100.022 72.9058 100.036 73.0973 100.054 73.3392C100.072 73.581 100.072 73.8004 100.054 73.9962C100.036 74.1919 100.006 74.3918 99.9699 74.5972C100.437 74.765 100.774 74.8447 100.981 74.8349C101.186 74.8251 101.495 74.7552 101.906 74.6252C102.317 74.4952 102.626 74.4197 102.831 74.4015C103.617 74.7748 104.178 75.0348 104.514 75.1843C104.888 75.5198 105.113 76.0552 105.188 76.7919C105.262 77.5286 105.376 78.0178 105.525 78.2596C104.496 79.4157 103.158 79.9748 101.513 79.9371C101.176 79.9371 100.62 79.9511 99.8441 79.979C99.0683 80.007 98.389 80.007 97.8102 79.979C97.2301 79.9511 96.678 79.863 96.1552 79.7134C95.7805 79.6198 95.3318 79.6393 94.809 79.7694C93.0127 80.3103 91.5632 79.8812 90.4602 78.4833C90.4602 78.4456 90.4225 78.3016 90.3484 78.05C90.2729 77.7984 90.2268 77.5985 90.2086 77.4489C90.1527 76.5724 90.3065 75.9112 90.6713 75.4639C91.0362 75.0166 91.6582 74.7468 92.5375 74.6531C92.6493 74.635 92.7807 74.621 92.9303 74.6112C93.0798 74.6014 93.1875 74.593 93.2532 74.5833C93.3189 74.5735 93.4028 74.5595 93.5062 74.5413C93.6082 74.5231 93.6837 74.5092 93.7313 74.4994C93.7774 74.4896 93.8389 74.4756 93.913 74.4575C93.9871 74.4393 94.043 74.4197 94.0807 74.4015C94.1185 74.3834 94.1646 74.3638 94.2205 74.3456C94.2764 74.3274 94.3365 74.2995 94.4022 74.2617C94.4679 74.224 94.528 74.1821 94.584 74.1359C94.6399 74.0898 94.714 74.0381 94.809 73.9822C94.8649 73.553 94.8929 73.3112 94.8929 73.2553C94.8174 72.7898 94.7671 72.3229 94.7391 71.8574C94.7112 71.3919 94.707 70.8789 94.7251 70.3198C94.7433 69.7606 94.7629 69.3175 94.7811 68.9918C94.7992 68.6661 94.8412 68.1489 94.9069 67.4402C94.9726 66.7314 95.0145 66.2659 95.0327 66.0423C95.0704 65.8564 95.0704 65.6607 95.0327 65.4552C94.8272 64.1873 94.9292 62.9949 95.3416 61.8766C95.2102 61.3175 94.8929 60.8702 94.3882 60.5347C94.1255 60.4606 93.79 60.4927 93.3776 60.6325C92.9666 60.7723 92.694 60.8422 92.564 60.8422C91.9084 60.6367 91.3954 60.1055 91.0208 59.2486C90.7776 58.6518 90.8475 58.0143 91.2319 57.3336C91.6149 56.6528 92.1615 56.2111 92.873 56.0056C93.7522 55.7638 94.6692 55.7638 95.6226 56.0056C97.2874 56.4152 99.3255 56.5088 101.74 56.2852C103.329 56.1552 105.05 56.0895 106.902 56.0895C108.043 56.0895 109.427 56.6486 111.055 57.7669C111.428 58.0283 111.673 58.484 111.785 59.1368H111.781Z" fill="#FACC15"/>
<path d="M68.0217 58.2982C68.0958 58.5777 68.0916 58.8294 68.0077 59.053C67.9238 59.2767 67.703 59.6024 67.3479 60.0315C67.1047 60.1615 66.6881 60.2133 66.0996 60.1853C65.5097 60.1573 65.0847 60.237 64.8233 60.4229C64.6919 60.5529 64.5899 60.7123 64.5144 60.8982C64.4389 61.0841 64.4026 61.2379 64.4026 61.3595C64.4026 61.4811 64.4068 61.6768 64.4166 61.9466C64.4264 62.2164 64.4305 62.3897 64.4305 62.4638C64.4305 64.4586 64.4487 67.4304 64.4865 71.3822C64.5046 72.7983 64.2334 74.28 63.6729 75.8274C63.4297 76.5362 63.0844 77.0855 62.6343 77.4769C60.6144 79.3039 58.6126 80.1231 56.6304 79.9372C56.5186 79.919 56.2936 79.891 55.9567 79.8533C55.6198 79.8156 55.3668 79.7932 55.199 79.7834C55.0313 79.7736 54.8104 79.7652 54.5392 79.7554C54.268 79.7457 54.015 79.7596 53.7816 79.7974C53.5481 79.8351 53.3189 79.8813 53.0938 79.9372C53.0561 79.9372 52.7849 79.919 52.2803 79.8813C52.1684 79.8072 52.0315 79.6674 51.8735 79.4619C51.7141 79.2578 51.5785 79.0985 51.4667 78.9866C51.3549 78.8748 51.176 78.7909 50.9341 78.735C50.6909 78.6791 50.4379 78.763 50.1765 78.9866C50.0087 78.8566 49.7655 78.6693 49.4468 78.4275C49.1281 78.1856 48.9422 78.0361 48.8863 77.9802C48.8108 77.8683 48.6947 77.5608 48.5354 77.0576C48.376 76.5543 48.1384 76.237 47.8197 76.107L47.8476 76.135H47.371V76.107C47.2955 76.0329 47.2354 75.9491 47.1892 75.8554C47.1417 75.7617 47.1138 75.6835 47.1054 75.6178C47.0956 75.5535 47.0914 75.4542 47.0914 75.3242V75.0726L47.7652 74.6532L47.0075 73.3672C47.1193 73.3294 47.213 73.2693 47.2885 73.1855C47.3626 73.1016 47.3821 73.0219 47.3444 72.9478C46.8579 72.0532 46.7363 70.9908 46.9796 69.7607C47.0173 69.5189 47.0313 69.3511 47.0215 69.2575C47.0117 69.1638 46.9935 68.9961 46.9656 68.7542C46.9376 68.5124 46.9236 68.3447 46.9236 68.251C46.9055 68.1392 46.9796 68.0092 47.1487 67.8596C47.3164 67.71 47.3738 67.5521 47.3164 67.3843C47.2983 67.3661 47.2549 67.3102 47.1906 67.2166C47.1249 67.1229 47.0732 67.0488 47.0369 66.9929C47.0369 66.6197 47.0606 65.9865 47.1068 65.0918C47.1529 64.1972 47.1669 63.4186 47.1487 62.7574C47.1305 62.0962 47.0369 61.4476 46.8677 60.8143C46.6804 60.7962 46.2834 60.8283 45.6754 60.9122C45.0673 60.9961 44.6605 60.9723 44.455 60.8423C44.0063 60.6368 43.7155 60.2454 43.5855 59.6681C43.4919 59.2208 43.5855 58.7175 43.8665 58.1584C44.5585 56.7983 45.4755 56.2195 46.6161 56.425C48.3369 56.7228 49.8801 56.6305 51.2459 56.1455C52.2369 55.7722 53.1344 55.81 53.9395 56.2573C54.0695 56.3328 54.2149 56.3929 54.3743 56.439C54.5336 56.4851 54.7293 56.5369 54.9628 56.5928C55.1962 56.6487 55.3794 56.6948 55.5094 56.7326C55.5653 56.9003 55.6631 57.1939 55.8043 57.6132C55.9441 58.0326 56.0517 58.3639 56.1272 58.6057C56.0154 58.8475 55.8798 59.1788 55.7204 59.5982C55.5611 60.0176 55.4534 60.2929 55.3975 60.4229C55.2857 60.5348 55.1725 60.6368 55.0606 60.7305C54.9488 60.8241 54.8216 60.8982 54.6818 60.9541C54.542 61.01 54.4344 61.0562 54.3589 61.0939C54.2834 61.1317 54.1576 61.1638 53.9801 61.1918C53.8026 61.2197 53.6949 61.2379 53.6572 61.2477C53.6194 61.2575 53.4978 61.2714 53.2923 61.2896H52.9554C52.3949 61.7747 52.1517 62.2583 52.2258 62.7434C52.2998 63.3585 52.3054 64.337 52.2397 65.6789C52.174 67.0209 52.1978 67.9994 52.3096 68.6144C52.3474 68.8004 52.3236 69.052 52.2397 69.3693C52.1559 69.6866 52.1139 69.8907 52.1139 69.9844C51.9825 70.7294 51.9644 71.5458 52.058 72.4306C52.1517 73.3155 52.4326 74.1039 52.8995 74.793C54.303 75.2781 55.2088 75.5856 55.6212 75.7156C55.9022 75.566 56.3788 75.492 57.0526 75.492C57.7264 75.492 58.231 75.4263 58.5679 75.2963C59.1284 74.8867 59.7463 74.1039 60.4201 72.9478C60.3264 72.5383 60.3362 71.9274 60.448 71.1166C60.5598 70.3059 60.5878 69.7146 60.5319 69.3413C60.476 68.9122 60.4662 68.2608 60.5039 67.3843C60.5417 66.5079 60.5221 65.8564 60.448 65.4273C60.3921 65.0541 60.2607 63.8617 60.0552 61.8488C59.8497 61.5314 59.4849 61.3036 58.9607 61.1638C58.4365 61.024 58.0814 60.88 57.8941 60.7305C57.4636 60.395 57.1644 59.9616 56.9967 59.4304C56.8289 58.8993 56.8192 58.382 56.9687 57.8788C57.286 56.9101 58.0535 56.4153 59.2696 56.3971C59.5869 56.3971 59.784 56.4069 59.8581 56.425C60.5501 56.6487 61.5509 56.7745 62.8607 56.8025C64.1691 56.8304 65.0121 56.8724 65.3853 56.9283C65.8158 56.9842 66.115 57.0303 66.2827 57.0681C66.4505 57.1058 66.6853 57.1701 66.9845 57.2638C67.2836 57.3574 67.5128 57.4874 67.6722 57.6552C67.8316 57.8229 67.9476 58.0368 68.0231 58.2982H68.0217Z" fill="#FACC15"/>
</g>
<defs>
<clipPath id="clip0_3_2215">
<rect width="123.464" height="80" fill="white"/>
</clipPath>
</defs>
</svg>
