<svg width="64" height="49" viewBox="0 0 64 49" fill="none" xmlns="http://www.w3.org/2000/svg">
<g clip-path="url(#clip0_3_2558)">
<path d="M12.2243 48.3279V45.15C12.2429 44.8827 12.2044 44.6145 12.1112 44.3633C12.018 44.1121 11.8723 43.8837 11.6839 43.6932C11.4954 43.5028 11.2685 43.3547 11.0183 43.2589C10.7681 43.163 10.5004 43.1216 10.2329 43.1374C9.88288 43.1146 9.53312 43.1861 9.22013 43.3445C8.90713 43.5029 8.64234 43.7423 8.45336 44.0378C8.28112 43.7511 8.03477 43.5161 7.74023 43.3577C7.44569 43.1993 7.11387 43.1232 6.77972 43.1374C6.48844 43.1228 6.19839 43.1845 5.93828 43.3164C5.67818 43.4483 5.45703 43.6459 5.29675 43.8895V43.2646H4.19507V48.3279H5.30729V45.5207C5.28324 45.3475 5.29786 45.1711 5.35008 45.0042C5.4023 44.8374 5.49083 44.6841 5.60932 44.5555C5.72781 44.4269 5.87331 44.3261 6.03537 44.2604C6.19744 44.1947 6.37205 44.1657 6.54665 44.1755C7.27753 44.1755 7.64833 44.6522 7.64833 45.5102V48.3279H8.76055V45.5207C8.73831 45.3479 8.75418 45.1722 8.80707 45.0061C8.85996 44.84 8.94857 44.6875 9.06669 44.5593C9.1848 44.4311 9.32955 44.3303 9.49077 44.264C9.65198 44.1977 9.82576 44.1675 9.99989 44.1755C10.7519 44.1755 11.1121 44.6522 11.1121 45.5102V48.3279H12.2243ZM28.6852 43.2646H26.8845V41.7286H25.7723V43.2646H24.7448V44.2709H25.7723V46.5801C25.7723 47.7558 26.2278 48.455 27.5307 48.455C28.0174 48.4564 28.4947 48.3206 28.9077 48.063L28.5899 47.1203C28.2945 47.2965 27.9592 47.3949 27.6154 47.4063C27.0646 47.4063 26.8845 47.0672 26.8845 46.5589V44.2709H28.6852V43.2646ZM38.0809 43.1374C37.8123 43.1295 37.5466 43.1942 37.3117 43.3247C37.0768 43.4552 36.8815 43.6467 36.7463 43.8789V43.2646H35.6552V48.3279H36.7568V45.489C36.7568 44.6522 37.117 44.1861 37.8374 44.1861C38.073 44.1829 38.3069 44.2261 38.5258 44.3132L38.8648 43.2751C38.6132 43.1851 38.3481 43.1385 38.0809 43.1374ZM23.8762 43.6671C23.2527 43.2963 22.5357 43.1125 21.8106 43.1374C20.5289 43.1374 19.7027 43.7518 19.7027 44.7581C19.7027 45.5844 20.3171 46.0928 21.4504 46.2517L21.9695 46.3258C22.5733 46.4104 22.8593 46.5694 22.8593 46.8554C22.8593 47.2473 22.4567 47.4698 21.7047 47.4698C21.0998 47.4872 20.5065 47.3007 20.0205 46.9401L19.5015 47.7982C20.1431 48.2463 20.9117 48.4766 21.6941 48.455C23.1559 48.455 24.0032 47.7664 24.0032 46.8025C24.0032 45.9127 23.336 45.4466 22.2344 45.2877L21.7154 45.2135C21.2386 45.15 20.8573 45.0548 20.8573 44.7158C20.8573 44.345 21.2174 44.1225 21.8212 44.1225C22.3757 44.1309 22.9189 44.2804 23.3996 44.5568L23.8762 43.6671ZM53.3873 43.1374C53.1187 43.1295 52.8529 43.1942 52.618 43.3247C52.3831 43.4552 52.1878 43.6467 52.0526 43.8789V43.2646H50.9616V48.3279H52.0631V45.489C52.0631 44.6522 52.4233 44.1861 53.1436 44.1861C53.3792 44.1829 53.6132 44.2261 53.8322 44.3132L54.1712 43.2751C53.9196 43.1851 53.6545 43.1385 53.3873 43.1374ZM39.1931 45.7961C39.1785 46.1528 39.2387 46.5086 39.3698 46.8407C39.5009 47.1727 39.7001 47.4736 39.9545 47.7241C40.209 47.9745 40.513 48.1689 40.8471 48.2948C41.1812 48.4207 41.5379 48.4753 41.8943 48.455C42.5557 48.4882 43.2056 48.2728 43.7162 47.8511L43.1866 46.9613C42.8057 47.2517 42.3414 47.4114 41.8625 47.4168C41.4497 47.3918 41.062 47.2101 40.7785 46.9089C40.4951 46.6078 40.3372 46.2098 40.3372 45.7962C40.3372 45.3826 40.4951 44.9846 40.7785 44.6834C41.062 44.3822 41.4497 44.2006 41.8625 44.1755C42.3414 44.1809 42.8057 44.3407 43.1866 44.6311L43.7162 43.7412C43.2055 43.3196 42.5557 43.1042 41.8943 43.1374C41.5379 43.1172 41.1812 43.1717 40.8471 43.2976C40.5131 43.4235 40.209 43.6179 39.9546 43.8683C39.7002 44.1187 39.501 44.4196 39.3698 44.7516C39.2387 45.0836 39.1785 45.4394 39.1931 45.7961ZM49.5104 45.7961V43.2646H48.4087V43.8789C48.2207 43.6366 47.9773 43.4428 47.6991 43.3138C47.4208 43.1848 47.1157 43.1244 46.8092 43.1374C46.1266 43.1709 45.483 43.4657 45.0118 43.9606C44.5405 44.4556 44.2776 45.1128 44.2776 45.7962C44.2776 46.4796 44.5405 47.1369 45.0118 47.6319C45.483 48.1268 46.1266 48.4215 46.8092 48.455C47.1157 48.4681 47.4208 48.4076 47.6991 48.2785C47.9774 48.1495 48.2207 47.9557 48.4087 47.7134V48.3279H49.5104V45.7961ZM45.411 45.7961C45.4281 45.4973 45.5322 45.2101 45.7106 44.9698C45.889 44.7295 46.1338 44.5467 46.4149 44.4438C46.6959 44.341 47.0009 44.3227 47.2923 44.3911C47.5836 44.4596 47.8486 44.6118 48.0544 44.829C48.2603 45.0462 48.3981 45.319 48.4508 45.6136C48.5035 45.9082 48.4689 46.2117 48.3511 46.4869C48.2334 46.762 48.0377 46.9967 47.7882 47.1619C47.5387 47.3272 47.2463 47.4158 46.947 47.4168C46.7372 47.4197 46.5291 47.379 46.3359 47.2975C46.1426 47.2159 45.9683 47.0952 45.824 46.9429C45.6797 46.7906 45.5685 46.6101 45.4974 46.4127C45.4263 46.2154 45.3969 46.0054 45.411 45.7961ZM32.1173 43.1374C31.4303 43.1736 30.784 43.4744 30.314 43.9768C29.844 44.4792 29.5869 45.144 29.5964 45.8319C29.606 46.5198 29.8817 47.1772 30.3655 47.6663C30.8493 48.1553 31.5037 48.438 32.1915 48.455C32.9472 48.4815 33.6863 48.2288 34.2676 47.7452L33.7273 46.9296C33.309 47.2648 32.791 47.4512 32.255 47.4592C31.891 47.4898 31.5293 47.3776 31.2466 47.1463C30.9639 46.9149 30.7823 46.5827 30.7402 46.2198H34.5007C34.5112 46.0822 34.5218 45.9445 34.5218 45.7961C34.5113 44.2179 33.5367 43.1374 32.1173 43.1374ZM32.0961 44.1225C32.4288 44.1161 32.7506 44.2418 32.9908 44.4721C33.2311 44.7024 33.3702 45.0186 33.3778 45.3513H30.7508C30.7702 45.0114 30.9217 44.6925 31.1731 44.4629C31.4245 44.2332 31.7558 44.1111 32.0961 44.1225ZM59.7322 45.7961V41.2308H58.6306V43.8789C58.4426 43.6366 58.1992 43.4428 57.9209 43.3138C57.6427 43.1848 57.3376 43.1244 57.0311 43.1374C56.3485 43.1709 55.7049 43.4656 55.2336 43.9606C54.7623 44.4555 54.4994 45.1128 54.4994 45.7962C54.4994 46.4797 54.7623 47.1369 55.2336 47.6319C55.7049 48.1268 56.3485 48.4215 57.0311 48.455C57.3376 48.4681 57.6427 48.4076 57.921 48.2785C58.1992 48.1495 58.4426 47.9557 58.6306 47.7134V48.3279H59.7322V45.7961ZM61.5686 47.5941C61.637 47.5936 61.7048 47.6071 61.7679 47.6336C61.8285 47.6589 61.8838 47.6955 61.9307 47.7415C61.9773 47.7874 62.0145 47.8418 62.0404 47.9018C62.0669 47.9635 62.0806 48.0299 62.0806 48.097C62.0806 48.1642 62.0669 48.2306 62.0404 48.2923C62.0144 48.352 61.9772 48.4062 61.9307 48.452C61.8837 48.498 61.8285 48.5347 61.7679 48.5604C61.705 48.5874 61.6371 48.6011 61.5686 48.6006C61.4678 48.6016 61.369 48.5729 61.2844 48.5181C61.1999 48.4632 61.1334 48.3847 61.0932 48.2923C61.0668 48.2306 61.0531 48.1642 61.0531 48.097C61.0531 48.0299 61.0668 47.9635 61.0932 47.9018C61.119 47.8419 61.1561 47.7875 61.2024 47.7415C61.2493 47.6952 61.3048 47.6585 61.3658 47.6336C61.4301 47.607 61.4991 47.5935 61.5686 47.5941ZM61.5686 48.4896C61.6208 48.49 61.6725 48.4795 61.7204 48.4588C61.7664 48.4388 61.8083 48.4103 61.8437 48.3749C61.9168 48.301 61.9579 48.2012 61.9579 48.0973C61.9579 47.9933 61.9168 47.8936 61.8437 47.8197C61.8083 47.7844 61.7665 47.7561 61.7204 47.7366C61.6725 47.7162 61.6208 47.7059 61.5686 47.7063C61.5155 47.7059 61.4629 47.7162 61.4139 47.7366C61.3671 47.7558 61.3246 47.7841 61.2887 47.8197C61.2155 47.8936 61.1744 47.9933 61.1744 48.0973C61.1744 48.2012 61.2155 48.301 61.2887 48.3749C61.3246 48.4106 61.3671 48.4391 61.4139 48.4588C61.4628 48.4795 61.5155 48.4899 61.5686 48.4896ZM61.5982 47.8617C61.6478 47.8585 61.6969 47.8727 61.7371 47.9018C61.7531 47.915 61.7658 47.9317 61.7743 47.9507C61.7827 47.9696 61.7866 47.9903 61.7858 48.011C61.7863 48.0287 61.7831 48.0464 61.7765 48.0629C61.7698 48.0793 61.7597 48.0942 61.7469 48.1065C61.7163 48.1337 61.6774 48.15 61.6365 48.1528L61.7895 48.3292H61.6698L61.528 48.154H61.4823V48.3292H61.3824V47.8617H61.5982ZM61.4823 47.9493V48.0739H61.5971C61.6191 48.075 61.641 48.0696 61.66 48.0584C61.6677 48.0533 61.6739 48.0462 61.678 48.0378C61.6821 48.0295 61.684 48.0203 61.6834 48.011C61.6839 48.0019 61.682 47.9928 61.6779 47.9847C61.6738 47.9766 61.6676 47.9696 61.66 47.9646C61.641 47.9536 61.6191 47.9482 61.5971 47.9493H61.4823ZM55.6329 45.7961C55.65 45.4973 55.7542 45.2101 55.9326 44.9698C56.111 44.7296 56.3558 44.5468 56.6369 44.444C56.9179 44.3412 57.2229 44.3229 57.5142 44.3913C57.8055 44.4598 58.0705 44.612 58.2763 44.8292C58.4821 45.0464 58.6199 45.3191 58.6726 45.6137C58.7253 45.9083 58.6907 46.2119 58.5729 46.487C58.4552 46.7621 58.2595 46.9967 58.01 47.162C57.7605 47.3272 57.4681 47.4158 57.1688 47.4168C56.959 47.4196 56.751 47.379 56.5577 47.2974C56.3645 47.2158 56.1902 47.0951 56.0459 46.9429C55.9016 46.7906 55.7904 46.6101 55.7193 46.4127C55.6483 46.2153 55.6188 46.0054 55.6329 45.7961ZM18.4316 45.7961V43.2646H17.3299V43.8789C17.1419 43.6366 16.8986 43.4428 16.6203 43.3138C16.342 43.1848 16.0369 43.1244 15.7304 43.1374C15.0478 43.1709 14.4042 43.4657 13.933 43.9606C13.4617 44.4556 13.1988 45.1128 13.1988 45.7962C13.1988 46.4796 13.4617 47.1369 13.933 47.6319C14.4042 48.1268 15.0478 48.4215 15.7304 48.455C16.0369 48.4681 16.342 48.4076 16.6203 48.2785C16.8986 48.1495 17.1419 47.9557 17.3299 47.7134V48.3279H18.4316V45.7961ZM14.3323 45.7961C14.3494 45.4973 14.4536 45.2101 14.632 44.9698C14.8104 44.7296 15.0552 44.5468 15.3362 44.444C15.6173 44.3412 15.9223 44.3229 16.2136 44.3913C16.5049 44.4598 16.7698 44.612 16.9757 44.8292C17.1815 45.0464 17.3193 45.3192 17.372 45.6137C17.4247 45.9083 17.39 46.2119 17.2723 46.487C17.1545 46.7621 16.9588 46.9967 16.7093 47.162C16.4598 47.3272 16.1674 47.4158 15.8682 47.4168C15.6584 47.4196 15.4503 47.379 15.2571 47.2974C15.0638 47.2158 14.8895 47.0951 14.7452 46.9429C14.6009 46.7906 14.4898 46.6101 14.4187 46.4127C14.3476 46.2153 14.3182 46.0054 14.3323 45.7961Z" fill="#231F20"/>
<path d="M40.196 4.67761H23.5103V34.6622H40.196V4.67761Z" fill="#FF5F00"/>
<path d="M24.5702 19.6699C24.5675 16.7822 25.2219 13.9317 26.4838 11.3343C27.7456 8.73682 29.5819 6.46049 31.8535 4.67762C29.0404 2.46644 25.662 1.09134 22.1043 0.709495C18.5466 0.327645 14.9532 0.954455 11.735 2.51828C8.51666 4.0821 5.80327 6.51983 3.90492 9.55286C2.00658 12.5859 0.999878 16.0918 0.999878 19.6699C0.999878 23.2481 2.00658 26.754 3.90492 29.787C5.80327 32.8201 8.51666 35.2578 11.735 36.8216C14.9532 38.3854 18.5466 39.0122 22.1043 38.6304C25.662 38.2485 29.0404 36.8734 31.8535 34.6623C29.5819 32.8794 27.7457 30.6031 26.4838 28.0056C25.2219 25.4082 24.5676 22.5577 24.5702 19.6699Z" fill="#EB001B"/>
<path d="M62.7062 19.6699C62.7064 23.248 61.6998 26.7539 59.8016 29.787C57.9033 32.82 55.19 35.2577 51.9718 36.8216C48.7536 38.3854 45.1603 39.0122 41.6026 38.6304C38.045 38.2485 34.6666 36.8734 31.8535 34.6623C34.1232 32.8776 35.958 30.6009 37.2197 28.0038C38.4813 25.4068 39.1369 22.5572 39.1369 19.6699C39.1369 16.7827 38.4813 13.9331 37.2197 11.336C35.958 8.73899 34.1232 6.46229 31.8535 4.67762C34.6666 2.46643 38.045 1.09134 41.6026 0.709491C45.1603 0.327647 48.7536 0.954467 51.9718 2.51831C55.19 4.08214 57.9033 6.51989 59.8016 9.55292C61.6998 12.5859 62.7064 16.0919 62.7062 19.6699Z" fill="#F79E1B"/>
<path d="M60.8863 31.486V30.8721H61.1338V30.7471H60.5034V30.8721H60.7511V31.486H60.8863ZM62.1102 31.486V30.7458H61.917L61.6947 31.255L61.4724 30.7458H61.279V31.486H61.4155V30.9277L61.6239 31.409H61.7654L61.9738 30.9265V31.486H62.1102Z" fill="#F79E1B"/>
</g>
<defs>
<clipPath id="clip0_3_2558">
<rect width="64" height="48" fill="white" transform="translate(0 0.600586)"/>
</clipPath>
</defs>
</svg>
