<svg width="64" height="49" viewBox="0 0 64 49" fill="none" xmlns="http://www.w3.org/2000/svg">
<path d="M2.67619 15.8976C2.49163 15.8976 2.33444 16.0316 2.30567 16.2148L0.166025 29.7853C0.136552 29.9747 0.265674 30.1523 0.455147 30.1824C0.47269 30.1853 0.490937 30.1867 0.509183 30.1867H3.04672C3.23128 30.1867 3.38847 30.0519 3.41724 29.8695L4.04601 25.8842C4.07478 25.7018 4.23198 25.567 4.41654 25.567H6.7239C9.42003 25.567 11.7077 23.6 12.126 20.9348C12.5477 18.247 10.4474 15.9032 7.47126 15.8976H2.67619ZM5.14285 18.927H6.98916C8.50915 18.927 9.00389 19.8239 8.8474 20.8155C8.69091 21.8091 7.92249 22.5411 6.45232 22.5411H4.57373L5.14355 18.927H5.14285ZM17.2874 19.8498C16.6467 19.852 15.9091 19.9832 15.0818 20.3284C13.1828 21.12 12.2712 22.7558 11.8839 23.9481C11.8839 23.9481 10.6516 27.586 13.4362 29.5853C13.4362 29.5853 16.0186 31.5095 18.926 29.4667L18.8761 29.786C18.8467 29.9754 18.9758 30.153 19.1653 30.1831C19.1828 30.186 19.2003 30.1874 19.2186 30.1874H21.6277C21.8123 30.1874 21.9695 30.0526 21.9982 29.8702L23.4635 20.5769C23.4937 20.3874 23.3645 20.2091 23.1744 20.1797C23.1568 20.1769 23.1386 20.1755 23.1203 20.1755H20.7112C20.5267 20.1755 20.3688 20.3102 20.3407 20.4927L20.2621 20.993C20.2621 20.993 19.2102 19.8435 17.2874 19.8513V19.8498ZM17.366 22.7853C17.6425 22.7853 17.8958 22.8232 18.1225 22.8962C19.1617 23.2295 19.7512 24.2281 19.5807 25.3109C19.3702 26.6435 18.2775 27.6253 16.8754 27.6253C16.599 27.6253 16.3463 27.5874 16.119 27.5144C15.0797 27.1811 14.4867 26.1825 14.6572 25.0997C14.8677 23.767 15.9639 22.7853 17.366 22.7853Z" fill="#003087"/>
<path d="M37.368 15.8976C37.1834 15.8976 37.0262 16.0316 36.9975 16.2148L34.8578 29.7853C34.8284 29.9747 34.9575 30.1523 35.1469 30.1824C35.1645 30.1853 35.1827 30.1867 35.201 30.1867H37.7385C37.9231 30.1867 38.0803 30.0519 38.109 29.8695L38.7378 25.8842C38.7666 25.7018 38.9238 25.567 39.1083 25.567H41.4157C44.1118 25.567 46.3995 23.6 46.8171 20.9348C47.2388 18.247 45.1392 15.9032 42.1631 15.8976H37.368ZM39.8347 18.927H41.681C43.201 18.927 43.6957 19.8239 43.5392 20.8155C43.3827 21.8091 42.6143 22.5411 41.1441 22.5411H39.2655L39.8354 18.927H39.8347ZM51.9785 19.8498C51.3378 19.852 50.6002 19.9832 49.7729 20.3284C47.8739 21.12 46.9623 22.7558 46.575 23.9481C46.575 23.9481 45.3427 27.586 48.128 29.5853C48.128 29.5853 50.7097 31.5095 53.6171 29.4667L53.5672 29.786C53.5378 29.9754 53.6669 30.153 53.8564 30.1831C53.8739 30.186 53.8922 30.1874 53.9104 30.1874H56.3195C56.5041 30.1874 56.6613 30.0526 56.69 29.8702L58.156 20.5769C58.1862 20.3874 58.057 20.2091 57.8669 20.1797C57.8486 20.1769 57.8304 20.1755 57.8121 20.1755H55.403C55.2185 20.1755 55.0606 20.3102 55.0325 20.4927L54.9539 20.993C54.9539 20.993 53.902 19.8435 51.9792 19.8513L51.9785 19.8498ZM52.0571 22.7853C52.3336 22.7853 52.5869 22.8232 52.8136 22.8962C53.8528 23.2295 54.4423 24.2281 54.2718 25.3109C54.0613 26.6435 52.9686 27.6253 51.5665 27.6253C51.2901 27.6253 51.0374 27.5874 50.8101 27.5144C49.7708 27.1811 49.1778 26.1825 49.3483 25.0997C49.5588 23.767 50.655 22.7853 52.0571 22.7853Z" fill="#0070E0"/>
<path d="M24.6066 20.1748C24.4158 20.1748 24.2796 20.3614 24.3386 20.5432L26.98 28.739L24.5919 32.6014C24.4761 32.7888 24.6108 33.0309 24.8312 33.0309H27.6536C27.8178 33.0309 27.9701 32.9446 28.055 32.8042L35.4312 20.6021C35.5441 20.4148 35.4094 20.1748 35.1898 20.1748H32.3673C32.2017 20.1748 32.048 20.2625 31.9638 20.4049L29.0607 25.3067L27.587 20.4407C27.5393 20.2821 27.3926 20.1741 27.2277 20.1741H24.6073L24.6066 20.1748Z" fill="#003087"/>
<path d="M60.8928 15.8976C60.7083 15.8976 60.5511 16.0323 60.5223 16.2147L58.382 29.7845C58.3518 29.974 58.4809 30.1522 58.6711 30.1817C58.6893 30.1845 58.7076 30.1859 58.7258 30.1859H61.2634C61.4479 30.1859 61.6051 30.0512 61.6339 29.8687L63.7735 16.2983C63.803 16.1088 63.6739 15.9312 63.4844 15.9011C63.4669 15.8983 63.4493 15.8969 63.4311 15.8969H60.8935L60.8928 15.8976Z" fill="#0070E0"/>
</svg>
