<svg width="64" height="49" viewBox="0 0 64 49" fill="none" xmlns="http://www.w3.org/2000/svg">
<g clip-path="url(#clip0_3_2559)">
<path d="M27.7324 35.0134H22.5715L25.8041 14.9656H30.9933L27.7324 35.0134Z" fill="#1434CB"/>
<path d="M46.5325 15.4476C45.5117 15.0506 43.8954 14.5969 41.8821 14.5969C36.7496 14.5969 33.1484 17.3191 33.12 21.2323C33.0916 24.1246 35.7004 25.7126 37.657 26.6767C39.6703 27.6691 40.3508 28.293 40.3508 29.172C40.3225 30.5048 38.7345 31.1286 37.2317 31.1286C35.1617 31.1286 34.0558 30.8167 32.3544 30.0511L31.6738 29.7391L30.9933 34.2478C32.2126 34.8149 34.4527 35.297 36.778 35.3253C42.2224 35.3253 45.7669 32.6315 45.7952 28.4631C45.8236 26.1663 44.4341 24.4365 41.4284 22.9904C39.6136 22.083 38.5077 21.4591 38.5077 20.5234C38.536 19.6727 39.4434 18.7936 41.4851 18.7936C43.1581 18.7369 44.4058 19.1623 45.3415 19.5593L45.8236 19.7861L46.5325 15.4476Z" fill="#1434CB"/>
<path d="M53.4232 27.9244C53.8485 26.7618 55.4932 22.3098 55.4932 22.3098C55.4648 22.3666 55.9185 21.1472 56.1737 20.3816L56.5424 22.1113C56.5424 22.1113 57.5348 26.9035 57.7333 27.9244C56.9394 27.9244 54.4724 27.9244 53.4232 27.9244ZM59.8317 14.9656H55.8335C54.5858 14.9656 53.65 15.3342 53.1113 16.6386L45.3984 35.0418H50.8428C50.8428 35.0418 51.7502 32.5748 51.9203 32.036C52.5158 32.036 57.8184 32.036 58.584 32.036C58.7258 32.7449 59.2079 35.0418 59.2079 35.0418H64.0001L59.8317 14.9656Z" fill="#1434CB"/>
<path d="M18.233 14.9656L13.1573 28.6333L12.5901 25.8544C11.6544 22.6785 8.70534 19.1907 5.41602 17.4609L10.0664 34.9851H15.5392L23.7058 14.9656H18.233Z" fill="#1434CB"/>
<path d="M8.42192 14.9655H0.0851911L0.00012207 15.3624C6.52205 17.0355 10.8322 21.0337 12.5903 25.8542L10.7755 16.6385C10.4919 15.3624 9.55617 14.9938 8.42192 14.9655Z" fill="#1434CB"/>
</g>
<defs>
<clipPath id="clip0_3_2559">
<rect width="64" height="48" fill="white" transform="translate(0 0.600586)"/>
</clipPath>
</defs>
</svg>
